<?xml version='1.0' encoding='utf-8'?>
<svg xmlns:xlink="http://www.w3.org/1999/xlink" class="pygal-chart" id="chart-04d859ee-ad40-44c8-b8f2-32ea6ee48b59" viewBox="0 0 800 600" xmlns="http://www.w3.org/2000/svg"><!--Generated with pygal 2.4.0 (etree) ©Kozea 2012-2016 on 2019-11-21--><!--http://pygal.org--><!--http://github.com/Kozea/pygal--><defs><style type="text/css">#chart-04d859ee-ad40-44c8-b8f2-32ea6ee48b59{-webkit-user-select:none;-webkit-font-smoothing:antialiased;font-family:Consolas,"Liberation Mono",Menlo,Courier,monospace}#chart-04d859ee-ad40-44c8-b8f2-32ea6ee48b59 .title{font-family:Consolas,"Liberation Mono",Menlo,Courier,monospace;font-size:16px}#chart-04d859ee-ad40-44c8-b8f2-32ea6ee48b59 .legends .legend text{font-family:Consolas,"Liberation Mono",Menlo,Courier,monospace;font-size:14px}#chart-04d859ee-ad40-44c8-b8f2-32ea6ee48b59 .axis text{font-family:Consolas,"Liberation Mono",Menlo,Courier,monospace;font-size:10px}#chart-04d859ee-ad40-44c8-b8f2-32ea6ee48b59 .axis text.major{font-family:Consolas,"Liberation Mono",Menlo,Courier,monospace;font-size:10px}#chart-04d859ee-ad40-44c8-b8f2-32ea6ee48b59 .text-overlay text.value{font-family:Consolas,"Liberation Mono",Menlo,Courier,monospace;font-size:16px}#chart-04d859ee-ad40-44c8-b8f2-32ea6ee48b59 .text-overlay text.label{font-family:Consolas,"Liberation Mono",Menlo,Courier,monospace;font-size:10px}#chart-04d859ee-ad40-44c8-b8f2-32ea6ee48b59 .tooltip{font-family:Consolas,"Liberation Mono",Menlo,Courier,monospace;font-size:14px}#chart-04d859ee-ad40-44c8-b8f2-32ea6ee48b59 text.no_data{font-family:Consolas,"Liberation Mono",Menlo,Courier,monospace;font-size:64px}
#chart-04d859ee-ad40-44c8-b8f2-32ea6ee48b59{background-color:rgba(249,249,249,1)}#chart-04d859ee-ad40-44c8-b8f2-32ea6ee48b59 path,#chart-04d859ee-ad40-44c8-b8f2-32ea6ee48b59 line,#chart-04d859ee-ad40-44c8-b8f2-32ea6ee48b59 rect,#chart-04d859ee-ad40-44c8-b8f2-32ea6ee48b59 circle{-webkit-transition:150ms;-moz-transition:150ms;transition:150ms}#chart-04d859ee-ad40-44c8-b8f2-32ea6ee48b59 .graph &gt; .background{fill:rgba(249,249,249,1)}#chart-04d859ee-ad40-44c8-b8f2-32ea6ee48b59 .plot &gt; .background{fill:rgba(255,255,255,1)}#chart-04d859ee-ad40-44c8-b8f2-32ea6ee48b59 .graph{fill:rgba(0,0,0,.87)}#chart-04d859ee-ad40-44c8-b8f2-32ea6ee48b59 text.no_data{fill:rgba(0,0,0,1)}#chart-04d859ee-ad40-44c8-b8f2-32ea6ee48b59 .title{fill:rgba(0,0,0,1)}#chart-04d859ee-ad40-44c8-b8f2-32ea6ee48b59 .legends .legend text{fill:rgba(0,0,0,.87)}#chart-04d859ee-ad40-44c8-b8f2-32ea6ee48b59 .legends .legend:hover text{fill:rgba(0,0,0,1)}#chart-04d859ee-ad40-44c8-b8f2-32ea6ee48b59 .axis .line{stroke:rgba(0,0,0,1)}#chart-04d859ee-ad40-44c8-b8f2-32ea6ee48b59 .axis .guide.line{stroke:rgba(0,0,0,.54)}#chart-04d859ee-ad40-44c8-b8f2-32ea6ee48b59 .axis .major.line{stroke:rgba(0,0,0,.87)}#chart-04d859ee-ad40-44c8-b8f2-32ea6ee48b59 .axis text.major{fill:rgba(0,0,0,1)}#chart-04d859ee-ad40-44c8-b8f2-32ea6ee48b59 .axis.y .guides:hover .guide.line,#chart-04d859ee-ad40-44c8-b8f2-32ea6ee48b59 .line-graph .axis.x .guides:hover .guide.line,#chart-04d859ee-ad40-44c8-b8f2-32ea6ee48b59 .stackedline-graph .axis.x .guides:hover .guide.line,#chart-04d859ee-ad40-44c8-b8f2-32ea6ee48b59 .xy-graph .axis.x .guides:hover .guide.line{stroke:rgba(0,0,0,1)}#chart-04d859ee-ad40-44c8-b8f2-32ea6ee48b59 .axis .guides:hover text{fill:rgba(0,0,0,1)}#chart-04d859ee-ad40-44c8-b8f2-32ea6ee48b59 .reactive{fill-opacity:.7;stroke-opacity:.8}#chart-04d859ee-ad40-44c8-b8f2-32ea6ee48b59 .ci{stroke:rgba(0,0,0,.87)}#chart-04d859ee-ad40-44c8-b8f2-32ea6ee48b59 .reactive.active,#chart-04d859ee-ad40-44c8-b8f2-32ea6ee48b59 .active .reactive{fill-opacity:.8;stroke-opacity:.9;stroke-width:4}#chart-04d859ee-ad40-44c8-b8f2-32ea6ee48b59 .ci .reactive.active{stroke-width:1.5}#chart-04d859ee-ad40-44c8-b8f2-32ea6ee48b59 .series text{fill:rgba(0,0,0,1)}#chart-04d859ee-ad40-44c8-b8f2-32ea6ee48b59 .tooltip rect{fill:rgba(255,255,255,1);stroke:rgba(0,0,0,1);-webkit-transition:opacity 150ms;-moz-transition:opacity 150ms;transition:opacity 150ms}#chart-04d859ee-ad40-44c8-b8f2-32ea6ee48b59 .tooltip .label{fill:rgba(0,0,0,.87)}#chart-04d859ee-ad40-44c8-b8f2-32ea6ee48b59 .tooltip .label{fill:rgba(0,0,0,.87)}#chart-04d859ee-ad40-44c8-b8f2-32ea6ee48b59 .tooltip .legend{font-size:.8em;fill:rgba(0,0,0,.54)}#chart-04d859ee-ad40-44c8-b8f2-32ea6ee48b59 .tooltip .x_label{font-size:.6em;fill:rgba(0,0,0,1)}#chart-04d859ee-ad40-44c8-b8f2-32ea6ee48b59 .tooltip .xlink{font-size:.5em;text-decoration:underline}#chart-04d859ee-ad40-44c8-b8f2-32ea6ee48b59 .tooltip .value{font-size:1.5em}#chart-04d859ee-ad40-44c8-b8f2-32ea6ee48b59 .bound{font-size:.5em}#chart-04d859ee-ad40-44c8-b8f2-32ea6ee48b59 .max-value{font-size:.75em;fill:rgba(0,0,0,.54)}#chart-04d859ee-ad40-44c8-b8f2-32ea6ee48b59 .map-element{fill:rgba(255,255,255,1);stroke:rgba(0,0,0,.54) !important}#chart-04d859ee-ad40-44c8-b8f2-32ea6ee48b59 .map-element .reactive{fill-opacity:inherit;stroke-opacity:inherit}#chart-04d859ee-ad40-44c8-b8f2-32ea6ee48b59 .color-0,#chart-04d859ee-ad40-44c8-b8f2-32ea6ee48b59 .color-0 a:visited{stroke:#F44336;fill:#F44336}#chart-04d859ee-ad40-44c8-b8f2-32ea6ee48b59 .color-1,#chart-04d859ee-ad40-44c8-b8f2-32ea6ee48b59 .color-1 a:visited{stroke:#3F51B5;fill:#3F51B5}#chart-04d859ee-ad40-44c8-b8f2-32ea6ee48b59 .text-overlay .color-0 text{fill:black}#chart-04d859ee-ad40-44c8-b8f2-32ea6ee48b59 .text-overlay .color-1 text{fill:black}
#chart-04d859ee-ad40-44c8-b8f2-32ea6ee48b59 text.no_data{text-anchor:middle}#chart-04d859ee-ad40-44c8-b8f2-32ea6ee48b59 .guide.line{fill:none}#chart-04d859ee-ad40-44c8-b8f2-32ea6ee48b59 .centered{text-anchor:middle}#chart-04d859ee-ad40-44c8-b8f2-32ea6ee48b59 .title{text-anchor:middle}#chart-04d859ee-ad40-44c8-b8f2-32ea6ee48b59 .legends .legend text{fill-opacity:1}#chart-04d859ee-ad40-44c8-b8f2-32ea6ee48b59 .axis.x text{text-anchor:middle}#chart-04d859ee-ad40-44c8-b8f2-32ea6ee48b59 .axis.x:not(.web) text[transform]{text-anchor:start}#chart-04d859ee-ad40-44c8-b8f2-32ea6ee48b59 .axis.x:not(.web) text[transform].backwards{text-anchor:end}#chart-04d859ee-ad40-44c8-b8f2-32ea6ee48b59 .axis.y text{text-anchor:end}#chart-04d859ee-ad40-44c8-b8f2-32ea6ee48b59 .axis.y text[transform].backwards{text-anchor:start}#chart-04d859ee-ad40-44c8-b8f2-32ea6ee48b59 .axis.y2 text{text-anchor:start}#chart-04d859ee-ad40-44c8-b8f2-32ea6ee48b59 .axis.y2 text[transform].backwards{text-anchor:end}#chart-04d859ee-ad40-44c8-b8f2-32ea6ee48b59 .axis .guide.line{stroke-dasharray:4,4}#chart-04d859ee-ad40-44c8-b8f2-32ea6ee48b59 .axis .major.guide.line{stroke-dasharray:6,6}#chart-04d859ee-ad40-44c8-b8f2-32ea6ee48b59 .horizontal .axis.y .guide.line,#chart-04d859ee-ad40-44c8-b8f2-32ea6ee48b59 .horizontal .axis.y2 .guide.line,#chart-04d859ee-ad40-44c8-b8f2-32ea6ee48b59 .vertical .axis.x .guide.line{opacity:0}#chart-04d859ee-ad40-44c8-b8f2-32ea6ee48b59 .horizontal .axis.always_show .guide.line,#chart-04d859ee-ad40-44c8-b8f2-32ea6ee48b59 .vertical .axis.always_show .guide.line{opacity:1 !important}#chart-04d859ee-ad40-44c8-b8f2-32ea6ee48b59 .axis.y .guides:hover .guide.line,#chart-04d859ee-ad40-44c8-b8f2-32ea6ee48b59 .axis.y2 .guides:hover .guide.line,#chart-04d859ee-ad40-44c8-b8f2-32ea6ee48b59 .axis.x .guides:hover .guide.line{opacity:1}#chart-04d859ee-ad40-44c8-b8f2-32ea6ee48b59 .axis .guides:hover text{opacity:1}#chart-04d859ee-ad40-44c8-b8f2-32ea6ee48b59 .nofill{fill:none}#chart-04d859ee-ad40-44c8-b8f2-32ea6ee48b59 .subtle-fill{fill-opacity:.2}#chart-04d859ee-ad40-44c8-b8f2-32ea6ee48b59 .dot{stroke-width:1px;fill-opacity:1}#chart-04d859ee-ad40-44c8-b8f2-32ea6ee48b59 .dot.active{stroke-width:5px}#chart-04d859ee-ad40-44c8-b8f2-32ea6ee48b59 .dot.negative{fill:transparent}#chart-04d859ee-ad40-44c8-b8f2-32ea6ee48b59 text,#chart-04d859ee-ad40-44c8-b8f2-32ea6ee48b59 tspan{stroke:none !important}#chart-04d859ee-ad40-44c8-b8f2-32ea6ee48b59 .series text.active{opacity:1}#chart-04d859ee-ad40-44c8-b8f2-32ea6ee48b59 .tooltip rect{fill-opacity:.95;stroke-width:.5}#chart-04d859ee-ad40-44c8-b8f2-32ea6ee48b59 .tooltip text{fill-opacity:1}#chart-04d859ee-ad40-44c8-b8f2-32ea6ee48b59 .showable{visibility:hidden}#chart-04d859ee-ad40-44c8-b8f2-32ea6ee48b59 .showable.shown{visibility:visible}#chart-04d859ee-ad40-44c8-b8f2-32ea6ee48b59 .gauge-background{fill:rgba(229,229,229,1);stroke:none}#chart-04d859ee-ad40-44c8-b8f2-32ea6ee48b59 .bg-lines{stroke:rgba(249,249,249,1);stroke-width:2px}</style><script type="text/javascript">window.pygal = window.pygal || {};window.pygal.config = window.pygal.config || {};window.pygal.config['04d859ee-ad40-44c8-b8f2-32ea6ee48b59'] = {"allow_interruptions": false, "box_mode": "extremes", "classes": ["pygal-chart"], "css": ["file://style.css", "file://graph.css"], "defs": [], "disable_xml_declaration": false, "dots_size": 2.5, "dynamic_print_values": false, "explicit_size": false, "fill": false, "force_uri_protocol": "https", "formatter": null, "half_pie": false, "height": 600, "include_x_axis": false, "inner_radius": 0, "interpolate": "cubic", "interpolation_parameters": {}, "interpolation_precision": 250, "inverse_y_axis": false, "js": ["//kozea.github.io/pygal.js/2.0.x/pygal-tooltips.min.js"], "legend_at_bottom": false, "legend_at_bottom_columns": null, "legend_box_size": 12, "logarithmic": false, "margin": 20, "margin_bottom": null, "margin_left": null, "margin_right": null, "margin_top": null, "max_scale": 16, "min_scale": 4, "missing_value_fill_truncation": "x", "no_data_text": "No data", "no_prefix": false, "order_min": null, "pretty_print": false, "print_labels": true, "print_values": false, "print_values_position": "center", "print_zeroes": true, "range": null, "rounded_bars": null, "secondary_range": null, "show_dots": true, "show_legend": true, "show_minor_x_labels": true, "show_minor_y_labels": true, "show_only_major_dots": false, "show_x_guides": false, "show_x_labels": true, "show_y_guides": true, "show_y_labels": true, "spacing": 10, "stack_from_top": false, "strict": false, "stroke": true, "stroke_style": null, "style": {"background": "rgba(249, 249, 249, 1)", "ci_colors": [], "colors": ["#F44336", "#3F51B5", "#009688", "#FFC107", "#FF5722", "#9C27B0", "#03A9F4", "#8BC34A", "#FF9800", "#E91E63", "#2196F3", "#4CAF50", "#FFEB3B", "#673AB7", "#00BCD4", "#CDDC39", "#9E9E9E", "#607D8B"], "font_family": "Consolas, \"Liberation Mono\", Menlo, Courier, monospace", "foreground": "rgba(0, 0, 0, .87)", "foreground_strong": "rgba(0, 0, 0, 1)", "foreground_subtle": "rgba(0, 0, 0, .54)", "guide_stroke_dasharray": "4,4", "label_font_family": "Consolas, \"Liberation Mono\", Menlo, Courier, monospace", "label_font_size": 10, "legend_font_family": "Consolas, \"Liberation Mono\", Menlo, Courier, monospace", "legend_font_size": 14, "major_guide_stroke_dasharray": "6,6", "major_label_font_family": "Consolas, \"Liberation Mono\", Menlo, Courier, monospace", "major_label_font_size": 10, "no_data_font_family": "Consolas, \"Liberation Mono\", Menlo, Courier, monospace", "no_data_font_size": 64, "opacity": ".7", "opacity_hover": ".8", "plot_background": "rgba(255, 255, 255, 1)", "stroke_opacity": ".8", "stroke_opacity_hover": ".9", "title_font_family": "Consolas, \"Liberation Mono\", Menlo, Courier, monospace", "title_font_size": 16, "tooltip_font_family": "Consolas, \"Liberation Mono\", Menlo, Courier, monospace", "tooltip_font_size": 14, "transition": "150ms", "value_background": "rgba(229, 229, 229, 1)", "value_colors": [], "value_font_family": "Consolas, \"Liberation Mono\", Menlo, Courier, monospace", "value_font_size": 16, "value_label_font_family": "Consolas, \"Liberation Mono\", Menlo, Courier, monospace", "value_label_font_size": 10}, "title": "tagMac: 0x5f8d9e", "tooltip_border_radius": 0, "tooltip_fancy_mode": true, "truncate_label": null, "truncate_legend": null, "width": 800, "x_label_rotation": 0, "x_labels": null, "x_labels_major": null, "x_labels_major_count": null, "x_labels_major_every": null, "x_title": null, "xrange": null, "y_label_rotation": 0, "y_labels": null, "y_labels_major": null, "y_labels_major_count": null, "y_labels_major_every": null, "y_title": null, "zero": 0, "legends": ["eec50c22", "0b3312e6"]}</script><script type="text/javascript" xlink:href="https://kozea.github.io/pygal.js/2.0.x/pygal-tooltips.min.js" /></defs><title>tagMac: 0x5f8d9e</title><g class="graph line-graph vertical"><rect class="background" height="600" width="800" x="0" y="0" /><g class="plot" transform="translate(137, 46)"><rect class="background" height="534" width="642.8" x="0" y="0" /><g class="axis y always_show"><path class="line" d="M0.000000 534.000000 h642.800000" /><g class="guides"><path class="guide line" d="M0.000000 523.730769 h642.800000" /><text class="" x="-5" y="527.23076923077">-64</text><title>-64</title></g><g class="guides"><path class="guide line" d="M0.000000 399.248789 h642.800000" /><text class="" x="-5" y="402.748788526623">-63</text><title>-63</title></g><g class="guides"><path class="guide line" d="M0.000000 274.766808 h642.800000" /><text class="" x="-5" y="278.26680782247604">-62</text><title>-62</title></g><g class="guides"><path class="guide line" d="M0.000000 150.284827 h642.800000" /><text class="" x="-5" y="153.78482711832908">-61</text><title>-61</title></g><g class="guides"><path class="major guide line" d="M0.000000 25.802846 h642.800000" /><text class="major" x="-5" y="29.302846414182113">-60</text><title>-60</title></g></g><g class="series serie-0 color-0"><path class="line reactive nofill" d="M12.361538 25.802846 L12.773590 25.854553 13.185641 25.906256 13.597692 25.957948 14.009744 26.009625 14.421795 26.061282 14.833846 26.112915 15.245897 26.164518 15.657949 26.216086 16.070000 26.267614 16.482051 26.319098 16.894103 26.370532 17.306154 26.421912 17.718205 26.473231 18.130256 26.524487 18.542308 26.575673 18.954359 26.626784 19.366410 26.677816 19.778462 26.728764 20.190513 26.779622 20.602564 26.830386 21.014615 26.881050 21.426667 26.931611 21.838718 26.982062 22.250769 27.032399 22.662821 27.082617 23.074872 27.132711 23.486923 27.182675 23.898974 27.232506 24.311026 27.282198 24.723077 27.331746 25.135128 27.381144 25.547179 27.430389 25.959231 27.479475 26.371282 27.528398 26.783333 27.577151 27.195385 27.625731 27.607436 27.674132 28.019487 27.722350 28.431538 27.770378 28.843590 27.818214 29.255641 27.865850 29.667692 27.913283 30.079744 27.960508 30.491795 28.007519 30.903846 28.054312 31.315897 28.100881 31.727949 28.147222 32.140000 28.193330 32.552051 28.239199 32.964103 28.284826 33.376154 28.330204 33.788205 28.375328 34.200256 28.420195 34.612308 28.464799 35.024359 28.509134 35.436410 28.553197 35.848462 28.596982 36.260513 28.640483 36.672564 28.683697 37.084615 28.726618 37.496667 28.769241 37.908718 28.811561 38.320769 28.853574 38.732821 28.895273 39.144872 28.936655 39.556923 28.977715 39.968974 29.018447 40.381026 29.058846 40.793077 29.098907 41.205128 29.138626 41.617179 29.177998 42.029231 29.217017 42.441282 29.255679 42.853333 29.293978 43.265385 29.331911 43.677436 29.369470 44.089487 29.406653 44.501538 29.443453 44.913590 29.479866 45.325641 29.515887 45.737692 29.551511 46.149744 29.586733 46.561795 29.621548 46.973846 29.655950 47.385897 29.689936 47.797949 29.723500 48.210000 29.756637 48.622051 29.789342 49.034103 29.821610 49.446154 29.853436 49.858205 29.884816 50.270256 29.915744 50.682308 29.946215 51.094359 29.976225 51.506410 30.005768 51.918462 30.034839 52.330513 30.063434 52.742564 30.091548 53.154615 30.119175 53.566667 30.146310 53.978718 30.172949 54.390769 30.199087 54.802821 30.224718 55.214872 30.249838 55.626923 30.274442 56.038974 30.298525 56.451026 30.322081 56.863077 30.345107 57.275128 30.367596 57.687179 30.389544 58.099231 30.410946 58.511282 30.431797 58.923333 30.452092 59.335385 30.471827 59.747436 30.490995 60.159487 30.509592 60.571538 30.527614 60.983590 30.545055 61.395641 30.561910 61.807692 30.578174 62.219744 30.593843 62.631795 30.608911 63.043846 30.623374 63.455897 30.637226 63.867949 30.650462 64.280000 30.663078 64.692051 30.675068 65.104103 30.686428 65.516154 30.697153 65.928205 30.707237 66.340256 30.716676 66.752308 30.725465 67.164359 30.733598 67.576410 30.741072 67.988462 30.747880 68.400513 30.754018 68.812564 30.759480 69.224615 30.764263 69.636667 30.768361 70.048718 30.771769 70.460769 30.774482 70.872821 30.776494 71.284872 30.777802 71.696923 30.778401 72.108974 30.778284 72.521026 30.777448 72.933077 30.775886 73.345128 30.773595 73.757179 30.770570 74.169231 30.766805 74.581282 30.762295 74.993333 30.757036 75.405385 30.751022 75.817436 30.744249 76.229487 30.736711 76.641538 30.728404 77.053590 30.719322 77.465641 30.709461 77.877692 30.698816 78.289744 30.687381 78.701795 30.675153 79.113846 30.662125 79.525897 30.648293 79.937949 30.633652 80.350000 30.618196 80.762051 30.601922 81.174103 30.584824 81.586154 30.566896 81.998205 30.548135 82.410256 30.528535 82.822308 30.508091 83.234359 30.486798 83.646410 30.464651 84.058462 30.441646 84.470513 30.417776 84.882564 30.393039 85.294615 30.367427 85.706667 30.340937 86.118718 30.313563 86.530769 30.285301 86.942821 30.256145 87.354872 30.226091 87.766923 30.195133 88.178974 30.163267 88.591026 30.130487 89.003077 30.096790 89.415128 30.062168 89.827179 30.026619 90.239231 29.990136 90.651282 29.952716 91.063333 29.914352 91.475385 29.875040 91.887436 29.834774 92.299487 29.793551 92.711538 29.751365 93.123590 29.708211 93.535641 29.664084 93.947692 29.618979 94.359744 29.572891 94.771795 29.525815 95.183846 29.477747 95.595897 29.428680 96.007949 29.378611 96.420000 29.327535 96.832051 29.275446 97.244103 29.222339 97.656154 29.168209 98.068205 29.113052 98.480256 29.056863 98.892308 28.999636 99.304359 28.941366 99.716410 28.882049 100.128462 28.821680 100.540513 28.760254 100.952564 28.697765 101.364615 28.634209 101.776667 28.569581 102.188718 28.503875 102.600769 28.437088 103.012821 28.369213 103.424872 28.300246 103.836923 28.230182 104.248974 28.159017 104.661026 28.086744 105.073077 28.013359 105.485128 27.938858 105.897179 27.863234 106.309231 27.786484 106.721282 27.708602 107.133333 27.629583 107.545385 27.549423 107.957436 27.468115 108.369487 27.385657 108.781538 27.302041 109.193590 27.217264 109.605641 27.131321 110.017692 27.044206 110.429744 26.955914 110.841795 26.866442 111.253846 26.775782 111.665897 26.683932 112.077949 26.590885 112.490000 26.496637 112.902051 26.401182 113.314103 26.304516 113.726154 26.206635 114.138205 26.107532 114.550256 26.007203 114.962308 25.905643 115.374359 25.802846 115.786410 25.698814 116.198462 25.593566 116.610513 25.487126 117.022564 25.379520 117.434615 25.270772 117.846667 25.160907 118.258718 25.049950 118.670769 24.937926 119.082821 24.824860 119.494872 24.710776 119.906923 24.595699 120.318974 24.479654 120.731026 24.362666 121.143077 24.244759 121.555128 24.125959 121.967179 24.006291 122.379231 23.885778 122.791282 23.764447 123.203333 23.642321 123.615385 23.519426 124.027436 23.395786 124.439487 23.271426 124.851538 23.146372 125.263590 23.020647 125.675641 22.894277 126.087692 22.767287 126.499744 22.639700 126.911795 22.511543 127.323846 22.382840 127.735897 22.253616 128.147949 22.123896 128.560000 21.993703 128.972051 21.863064 129.384103 21.732003 129.796154 21.600545 130.208205 21.468715 130.620256 21.336537 131.032308 21.204037 131.444359 21.071239 131.856410 20.938167 132.268462 20.804848 132.680513 20.671305 133.092564 20.537563 133.504615 20.403648 133.916667 20.269584 134.328718 20.135396 134.740769 20.001108 135.152821 19.866746 135.564872 19.732335 135.976923 19.597898 136.388974 19.463462 136.801026 19.329050 137.213077 19.194689 137.625128 19.060401 138.037179 18.926213 138.449231 18.792149 138.861282 18.658234 139.273333 18.524492 139.685385 18.390949 140.097436 18.257630 140.509487 18.124558 140.921538 17.991760 141.333590 17.859260 141.745641 17.727082 142.157692 17.595251 142.569744 17.463793 142.981795 17.332733 143.393846 17.202094 143.805897 17.071901 144.217949 16.942181 144.630000 16.812956 145.042051 16.684253 145.454103 16.556096 145.866154 16.428510 146.278205 16.301520 146.690256 16.175150 147.102308 16.049425 147.514359 15.924371 147.926410 15.800011 148.338462 15.676371 148.750513 15.553476 149.162564 15.431350 149.574615 15.310019 149.986667 15.189506 150.398718 15.069838 150.810769 14.951038 151.222821 14.833131 151.634872 14.716143 152.046923 14.600098 152.458974 14.485021 152.871026 14.370937 153.283077 14.257871 153.695128 14.145846 154.107179 14.034890 154.519231 13.925025 154.931282 13.816277 155.343333 13.708671 155.755385 13.602231 156.167436 13.496983 156.579487 13.392950 156.991538 13.290159 157.403590 13.188634 157.815641 13.088399 158.227692 12.989480 158.639744 12.891901 159.051795 12.795687 159.463846 12.700863 159.875897 12.607454 160.287949 12.515484 160.700000 12.424979 161.112051 12.335962 161.524103 12.248460 161.936154 12.162497 162.348205 12.078097 162.760256 11.995286 163.172308 11.914088 163.584359 11.834528 163.996410 11.756631 164.408462 11.680422 164.820513 11.605925 165.232564 11.533166 165.644615 11.462169 166.056667 11.392959 166.468718 11.325561 166.880769 11.260000 167.292821 11.196300 167.704872 11.134486 168.116923 11.074583 168.528974 11.016617 168.941026 10.960611 169.353077 10.906591 169.765128 10.854581 170.177179 10.804606 170.589231 10.756691 171.001282 10.710862 171.413333 10.667142 171.825385 10.625556 172.237436 10.586130 172.649487 10.548888 173.061538 10.513855 173.473590 10.481055 173.885641 10.450515 174.297692 10.422257 174.709744 10.396308 175.121795 10.372692 175.533846 10.351434 175.945897 10.332558 176.357949 10.316091 176.770000 10.302055 177.182051 10.290477 177.594103 10.281380 178.006154 10.274790 178.418205 10.270732 178.830256 10.269231 179.242308 10.270310 179.654359 10.273996 180.066410 10.280313 180.478462 10.289285 180.890513 10.300938 181.302564 10.315296 181.714615 10.332385 182.126667 10.352228 182.538718 10.374851 182.950769 10.400279 183.362821 10.428537 183.774872 10.459648 184.186923 10.493639 184.598974 10.530534 185.011026 10.570357 185.423077 10.613134 185.835128 10.658889 186.247179 10.707648 186.659231 10.759434 187.071282 10.814273 187.483333 10.872190 187.895385 10.933210 188.307436 10.997357 188.719487 11.064655 189.131538 11.135131 189.543590 11.208809 189.955641 11.285713 190.367692 11.365868 190.779744 11.449300 191.191795 11.536033 191.603846 11.626092 192.015897 11.719501 192.427949 11.816286 192.840000 11.916471 193.252051 12.020081 193.664103 12.127141 194.076154 12.237676 194.488205 12.351711 194.900256 12.469270 195.312308 12.590378 195.724359 12.715060 196.136410 12.843341 196.548462 12.975246 196.960513 13.110799 197.372564 13.250026 197.784615 13.392950 198.196667 13.539598 198.608718 13.689994 199.020769 13.844162 199.432821 14.002127 199.844872 14.163915 200.256923 14.329550 200.668974 14.499057 201.081026 14.672460 201.493077 14.849785 201.905128 15.031057 202.317179 15.216299 202.729231 15.405538 203.141282 15.598797 203.553333 15.796102 203.965385 15.997477 204.377436 16.202948 204.789487 16.412539 205.201538 16.626274 205.613590 16.844180 206.025641 17.066280 206.437692 17.292599 206.849744 17.523162 207.261795 17.757995 207.673846 17.997121 208.085897 18.240566 208.497949 18.488354 208.910000 18.740511 209.322051 18.997061 209.734103 19.258029 210.146154 19.523439 210.558205 19.793317 210.970256 20.067687 211.382308 20.346575 211.794359 20.630005 212.206410 20.918001 212.618462 21.210589 213.030513 21.507794 213.442564 21.809640 213.854615 22.116152 214.266667 22.427355 214.678718 22.743273 215.090769 23.063933 215.502821 23.389357 215.914872 23.719572 216.326923 24.054602 216.738974 24.394472 217.151026 24.739207 217.563077 25.088831 217.975128 25.443369 218.387179 25.802846 218.799231 26.167276 219.211282 26.536623 219.623333 26.910841 220.035385 27.289883 220.447436 27.673703 220.859487 28.062255 221.271538 28.455491 221.683590 28.853366 222.095641 29.255833 222.507692 29.662845 222.919744 30.074356 223.331795 30.490319 223.743846 30.910688 224.155897 31.335416 224.567949 31.764457 224.980000 32.197764 225.392051 32.635291 225.804103 33.076991 226.216154 33.522818 226.628205 33.972725 227.040256 34.426666 227.452308 34.884594 227.864359 35.346462 228.276410 35.812225 228.688462 36.281835 229.100513 36.755247 229.512564 37.232413 229.924615 37.713287 230.336667 38.197822 230.748718 38.685973 231.160769 39.177692 231.572821 39.672933 231.984872 40.171650 232.396923 40.673796 232.808974 41.179324 233.221026 41.688188 233.633077 42.200342 234.045128 42.715738 234.457179 43.234331 234.869231 43.756074 235.281282 44.280921 235.693333 44.808824 236.105385 45.339737 236.517436 45.873615 236.929487 46.410409 237.341538 46.950075 237.753590 47.492565 238.165641 48.037832 238.577692 48.585831 238.989744 49.136515 239.401795 49.689837 239.813846 50.245751 240.225897 50.804209 240.637949 51.365167 241.050000 51.928577 241.462051 52.494392 241.874103 53.062567 242.286154 53.633054 242.698205 54.205808 243.110256 54.780781 243.522308 55.357927 243.934359 55.937200 244.346410 56.518553 244.758462 57.101939 245.170513 57.687312 245.582564 58.274626 245.994615 58.863834 246.406667 59.454890 246.818718 60.047747 247.230769 60.642358 247.642821 61.238677 248.054872 61.836657 248.466923 62.436252 248.878974 63.037416 249.291026 63.640102 249.703077 64.244263 250.115128 64.849853 250.527179 65.456826 250.939231 66.065134 251.351282 66.674731 251.763333 67.285572 252.175385 67.897609 252.587436 68.510795 252.999487 69.125085 253.411538 69.740431 253.823590 70.356788 254.235641 70.974109 254.647692 71.592347 255.059744 72.211455 255.471795 72.831388 255.883846 73.452098 256.295897 74.073540 256.707949 74.695666 257.120000 75.318431 257.532051 75.941787 257.944103 76.565688 258.356154 77.190088 258.768205 77.814939 259.180256 78.440197 259.592308 79.065813 260.004359 79.691742 260.416410 80.317937 260.828462 80.944352 261.240513 81.570939 261.652564 82.197654 262.064615 82.824448 262.476667 83.451275 262.888718 84.078089 263.300769 84.704844 263.712821 85.331493 264.124872 85.957989 264.536923 86.584286 264.948974 87.210338 265.361026 87.836097 265.773077 88.461518 266.185128 89.086553 266.597179 89.711157 267.009231 90.335283 267.421282 90.958884 267.833333 91.581913 268.245385 92.204325 268.657436 92.826073 269.069487 93.447110 269.481538 94.067390 269.893590 94.686866 270.305641 95.305491 270.717692 95.923220 271.129744 96.540005 271.541795 97.155801 271.953846 97.770560 272.365897 98.384236 272.777949 98.996783 273.190000 99.608154 273.602051 100.218303 274.014103 100.827182 274.426154 101.434747 274.838205 102.040949 275.250256 102.645743 275.662308 103.249081 276.074359 103.850919 276.486410 104.451208 276.898462 105.049903 277.310513 105.646956 277.722564 106.242322 278.134615 106.835954 278.546667 107.427806 278.958718 108.017830 279.370769 108.605981 279.782821 109.192212 280.194872 109.776475 280.606923 110.358726 281.018974 110.938917 281.431026 111.517002 281.843077 112.092934 282.255128 112.666667 282.667179 113.238155 283.079231 113.807350 283.491282 114.374206 283.903333 114.938677 284.315385 115.500716 284.727436 116.060277 285.139487 116.617313 285.551538 117.171778 285.963590 117.723625 286.375641 118.272807 286.787692 118.819279 287.199744 119.362993 287.611795 119.903904 288.023846 120.441964 288.435897 120.977127 288.847949 121.509346 289.260000 122.038576 289.672051 122.564769 290.084103 123.087879 290.496154 123.607860 290.908205 124.124665 291.320256 124.638247 291.732308 125.148560 292.144359 125.655557 292.556410 126.159193 292.968462 126.659420 293.380513 127.156191 293.792564 127.649462 294.204615 128.139184 294.616667 128.625311 295.028718 129.107797 295.440769 129.586596 295.852821 130.061660 296.264872 130.532944 296.676923 131.000400 297.088974 131.463983 297.501026 131.923646 297.913077 132.379341 298.325128 132.831024 298.737179 133.278647 299.149231 133.722163 299.561282 134.161527 299.973333 134.596691 300.385385 135.027609 300.797436 135.454235 301.209487 135.876523 301.621538 136.294425 302.033590 136.707894 302.445641 137.116886 302.857692 137.521353 303.269744 137.921248 303.681795 138.316525 304.093846 138.707138 304.505897 139.093039 304.917949 139.474184 305.330000 139.850524 305.742051 140.222014 306.154103 140.588606 306.566154 140.950256 306.978205 141.306915 307.390256 141.658537 307.802308 142.005077 308.214359 142.346486 308.626410 142.682720 309.038462 143.013731 309.450513 143.339473 309.862564 143.659899 310.274615 143.974963 310.686667 144.284619 311.098718 144.588819 311.510769 144.887517 311.922821 145.180668 312.334872 145.468223 312.746923 145.750137 313.158974 146.026364 313.571026 146.296856 313.983077 146.561567 314.395128 146.820451 314.807179 147.073461 315.219231 147.320551 315.631282 147.561674 316.043333 147.796784 316.455385 148.025833 316.867436 148.248777 317.279487 148.465567 317.691538 148.676158 318.103590 148.880503 318.515641 149.078555 318.927692 149.270269 319.339744 149.455597 319.751795 149.634493 320.163846 149.806911 320.575897 149.972803 320.987949 150.132124 321.400000 150.284827 321.812051 150.430884 322.224103 150.570342 322.636154 150.703267 323.048205 150.829724 323.460256 150.949779 323.872308 151.063498 324.284359 151.170946 324.696410 151.272189 325.108462 151.367292 325.520513 151.456321 325.932564 151.539342 326.344615 151.616421 326.756667 151.687623 327.168718 151.753013 327.580769 151.812658 327.992821 151.866622 328.404872 151.914972 328.816923 151.957774 329.228974 151.995092 329.641026 152.026993 330.053077 152.053541 330.465128 152.074804 330.877179 152.090846 331.289231 152.101733 331.701282 152.107531 332.113333 152.108304 332.525385 152.104120 332.937436 152.095044 333.349487 152.081140 333.761538 152.062476 334.173590 152.039116 334.585641 152.011126 334.997692 151.978571 335.409744 151.941518 335.821795 151.900033 336.233846 151.854179 336.645897 151.804024 337.057949 151.749633 337.470000 151.691072 337.882051 151.628405 338.294103 151.561700 338.706154 151.491020 339.118205 151.416433 339.530256 151.338004 339.942308 151.255798 340.354359 151.169881 340.766410 151.080319 341.178462 150.987176 341.590513 150.890520 342.002564 150.790415 342.414615 150.686928 342.826667 150.580123 343.238718 150.470067 343.650769 150.356824 344.062821 150.240462 344.474872 150.121044 344.886923 149.998638 345.298974 149.873308 345.711026 149.745121 346.123077 149.614141 346.535128 149.480435 346.947179 149.344068 347.359231 149.205106 347.771282 149.063614 348.183333 148.919658 348.595385 148.773304 349.007436 148.624617 349.419487 148.473663 349.831538 148.320508 350.243590 148.165217 350.655641 148.007856 351.067692 147.848490 351.479744 147.687185 351.891795 147.524007 352.303846 147.359022 352.715897 147.192294 353.127949 147.023890 353.540000 146.853876 353.952051 146.682316 354.364103 146.509277 354.776154 146.334824 355.188205 146.159023 355.600256 145.981940 356.012308 145.803639 356.424359 145.624187 356.836410 145.443650 357.248462 145.262092 357.660513 145.079581 358.072564 144.896180 358.484615 144.711957 358.896667 144.526975 359.308718 144.341303 359.720769 144.155003 360.132821 143.968144 360.544872 143.780789 360.956923 143.593005 361.368974 143.404858 361.781026 143.216412 362.193077 143.027734 362.605128 142.838890 363.017179 142.649944 363.429231 142.460962 363.841282 142.272011 364.253333 142.083156 364.665385 141.894462 365.077436 141.705995 365.489487 141.517821 365.901538 141.330005 366.313590 141.142613 366.725641 140.955711 367.137692 140.769364 367.549744 140.583638 367.961795 140.398598 368.373846 140.214310 368.785897 140.030840 369.197949 139.848254 369.610000 139.666617 370.022051 139.485994 370.434103 139.306451 370.846154 139.128055 371.258205 138.950870 371.670256 138.774962 372.082308 138.600397 372.494359 138.427241 372.906410 138.255559 373.318462 138.085416 373.730513 137.916879 374.142564 137.750013 374.554615 137.584884 374.966667 137.421556 375.378718 137.260097 375.790769 137.100571 376.202821 136.943045 376.614872 136.787583 377.026923 136.634252 377.438974 136.483117 377.851026 136.334243 378.263077 136.187697 378.675128 136.043544 379.087179 135.901850 379.499231 135.762679 379.911282 135.626099 380.323333 135.492174 380.735385 135.360971 381.147436 135.232554 381.559487 135.106990 381.971538 134.984344 382.383590 134.864681 382.795641 134.748068 383.207692 134.634569 383.619744 134.524252 384.031795 134.417180 384.443846 134.313421 384.855897 134.213039 385.267949 134.116100 385.680000 134.022670 386.092051 133.932814 386.504103 133.846599 386.916154 133.764089 387.328205 133.685350 387.740256 133.610449 388.152308 133.539450 388.564359 133.472419 388.976410 133.409422 389.388462 133.350524 389.800513 133.295792 390.212564 133.245291 390.624615 133.199085 391.036667 133.157242 391.448718 133.119827 391.860769 133.086905 392.272821 133.058541 392.684872 133.034803 393.096923 133.015754 393.508974 133.001462 393.921026 132.991991 394.333077 132.987406 394.745128 132.987775 395.157179 132.993162 395.569231 133.003633 395.981282 133.019254 396.393333 133.040090 396.805385 133.066207 397.217436 133.097671 397.629487 133.134546 398.041538 133.176900 398.453590 133.224797 398.865641 133.278303 399.277692 133.337484 399.689744 133.402405 400.101795 133.473132 400.513846 133.549731 400.925897 133.632267 401.337949 133.720805 401.750000 133.815413 402.162051 133.916155 402.574103 134.023096 402.986154 134.136303 403.398205 134.255841 403.810256 134.381775 404.222308 134.514172 404.634359 134.653097 405.046410 134.798616 405.458462 134.950793 405.870513 135.109696 406.282564 135.275389 406.694615 135.447939 407.106667 135.627410 407.518718 135.813868 407.930769 136.007380 408.342821 136.208010 408.754872 136.415825 409.166923 136.630889 409.578974 136.853269 409.991026 137.083030 410.403077 137.320239 410.815128 137.564959 411.227179 137.817258 411.639231 138.077201 412.051282 138.344853 412.463333 138.620280 412.875385 138.903547 413.287436 139.194721 413.699487 139.493867 414.111538 139.801050 414.523590 140.116337 414.935641 140.439793 415.347692 140.771483 415.759744 141.111473 416.171795 141.459828 416.583846 141.816616 416.995897 142.181900 417.407949 142.555747 417.820000 142.938222 418.232051 143.329391 418.644103 143.729319 419.056154 144.138073 419.468205 144.555718 419.880256 144.982319 420.292308 145.417942 420.704359 145.862653 421.116410 146.316517 421.528462 146.779600 421.940513 147.251968 422.352564 147.733686 422.764615 148.224820 423.176667 148.725435 423.588718 149.235598 424.000769 149.755373 424.412821 150.284827 424.824872 150.824002 425.236923 151.372848 425.648974 151.931294 426.061026 152.499265 426.473077 153.076690 426.885128 153.663496 427.297179 154.259610 427.709231 154.864960 428.121282 155.479473 428.533333 156.103077 428.945385 156.735698 429.357436 157.377265 429.769487 158.027704 430.181538 158.686943 430.593590 159.354910 431.005641 160.031531 431.417692 160.716735 431.829744 161.410448 432.241795 162.112598 432.653846 162.823112 433.065897 163.541918 433.477949 164.268943 433.890000 165.004114 434.302051 165.747359 434.714103 166.498605 435.126154 167.257780 435.538205 168.024811 435.950256 168.799625 436.362308 169.582149 436.774359 170.372312 437.186410 171.170040 437.598462 171.975261 438.010513 172.787902 438.422564 173.607891 438.834615 174.435155 439.246667 175.269621 439.658718 176.111217 440.070769 176.959870 440.482821 177.815507 440.894872 178.678056 441.306923 179.547445 441.718974 180.423600 442.131026 181.306449 442.543077 182.195919 442.955128 183.091938 443.367179 183.994434 443.779231 184.903332 444.191282 185.818562 444.603333 186.740050 445.015385 187.667723 445.427436 188.601510 445.839487 189.541337 446.251538 190.487132 446.663590 191.438822 447.075641 192.396334 447.487692 193.359597 447.899744 194.328536 448.311795 195.303081 448.723846 196.283157 449.135897 197.268693 449.547949 198.259616 449.960000 199.255853 450.372051 200.257331 450.784103 201.263978 451.196154 202.275722 451.608205 203.292490 452.020256 204.314208 452.432308 205.340805 452.844359 206.372208 453.256410 207.408344 453.668462 208.449141 454.080513 209.494525 454.492564 210.544425 454.904615 211.598768 455.316667 212.657481 455.728718 213.720491 456.140769 214.787727 456.552821 215.859114 456.964872 216.934581 457.376923 218.014056 457.788974 219.097464 458.201026 220.184735 458.613077 221.275794 459.025128 222.370570 459.437179 223.468990 459.849231 224.570981 460.261282 225.676471 460.673333 226.785387 461.085385 227.897657 461.497436 229.013207 461.909487 230.131965 462.321538 231.253859 462.733590 232.378816 463.145641 233.506763 463.557692 234.637628 463.969744 235.771338 464.381795 236.907821 464.793846 238.047003 465.205897 239.188813 465.617949 240.333177 466.030000 241.480023 466.442051 242.629278 466.854103 243.780871 467.266154 244.934727 467.678205 246.090775 468.090256 247.248942 468.502308 248.409155 468.914359 249.571341 469.326410 250.735429 469.738462 251.901345 470.150513 253.069017 470.562564 254.238371 470.974615 255.409337 471.386667 256.581840 471.798718 257.755809 472.210769 258.931170 472.622821 260.107852 473.034872 261.285780 473.446923 262.464884 473.858974 263.645090 474.271026 264.826325 474.683077 266.008517 475.095128 267.191594 475.507179 268.375482 475.919231 269.560110 476.331282 270.745403 476.743333 271.931291 477.155385 273.117700 477.567436 274.304557 477.979487 275.491791 478.391538 276.679328 478.803590 277.867095 479.215641 279.055021 479.627692 280.243032 480.039744 281.431056 480.451795 282.619020 480.863846 283.806852 481.275897 284.994479 481.687949 286.181828 482.100000 287.368827 482.512051 288.555404 482.924103 289.741484 483.336154 290.926997 483.748205 292.111869 484.160256 293.296027 484.572308 294.479400 484.984359 295.661914 485.396410 296.843497 485.808462 298.024076 486.220513 299.203578 486.632564 300.381932 487.044615 301.559063 487.456667 302.734901 487.868718 303.909372 488.280769 305.082403 488.692821 306.253921 489.104872 307.423855 489.516923 308.592132 489.928974 309.758679 490.341026 310.923423 490.753077 312.086291 491.165128 313.247212 491.577179 314.406112 491.989231 315.562920 492.401282 316.717561 492.813333 317.869964 493.225385 319.020056 493.637436 320.167764 494.049487 321.313016 494.461538 322.455740 494.873590 323.595862 495.285641 324.733309 495.697692 325.868010 496.109744 326.999892 496.521795 328.128882 496.933846 329.254907 497.345897 330.377894 497.757949 331.497773 498.170000 332.614468 498.582051 333.727909 498.994103 334.838021 499.406154 335.944734 499.818205 337.047974 500.230256 338.147668 500.642308 339.243744 501.054359 340.336129 501.466410 341.424750 501.878462 342.509536 502.290513 343.590413 502.702564 344.667309 503.114615 345.740150 503.526667 346.808866 503.938718 347.873382 504.350769 348.933626 504.762821 349.989526 505.174872 351.041009 505.586923 352.088002 505.998974 353.130433 506.411026 354.168230 506.823077 355.201318 507.235128 356.229627 507.647179 357.253083 508.059231 358.271614 508.471282 359.285146 508.883333 360.293608 509.295385 361.296927 509.707436 362.295030 510.119487 363.287844 510.531538 364.275298 510.943590 365.257318 511.355641 366.233831 511.767692 367.204765 512.179744 368.170048 512.591795 369.129607 513.003846 370.083369 513.415897 371.031262 513.827949 371.973212 514.240000 372.909148 514.652051 373.838996 515.064103 374.762685 515.476154 375.680141 515.888205 376.591292 516.300256 377.496065 516.712308 378.394388 517.124359 379.286188 517.536410 380.171392 517.948462 381.049928 518.360513 381.921723 518.772564 382.786704 519.184615 383.644800 519.596667 384.495937 520.008718 385.340042 520.420769 386.177043 520.832821 387.006868 521.244872 387.829444 521.656923 388.644697 522.068974 389.452557 522.481026 390.252949 522.893077 391.045801 523.305128 391.831041 523.717179 392.608597 524.129231 393.378394 524.541282 394.140362 524.953333 394.894426 525.365385 395.640516 525.777436 396.378557 526.189487 397.108477 526.601538 397.830204 527.013590 398.543666 527.425641 399.248789 527.837692 399.945518 528.249744 400.633870 528.661795 401.313878 529.073846 401.985575 529.485897 402.648997 529.897949 403.304175 530.310000 403.951144 530.722051 404.589937 531.134103 405.220588 531.546154 405.843131 531.958205 406.457600 532.370256 407.064027 532.782308 407.662447 533.194359 408.252893 533.606410 408.835399 534.018462 409.409998 534.430513 409.976725 534.842564 410.535612 535.254615 411.086694 535.666667 411.630004 536.078718 412.165575 536.490769 412.693443 536.902821 413.213639 537.314872 413.726197 537.726923 414.231152 538.138974 414.728538 538.551026 415.218386 538.963077 415.700732 539.375128 416.175609 539.787179 416.643050 540.199231 417.103090 540.611282 417.555761 541.023333 418.001098 541.435385 418.439134 541.847436 418.869903 542.259487 419.293438 542.671538 419.709773 543.083590 420.118942 543.495641 420.520978 543.907692 420.915915 544.319744 421.303787 544.731795 421.684627 545.143846 422.058469 545.555897 422.425347 545.967949 422.785294 546.380000 423.138343 546.792051 423.484530 547.204103 423.823886 547.616154 424.156446 548.028205 424.482244 548.440256 424.801312 548.852308 425.113686 549.264359 425.419397 549.676410 425.718481 550.088462 426.010970 550.500513 426.296899 550.912564 426.576301 551.324615 426.849209 551.736667 427.115657 552.148718 427.375680 552.560769 427.629310 552.972821 427.876581 553.384872 428.117527 553.796923 428.352181 554.208974 428.580577 554.621026 428.802749 555.033077 429.018731 555.445128 429.228556 555.857179 429.432257 556.269231 429.629868 556.681282 429.821424 557.093333 430.006957 557.505385 430.186502 557.917436 430.360091 558.329487 430.527759 558.741538 430.689539 559.153590 430.845465 559.565641 430.995570 559.977692 431.139889 560.389744 431.278454 560.801795 431.411300 561.213846 431.538460 561.625897 431.659967 562.037949 431.775856 562.450000 431.886160 562.862051 431.990912 563.274103 432.090147 563.686154 432.183898 564.098205 432.272198 564.510256 432.355082 564.922308 432.432582 565.334359 432.504733 565.746410 432.571568 566.158462 432.633121 566.570513 432.689425 566.982564 432.740514 567.394615 432.786422 567.806667 432.827183 568.218718 432.862829 568.630769 432.893395 569.042821 432.918915 569.454872 432.939421 569.866923 432.954948 570.278974 432.965529 570.691026 432.971198 571.103077 432.971989 571.515128 432.967935 571.927179 432.959070 572.339231 432.945427 572.751282 432.927040 573.163333 432.903943 573.575385 432.876169 573.987436 432.843753 574.399487 432.806727 574.811538 432.765125 575.223590 432.718982 575.635641 432.668330 576.047692 432.613203 576.459744 432.553635 576.871795 432.489660 577.283846 432.421311 577.695897 432.348622 578.107949 432.271626 578.520000 432.190358 578.932051 432.104850 579.344103 432.015136 579.756154 431.921251 580.168205 431.823228 580.580256 431.721099 580.992308 431.614900 581.404359 431.504664 581.816410 431.390423 582.228462 431.272213 582.640513 431.150066 583.052564 431.024017 583.464615 430.894098 583.876667 430.760344 584.288718 430.622788 584.700769 430.481464 585.112821 430.336405 585.524872 430.187646 585.936923 430.035219 586.348974 429.879158 586.761026 429.719498 587.173077 429.556271 587.585128 429.389511 587.997179 429.219253 588.409231 429.045529 588.821282 428.868373 589.233333 428.687819 589.645385 428.503901 590.057436 428.316652 590.469487 428.126106 590.881538 427.932296 591.293590 427.735256 591.705641 427.535021 592.117692 427.331622 592.529744 427.125095 592.941795 426.915472 593.353846 426.702788 593.765897 426.487075 594.177949 426.268368 594.590000 426.046701 595.002051 425.822106 595.414103 425.594618 595.826154 425.364271 596.238205 425.131097 596.650256 424.895130 597.062308 424.656405 597.474359 424.414954 597.886410 424.170812 598.298462 423.924012 598.710513 423.674588 599.122564 423.422573 599.534615 423.168001 599.946667 422.910906 600.358718 422.651321 600.770769 422.389280 601.182821 422.124816 601.594872 421.857964 602.006923 421.588757 602.418974 421.317228 602.831026 421.043411 603.243077 420.767341 603.655128 420.489049 604.067179 420.208571 604.479231 419.925940 604.891282 419.641188 605.303333 419.354351 605.715385 419.065462 606.127436 418.774554 606.539487 418.481661 606.951538 418.186816 607.363590 417.890054 607.775641 417.591408 608.187692 417.290911 608.599744 416.988597 609.011795 416.684500 609.423846 416.378654 609.835897 416.071092 610.247949 415.761847 610.660000 415.450954 611.072051 415.138447 611.484103 414.824357 611.896154 414.508720 612.308205 414.191570 612.720256 413.872938 613.132308 413.552860 613.544359 413.231369 613.956410 412.908499 614.368462 412.584283 614.780513 412.258754 615.192564 411.931947 615.604615 411.603896 616.016667 411.274633 616.428718 410.944192 616.840769 410.612608 617.252821 410.279913 617.664872 409.946142 618.076923 409.611327 618.488974 409.275504 618.901026 408.938704 619.313077 408.600963 619.725128 408.262313 620.137179 407.922789 620.549231 407.582423 620.961282 407.241250 621.373333 406.899303 621.785385 406.556616 622.197436 406.213222 622.609487 405.869156 623.021538 405.524450 623.433590 405.179138 623.845641 404.833255 624.257692 404.486833 624.669744 404.139907 625.081795 403.792509 625.493846 403.444675 625.905897 403.096436 626.317949 402.747828 626.730000 402.398883 627.142051 402.049635 627.554103 401.700118 627.966154 401.350365 628.378205 401.000411 628.790256 400.650288 629.202308 400.300031 629.614359 399.949673 630.026410 399.599248 630.438462 399.248789" /></g><g class="series serie-1 color-1"><path class="line reactive nofill" d="M12.361538 274.766808 L12.773590 274.600040 13.185641 274.433289 13.597692 274.266570 14.009744 274.099898 14.421795 273.933291 14.833846 273.766763 15.245897 273.600332 15.657949 273.434013 16.070000 273.267822 16.482051 273.101775 16.894103 272.935888 17.306154 272.770177 17.718205 272.604659 18.130256 272.439348 18.542308 272.274262 18.954359 272.109415 19.366410 271.944825 19.778462 271.780507 20.190513 271.616478 20.602564 271.452752 21.014615 271.289347 21.426667 271.126278 21.838718 270.963561 22.250769 270.801212 22.662821 270.639247 23.074872 270.477683 23.486923 270.316535 23.898974 270.155820 24.311026 269.995552 24.723077 269.835749 25.135128 269.676426 25.547179 269.517600 25.959231 269.359285 26.371282 269.201500 26.783333 269.044258 27.195385 268.887577 27.607436 268.731472 28.019487 268.575960 28.431538 268.421055 28.843590 268.266776 29.255641 268.113136 29.667692 267.960154 30.079744 267.807843 30.491795 267.656221 30.903846 267.505303 31.315897 267.355106 31.727949 267.205645 32.140000 267.056937 32.552051 266.908997 32.964103 266.761842 33.376154 266.615487 33.788205 266.469949 34.200256 266.325243 34.612308 266.181386 35.024359 266.038393 35.436410 265.896281 35.848462 265.755066 36.260513 265.614763 36.672564 265.475388 37.084615 265.336958 37.496667 265.199489 37.908718 265.062996 38.320769 264.927496 38.732821 264.793005 39.144872 264.659538 39.556923 264.527112 39.968974 264.395742 40.381026 264.265446 40.793077 264.136237 41.205128 264.008134 41.617179 263.881151 42.029231 263.755305 42.441282 263.630612 42.853333 263.507087 43.265385 263.384747 43.677436 263.263608 44.089487 263.143686 44.501538 263.024996 44.913590 262.907555 45.325641 262.791379 45.737692 262.676484 46.149744 262.562885 46.561795 262.450600 46.973846 262.339643 47.385897 262.230031 47.797949 262.121780 48.210000 262.014906 48.622051 261.909424 49.034103 261.805352 49.446154 261.702704 49.858205 261.601497 50.270256 261.501747 50.682308 261.403470 51.094359 261.306682 51.506410 261.211399 51.918462 261.117637 52.330513 261.025412 52.742564 260.934739 53.154615 260.845636 53.566667 260.758118 53.978718 260.672201 54.390769 260.587900 54.802821 260.505233 55.214872 260.424215 55.626923 260.344862 56.038974 260.267189 56.451026 260.191214 56.863077 260.116952 57.275128 260.044419 57.687179 259.973631 58.099231 259.904604 58.511282 259.837355 58.923333 259.771898 59.335385 259.708251 59.747436 259.646428 60.159487 259.586447 60.571538 259.528323 60.983590 259.472072 61.395641 259.417710 61.807692 259.365254 62.219744 259.314719 62.631795 259.266120 63.043846 259.219475 63.455897 259.174800 63.867949 259.132109 64.280000 259.091420 64.692051 259.052748 65.104103 259.016109 65.516154 258.981520 65.928205 258.948996 66.340256 258.918553 66.752308 258.890207 67.164359 258.863975 67.576410 258.839872 67.988462 258.817914 68.400513 258.798118 68.812564 258.780499 69.224615 258.765074 69.636667 258.751857 70.048718 258.740867 70.460769 258.732117 70.872821 258.725625 71.284872 258.721407 71.696923 258.719477 72.108974 258.719854 72.521026 258.722551 72.933077 258.727586 73.345128 258.734975 73.757179 258.744733 74.169231 258.756877 74.581282 258.771422 74.993333 258.788384 75.405385 258.807780 75.817436 258.829626 76.229487 258.853937 76.641538 258.880729 77.053590 258.910020 77.465641 258.941823 77.877692 258.976157 78.289744 259.013035 78.701795 259.052476 79.113846 259.094494 79.525897 259.139106 79.937949 259.186327 80.350000 259.236174 80.762051 259.288662 81.174103 259.343809 81.586154 259.401628 81.998205 259.462138 82.410256 259.525353 82.822308 259.591290 83.234359 259.659965 83.646410 259.731393 84.058462 259.805591 84.470513 259.882575 84.882564 259.962360 85.294615 260.044964 85.706667 260.130401 86.118718 260.218687 86.530769 260.309840 86.942821 260.403874 87.354872 260.500806 87.766923 260.600652 88.178974 260.703428 88.591026 260.809150 89.003077 260.917833 89.415128 261.029494 89.827179 261.144149 90.239231 261.261814 90.651282 261.382505 91.063333 261.506238 91.475385 261.633029 91.887436 261.762893 92.299487 261.895848 92.711538 262.031908 93.123590 262.171090 93.535641 262.313411 93.947692 262.458885 94.359744 262.607529 94.771795 262.759359 95.183846 262.914392 95.595897 263.072642 96.007949 263.234126 96.420000 263.398860 96.832051 263.566860 97.244103 263.738143 97.656154 263.912723 98.068205 264.090617 98.480256 264.271842 98.892308 264.456412 99.304359 264.644345 99.716410 264.835655 100.128462 265.030360 100.540513 265.228475 100.952564 265.430016 101.364615 265.634999 101.776667 265.843440 102.188718 266.055356 102.600769 266.270762 103.012821 266.489673 103.424872 266.712107 103.836923 266.938079 104.248974 267.167606 104.661026 267.400702 105.073077 267.637385 105.485128 267.877670 105.897179 268.121574 106.309231 268.369111 106.721282 268.620299 107.133333 268.875153 107.545385 269.133689 107.957436 269.395924 108.369487 269.661873 108.781538 269.931552 109.193590 270.204978 109.605641 270.482166 110.017692 270.763132 110.429744 271.047893 110.841795 271.336464 111.253846 271.628861 111.665897 271.925101 112.077949 272.225199 112.490000 272.529172 112.902051 272.837035 113.314103 273.148804 113.726154 273.464496 114.138205 273.784126 114.550256 274.107711 114.962308 274.435266 115.374359 274.766808 115.786410 275.102344 116.198462 275.441850 116.610513 275.785295 117.022564 276.132645 117.434615 276.483868 117.846667 276.838933 118.258718 277.197807 118.670769 277.560457 119.082821 277.926852 119.494872 278.296960 119.906923 278.670747 120.318974 279.048182 120.731026 279.429232 121.143077 279.813866 121.555128 280.202051 121.967179 280.593754 122.379231 280.988944 122.791282 281.387589 123.203333 281.789655 123.615385 282.195111 124.027436 282.603925 124.439487 283.016063 124.851538 283.431495 125.263590 283.850188 125.675641 284.272109 126.087692 284.697226 126.499744 285.125508 126.911795 285.556921 127.323846 285.991434 127.735897 286.429014 128.147949 286.869629 128.560000 287.313246 128.972051 287.759835 129.384103 288.209361 129.796154 288.661794 130.208205 289.117100 130.620256 289.575248 131.032308 290.036205 131.444359 290.499940 131.856410 290.966419 132.268462 291.435610 132.680513 291.907482 133.092564 292.382002 133.504615 292.859138 133.916667 293.338857 134.328718 293.821128 134.740769 294.305917 135.152821 294.793194 135.564872 295.282925 135.976923 295.775078 136.388974 296.269621 136.801026 296.766522 137.213077 297.265749 137.625128 297.767269 138.037179 298.271050 138.449231 298.777060 138.861282 299.285266 139.273333 299.795637 139.685385 300.308140 140.097436 300.822742 140.509487 301.339412 140.921538 301.858118 141.333590 302.378827 141.745641 302.901506 142.157692 303.426124 142.569744 303.952648 142.981795 304.481047 143.393846 305.011287 143.805897 305.543337 144.217949 306.077164 144.630000 306.612736 145.042051 307.150021 145.454103 307.688986 145.866154 308.229600 146.278205 308.771830 146.690256 309.315644 147.102308 309.861010 147.514359 310.407895 147.926410 310.956266 148.338462 311.506093 148.750513 312.057343 149.162564 312.609982 149.574615 313.163980 149.986667 313.719304 150.398718 314.275921 150.810769 314.833800 151.222821 315.392907 151.634872 315.953212 152.046923 316.514681 152.458974 317.077282 152.871026 317.640984 153.283077 318.205754 153.695128 318.771559 154.107179 319.338367 154.519231 319.906147 154.931282 320.474865 155.343333 321.044490 155.755385 321.614990 156.167436 322.186331 156.579487 322.758483 156.991538 323.331412 157.403590 323.905086 157.815641 324.479474 158.227692 325.054542 158.639744 325.630259 159.051795 326.206593 159.463846 326.783511 159.875897 327.360980 160.287949 327.938969 160.700000 328.517446 161.112051 329.096377 161.524103 329.675732 161.936154 330.255477 162.348205 330.835581 162.760256 331.416010 163.172308 331.996734 163.584359 332.577719 163.996410 333.158934 164.408462 333.740346 164.820513 334.321923 165.232564 334.903632 165.644615 335.485442 166.056667 336.067320 166.468718 336.649234 166.880769 337.231151 167.292821 337.813040 167.704872 338.394868 168.116923 338.976603 168.528974 339.558213 168.941026 340.139665 169.353077 340.720927 169.765128 341.301967 170.177179 341.882753 170.589231 342.463252 171.001282 343.043433 171.413333 343.623262 171.825385 344.202708 172.237436 344.781739 172.649487 345.360321 173.061538 345.938424 173.473590 346.516014 173.885641 347.093060 174.297692 347.669529 174.709744 348.245388 175.121795 348.820607 175.533846 349.395152 175.945897 349.968991 176.357949 350.542092 176.770000 351.114423 177.182051 351.685951 177.594103 352.256644 178.006154 352.826471 178.418205 353.395398 178.830256 353.963393 179.242308 354.530425 179.654359 355.096461 180.066410 355.661468 180.478462 356.225415 180.890513 356.788269 181.302564 357.349998 181.714615 357.910570 182.126667 358.469952 182.538718 359.028112 182.950769 359.585018 183.362821 360.140638 183.774872 360.694940 184.186923 361.247891 184.598974 361.799458 185.011026 362.349611 185.423077 362.898316 185.835128 363.445541 186.247179 363.991254 186.659231 364.535423 187.071282 365.078015 187.483333 365.618999 187.895385 366.158341 188.307436 366.696010 188.719487 367.231974 189.131538 367.766200 189.543590 368.298656 189.955641 368.829310 190.367692 369.358129 190.779744 369.885082 191.191795 370.410135 191.603846 370.933257 192.015897 371.454416 192.427949 371.973579 192.840000 372.490714 193.252051 373.005788 193.664103 373.518771 194.076154 374.029628 194.488205 374.538328 194.900256 375.044840 195.312308 375.549129 195.724359 376.051165 196.136410 376.550915 196.548462 377.048347 196.960513 377.543428 197.372564 378.036127 197.784615 378.526410 198.196667 379.014246 198.608718 379.499603 199.020769 379.982448 199.432821 380.462749 199.844872 380.940474 200.256923 381.415591 200.668974 381.888066 201.081026 382.357869 201.493077 382.824967 201.905128 383.289327 202.317179 383.750917 202.729231 384.209705 203.141282 384.665659 203.553333 385.118747 203.965385 385.568936 204.377436 386.016194 204.789487 386.460489 205.201538 386.901788 205.613590 387.340060 206.025641 387.775271 206.437692 388.207391 206.849744 388.636386 207.261795 389.062224 207.673846 389.484873 208.085897 389.904301 208.497949 390.320476 208.910000 390.733365 209.322051 391.142936 209.734103 391.549157 210.146154 391.951996 210.558205 392.351419 210.970256 392.747396 211.382308 393.139894 211.794359 393.528880 212.206410 393.914322 212.618462 394.296189 213.030513 394.674447 213.442564 395.049065 213.854615 395.420010 214.266667 395.787251 214.678718 396.150754 215.090769 396.510488 215.502821 396.866420 215.914872 397.218518 216.326923 397.566750 216.738974 397.911083 217.151026 398.251486 217.563077 398.587926 217.975128 398.920371 218.387179 399.248789 218.799231 399.573155 219.211282 399.893478 219.623333 400.209777 220.035385 400.522068 220.447436 400.830370 220.859487 401.134698 221.271538 401.435071 221.683590 401.731506 222.095641 402.024021 222.507692 402.312632 222.919744 402.597357 223.331795 402.878214 223.743846 403.155220 224.155897 403.428392 224.567949 403.697748 224.980000 403.963305 225.392051 404.225081 225.804103 404.483092 226.216154 404.737356 226.628205 404.987891 227.040256 405.234715 227.452308 405.477843 227.864359 405.717294 228.276410 405.953085 228.688462 406.185234 229.100513 406.413758 229.512564 406.638674 229.924615 406.860000 230.336667 407.077752 230.748718 407.291949 231.160769 407.502608 231.572821 407.709746 231.984872 407.913381 232.396923 408.113530 232.808974 408.310210 233.221026 408.503438 233.633077 408.693233 234.045128 408.879611 234.457179 409.062590 234.869231 409.242188 235.281282 409.418421 235.693333 409.591307 236.105385 409.760863 236.517436 409.927107 236.929487 410.090056 237.341538 410.249728 237.753590 410.406140 238.165641 410.559309 238.577692 410.709253 238.989744 410.855989 239.401795 410.999534 239.813846 411.139906 240.225897 411.277122 240.637949 411.411200 241.050000 411.542157 241.462051 411.670010 241.874103 411.794777 242.286154 411.916476 242.698205 412.035122 243.110256 412.150735 243.522308 412.263331 243.934359 412.372927 244.346410 412.479541 244.758462 412.583191 245.170513 412.683894 245.582564 412.781667 245.994615 412.876527 246.406667 412.968493 246.818718 413.057580 247.230769 413.143808 247.642821 413.227192 248.054872 413.307751 248.466923 413.385502 248.878974 413.460462 249.291026 413.532649 249.703077 413.602080 250.115128 413.668772 250.527179 413.732743 250.939231 413.794010 251.351282 413.852590 251.763333 413.908502 252.175385 413.961762 252.587436 414.012387 252.999487 414.060396 253.411538 414.105805 253.823590 414.148631 254.235641 414.188893 254.647692 414.226608 255.059744 414.261793 255.471795 414.294465 255.883846 414.324641 256.295897 414.352340 256.707949 414.377578 257.120000 414.400373 257.532051 414.420743 257.944103 414.438704 258.356154 414.454274 258.768205 414.467471 259.180256 414.478311 259.592308 414.486812 260.004359 414.492992 260.416410 414.496868 260.828462 414.498458 261.240513 414.497778 261.652564 414.494846 262.064615 414.489680 262.476667 414.482296 262.888718 414.472713 263.300769 414.460947 263.712821 414.447016 264.124872 414.430938 264.536923 414.412729 264.948974 414.392408 265.361026 414.369991 265.773077 414.345496 266.185128 414.318941 266.597179 414.290342 267.009231 414.259717 267.421282 414.227083 267.833333 414.192458 268.245385 414.155860 268.657436 414.117305 269.069487 414.076811 269.481538 414.034396 269.893590 413.990076 270.305641 413.943869 270.717692 413.895793 271.129744 413.845864 271.541795 413.794101 271.953846 413.740521 272.365897 413.685141 272.777949 413.627977 273.190000 413.569049 273.602051 413.508373 274.014103 413.445967 274.426154 413.381847 274.838205 413.316032 275.250256 413.248538 275.662308 413.179384 276.074359 413.108586 276.486410 413.036162 276.898462 412.962129 277.310513 412.886505 277.722564 412.809306 278.134615 412.730552 278.546667 412.650257 278.958718 412.568441 279.370769 412.485121 279.782821 412.400313 280.194872 412.314036 280.606923 412.226306 281.018974 412.137142 281.431026 412.046560 281.843077 411.954577 282.255128 411.861212 282.667179 411.766482 283.079231 411.670403 283.491282 411.572994 283.903333 411.474271 284.315385 411.374253 284.727436 411.272956 285.139487 411.170398 285.551538 411.066596 285.963590 410.961568 286.375641 410.855331 286.787692 410.747902 287.199744 410.639300 287.611795 410.529540 288.023846 410.418641 288.435897 410.306619 288.847949 410.193493 289.260000 410.079280 289.672051 409.963997 290.084103 409.847661 290.496154 409.730290 290.908205 409.611902 291.320256 409.492513 291.732308 409.372141 292.144359 409.250803 292.556410 409.128517 292.968462 409.005300 293.380513 408.881170 293.792564 408.756144 294.204615 408.630239 294.616667 408.503472 295.028718 408.375862 295.440769 408.247425 295.852821 408.118179 296.264872 407.988141 296.676923 407.857329 297.088974 407.725759 297.501026 407.593450 297.913077 407.460419 298.325128 407.326683 298.737179 407.192259 299.149231 407.057165 299.561282 406.921418 299.973333 406.785036 300.385385 406.648036 300.797436 406.510436 301.209487 406.372252 301.621538 406.233503 302.033590 406.094204 302.445641 405.954375 302.857692 405.814033 303.269744 405.673193 303.681795 405.531875 304.093846 405.390096 304.505897 405.247872 304.917949 405.105221 305.330000 404.962161 305.742051 404.818709 306.154103 404.674883 306.566154 404.530699 306.978205 404.386175 307.390256 404.241329 307.802308 404.096178 308.214359 403.950739 308.626410 403.805029 309.038462 403.659067 309.450513 403.512869 309.862564 403.366453 310.274615 403.219836 310.686667 403.073036 311.098718 402.926070 311.510769 402.778955 311.922821 402.631708 312.334872 402.484348 312.746923 402.336891 313.158974 402.189355 313.571026 402.041758 313.983077 401.894116 314.395128 401.746447 314.807179 401.598768 315.219231 401.451098 315.631282 401.303452 316.043333 401.155849 316.455385 401.008306 316.867436 400.860840 317.279487 400.713469 317.691538 400.566209 318.103590 400.419080 318.515641 400.272097 318.927692 400.125278 319.339744 399.978641 319.751795 399.832203 320.163846 399.685982 320.575897 399.539994 320.987949 399.394257 321.400000 399.248789 321.812051 399.103605 322.224103 398.958718 322.636154 398.814138 323.048205 398.669875 323.460256 398.525940 323.872308 398.382344 324.284359 398.239097 324.696410 398.096209 325.108462 397.953691 325.520513 397.811554 325.932564 397.669808 326.344615 397.528464 326.756667 397.387532 327.168718 397.247022 327.580769 397.106946 327.992821 396.967313 328.404872 396.828134 328.816923 396.689421 329.228974 396.551182 329.641026 396.413430 330.053077 396.276173 330.465128 396.139424 330.877179 396.003192 331.289231 395.867487 331.701282 395.732321 332.113333 395.597704 332.525385 395.463647 332.937436 395.330159 333.349487 395.197252 333.761538 395.064936 334.173590 394.933221 334.585641 394.802119 334.997692 394.671639 335.409744 394.541792 335.821795 394.412589 336.233846 394.284039 336.645897 394.156155 337.057949 394.028945 337.470000 393.902422 337.882051 393.776594 338.294103 393.651473 338.706154 393.527070 339.118205 393.403394 339.530256 393.280456 339.942308 393.158268 340.354359 393.036838 340.766410 392.916179 341.178462 392.796300 341.590513 392.677211 342.002564 392.558924 342.414615 392.441449 342.826667 392.324797 343.238718 392.208977 343.650769 392.094001 344.062821 391.979879 344.474872 391.866622 344.886923 391.754240 345.298974 391.642743 345.711026 391.532142 346.123077 391.422448 346.535128 391.313671 346.947179 391.205822 347.359231 391.098911 347.771282 390.992948 348.183333 390.887945 348.595385 390.783912 349.007436 390.680858 349.419487 390.578796 349.831538 390.477735 350.243590 390.377686 350.655641 390.278659 351.067692 390.180665 351.479744 390.083714 351.891795 389.987817 352.303846 389.892985 352.715897 389.799228 353.127949 389.706556 353.540000 389.614980 353.952051 389.524510 354.364103 389.435158 354.776154 389.346933 355.188205 389.259847 355.600256 389.173908 356.012308 389.089129 356.424359 389.005520 356.836410 388.923091 357.248462 388.841852 357.660513 388.761815 358.072564 388.682990 358.484615 388.605386 358.896667 388.529016 359.308718 388.453888 359.720769 388.380015 360.132821 388.307406 360.544872 388.236071 360.956923 388.166022 361.368974 388.097269 361.781026 388.029823 362.193077 387.963693 362.605128 387.898891 363.017179 387.835427 363.429231 387.773311 363.841282 387.712554 364.253333 387.653167 364.665385 387.595160 365.077436 387.538543 365.489487 387.483327 365.901538 387.429524 366.313590 387.377142 366.725641 387.326193 367.137692 387.276687 367.549744 387.228635 367.961795 387.182047 368.373846 387.136933 368.785897 387.093305 369.197949 387.051173 369.610000 387.010547 370.022051 386.971438 370.434103 386.933857 370.846154 386.897813 371.258205 386.863317 371.670256 386.830381 372.082308 386.799014 372.494359 386.769226 372.906410 386.741030 373.318462 386.714434 373.730513 386.689450 374.142564 386.666088 374.554615 386.644358 374.966667 386.624272 375.378718 386.605839 375.790769 386.589070 376.202821 386.573976 376.614872 386.560567 377.026923 386.548853 377.438974 386.538846 377.851026 386.530556 378.263077 386.523993 378.675128 386.519167 379.087179 386.516090 379.499231 386.514772 379.911282 386.515223 380.323333 386.517454 380.735385 386.521475 381.147436 386.527297 381.559487 386.534931 381.971538 386.544386 382.383590 386.555674 382.795641 386.568805 383.207692 386.583789 383.619744 386.600638 384.031795 386.619361 384.443846 386.639969 384.855897 386.662472 385.267949 386.686882 385.680000 386.713208 386.092051 386.741462 386.504103 386.771653 386.916154 386.803792 387.328205 386.837890 387.740256 386.873957 388.152308 386.912004 388.564359 386.952041 388.976410 386.994079 389.388462 387.038128 389.800513 387.084199 390.212564 387.132303 390.624615 387.182449 391.036667 387.234649 391.448718 387.288912 391.860769 387.345250 392.272821 387.403673 392.684872 387.464192 393.096923 387.526816 393.508974 387.591557 393.921026 387.658425 394.333077 387.727431 394.745128 387.798584 395.157179 387.871897 395.569231 387.947378 395.981282 388.025039 396.393333 388.104890 396.805385 388.186942 397.217436 388.271205 397.629487 388.357690 398.041538 388.446407 398.453590 388.537366 398.865641 388.630579 399.277692 388.726056 399.689744 388.823807 400.101795 388.923843 400.513846 389.026175 400.925897 389.130812 401.337949 389.237766 401.750000 389.347046 402.162051 389.458664 402.574103 389.572630 402.986154 389.688955 403.398205 389.807648 403.810256 389.928721 404.222308 390.052184 404.634359 390.178048 405.046410 390.306323 405.458462 390.437019 405.870513 390.570148 406.282564 390.705719 406.694615 390.843743 407.106667 390.984231 407.518718 391.127194 407.930769 391.272641 408.342821 391.420583 408.754872 391.571031 409.166923 391.723995 409.578974 391.879487 409.991026 392.037515 410.403077 392.198092 410.815128 392.361226 411.227179 392.526930 411.639231 392.695213 412.051282 392.866086 412.463333 393.039560 412.875385 393.215644 413.287436 393.394350 413.699487 393.575689 414.111538 393.759669 414.523590 393.946303 414.935641 394.135600 415.347692 394.327572 415.759744 394.522228 416.171795 394.719579 416.583846 394.919636 416.995897 395.122409 417.407949 395.327909 417.820000 395.536146 418.232051 395.747131 418.644103 395.960874 419.056154 396.177386 419.468205 396.396677 419.880256 396.618758 420.292308 396.843639 420.704359 397.071332 421.116410 397.301845 421.528462 397.535191 421.940513 397.771379 422.352564 398.010420 422.764615 398.252325 423.176667 398.497103 423.588718 398.744767 424.000769 398.995325 424.412821 399.248789 424.824872 399.505165 425.236923 399.764445 425.648974 400.026619 426.061026 400.291673 426.473077 400.559597 426.885128 400.830379 427.297179 401.104006 427.709231 401.380468 428.121282 401.659753 428.533333 401.941850 428.945385 402.226745 429.357436 402.514428 429.769487 402.804888 430.181538 403.098112 430.593590 403.394089 431.005641 403.692806 431.417692 403.994254 431.829744 404.298419 432.241795 404.605290 432.653846 404.914856 433.065897 405.227104 433.477949 405.542024 433.890000 405.859603 434.302051 406.179830 434.714103 406.502693 435.126154 406.828181 435.538205 407.156281 435.950256 407.486983 436.362308 407.820274 436.774359 408.156143 437.186410 408.494578 437.598462 408.835567 438.010513 409.179099 438.422564 409.525163 438.834615 409.873746 439.246667 410.224837 439.658718 410.578424 440.070769 410.934496 440.482821 411.293040 440.894872 411.654046 441.306923 412.017501 441.718974 412.383394 442.131026 412.751713 442.543077 413.122447 442.955128 413.495583 443.367179 413.871111 443.779231 414.249018 444.191282 414.629293 444.603333 415.011925 445.015385 415.396901 445.427436 415.784210 445.839487 416.173840 446.251538 416.565779 446.663590 416.960017 447.075641 417.356540 447.487692 417.755338 447.899744 418.156399 448.311795 418.559712 448.723846 418.965264 449.135897 419.373043 449.547949 419.783039 449.960000 420.195240 450.372051 420.609634 450.784103 421.026208 451.196154 421.444953 451.608205 421.865855 452.020256 422.288903 452.432308 422.714086 452.844359 423.141392 453.256410 423.570809 453.668462 424.002326 454.080513 424.435931 454.492564 424.871612 454.904615 425.309357 455.316667 425.749156 455.728718 426.190996 456.140769 426.634865 456.552821 427.080752 456.964872 427.528646 457.376923 427.978534 457.788974 428.430405 458.201026 428.884248 458.613077 429.340050 459.025128 429.797800 459.437179 430.257486 459.849231 430.719097 460.261282 431.182620 460.673333 431.648046 461.085385 432.115360 461.497436 432.584553 461.909487 433.055612 462.321538 433.528526 462.733590 434.003282 463.145641 434.479870 463.557692 434.958278 463.969744 435.438494 464.381795 435.920505 464.793846 436.404302 465.205897 436.889871 465.617949 437.377202 466.030000 437.866283 466.442051 438.357101 466.854103 438.849646 467.266154 439.343906 467.678205 439.839868 468.090256 440.337522 468.502308 440.836855 468.914359 441.337857 469.326410 441.840515 469.738462 442.344817 470.150513 442.850753 470.562564 443.358310 470.974615 443.867476 471.386667 444.378241 471.798718 444.890592 472.210769 445.404517 472.622821 445.920006 473.034872 446.437046 473.446923 446.955626 473.858974 447.475733 474.271026 447.997357 474.683077 448.520486 475.095128 449.045108 475.507179 449.571211 475.919231 450.098784 476.331282 450.627815 476.743333 451.158293 477.155385 451.690205 477.567436 452.223540 477.979487 452.758286 478.391538 453.294433 478.803590 453.831967 479.215641 454.370878 479.627692 454.911153 480.039744 455.452782 480.451795 455.995752 480.863846 456.540051 481.275897 457.085669 481.687949 457.632593 482.100000 458.180812 482.512051 458.730314 482.924103 459.281087 483.336154 459.833120 483.748205 460.386402 484.160256 460.940919 484.572308 461.496662 484.984359 462.053617 485.396410 462.611774 485.808462 463.171121 486.220513 463.731646 486.632564 464.293337 487.044615 464.856183 487.456667 465.420172 487.868718 465.985293 488.280769 466.551533 488.692821 467.118882 489.104872 467.687326 489.516923 468.256856 489.928974 468.827459 490.341026 469.399123 490.753077 469.971837 491.165128 470.545590 491.577179 471.120368 491.989231 471.696162 492.401282 472.272958 492.813333 472.850746 493.225385 473.429514 493.637436 474.009250 494.049487 474.589943 494.461538 475.171580 494.873590 475.754151 495.285641 476.337643 495.697692 476.922045 496.109744 477.507344 496.521795 478.093531 496.933846 478.680592 497.345897 479.268517 497.757949 479.857293 498.170000 480.446908 498.582051 481.037352 498.994103 481.628613 499.406154 482.220678 499.818205 482.813536 500.230256 483.407176 500.642308 484.001586 501.054359 484.596754 501.466410 485.192669 501.878462 485.789318 502.290513 486.386691 502.702564 486.984775 503.114615 487.583559 503.526667 488.183031 503.938718 488.783180 504.350769 489.383993 504.762821 489.985460 505.174872 490.587568 505.586923 491.190307 505.998974 491.793663 506.411026 492.397626 506.823077 493.002184 507.235128 493.607325 507.647179 494.213038 508.059231 494.819310 508.471282 495.426131 508.883333 496.033488 509.295385 496.641370 509.707436 497.249766 510.119487 497.858663 510.531538 498.468050 510.943590 499.077915 511.355641 499.688246 511.767692 500.299033 512.179744 500.910263 512.591795 501.521924 513.003846 502.134006 513.415897 502.746495 513.827949 503.359381 514.240000 503.972653 514.652051 504.586297 515.064103 505.200303 515.476154 505.814659 515.888205 506.429353 516.300256 507.044374 516.712308 507.659710 517.124359 508.275349 517.536410 508.891279 517.948462 509.507490 518.360513 510.123969 518.772564 510.740704 519.184615 511.357684 519.596667 511.974898 520.008718 512.592333 520.420769 513.209979 520.832821 513.827822 521.244872 514.445852 521.656923 515.064058 522.068974 515.682426 522.481026 516.300946 522.893077 516.919606 523.305128 517.538395 523.717179 518.157300 524.129231 518.776310 524.541282 519.395413 524.953333 520.014598 525.365385 520.633853 525.777436 521.253166 526.189487 521.872526 526.601538 522.491921 527.013590 523.111339 527.425641 523.730769" /></g></g><g class="titles"><text class="title plot_title" x="400.0" y="26">tagMac: 0x5f8d9e</text></g><g class="plot overlay" transform="translate(137, 46)"><g class="series serie-0 color-0"><g class="dots"><circle class="dot reactive tooltip-trigger" cx="12.36153846153846" cy="25.802846414182113" r="2.5" /><desc class="value">-60</desc><desc class="x ">12.36153846153846</desc><desc class="y ">25.802846414182113</desc></g><g class="dots"><circle class="dot reactive tooltip-trigger" cx="115.37435897435894" cy="25.802846414182113" r="2.5" /><desc class="value">-60</desc><desc class="x ">115.37435897435894</desc><desc class="y ">25.802846414182113</desc></g><g class="dots"><circle class="dot reactive tooltip-trigger" cx="218.38717948717945" cy="25.802846414182113" r="2.5" /><desc class="value">-60</desc><desc class="x ">218.38717948717945</desc><desc class="y ">25.802846414182113</desc></g><g class="dots"><circle class="dot reactive tooltip-trigger" cx="321.4" cy="150.28482711832908" r="2.5" /><desc class="value">-61</desc><desc class="x ">321.4</desc><desc class="y ">150.28482711832908</desc></g><g class="dots"><circle class="dot reactive tooltip-trigger" cx="424.4128205128205" cy="150.28482711832908" r="2.5" /><desc class="value">-61</desc><desc class="x left">424.4128205128205</desc><desc class="y left">150.28482711832908</desc></g><g class="dots"><circle class="dot reactive tooltip-trigger" cx="527.425641025641" cy="399.248788526623" r="2.5" /><desc class="value">-63</desc><desc class="x left top">527.425641025641</desc><desc class="y left top">399.248788526623</desc></g><g class="dots"><circle class="dot reactive tooltip-trigger" cx="630.4384615384615" cy="399.248788526623" r="2.5" /><desc class="value">-63</desc><desc class="x left top">630.4384615384615</desc><desc class="y left top">399.248788526623</desc></g></g><g class="series serie-1 color-1"><g class="dots"><circle class="dot reactive tooltip-trigger" cx="12.36153846153846" cy="274.76680782247604" r="2.5" /><desc class="value">-62</desc><desc class="x top">12.36153846153846</desc><desc class="y top">274.76680782247604</desc></g><g class="dots"><circle class="dot reactive tooltip-trigger" cx="115.37435897435894" cy="274.76680782247604" r="2.5" /><desc class="value">-62</desc><desc class="x top">115.37435897435894</desc><desc class="y top">274.76680782247604</desc></g><g class="dots"><circle class="dot reactive tooltip-trigger" cx="218.38717948717945" cy="399.248788526623" r="2.5" /><desc class="value">-63</desc><desc class="x top">218.38717948717945</desc><desc class="y top">399.248788526623</desc></g><g class="dots"><circle class="dot reactive tooltip-trigger" cx="321.4" cy="399.248788526623" r="2.5" /><desc class="value">-63</desc><desc class="x top">321.4</desc><desc class="y top">399.248788526623</desc></g><g class="dots"><circle class="dot reactive tooltip-trigger" cx="424.4128205128205" cy="399.248788526623" r="2.5" /><desc class="value">-63</desc><desc class="x left top">424.4128205128205</desc><desc class="y left top">399.248788526623</desc></g><g class="dots"><circle class="dot reactive tooltip-trigger" cx="527.425641025641" cy="523.73076923077" r="2.5" /><desc class="value">-64</desc><desc class="x left top">527.425641025641</desc><desc class="y left top">523.73076923077</desc></g></g></g><g class="plot text-overlay" transform="translate(137, 46)"><g class="series serie-0 color-0" /><g class="series serie-1 color-1" /></g><g class="plot tooltip-overlay" transform="translate(137, 46)"><g class="tooltip" style="opacity: 0" transform="translate(0 0)"><rect class="tooltip-box" height="0" rx="0" ry="0" width="0" /><g class="text" /></g></g><g class="legends" transform="translate(10, 56)"><g class="legend reactive activate-serie" id="activate-serie-0"><rect class="color-0 reactive" height="12" width="12" x="0.0" y="1.0" /><text x="17.0" y="11.2">eec50c22</text></g><g class="legend reactive activate-serie" id="activate-serie-1"><rect class="color-1 reactive" height="12" width="12" x="0.0" y="22.0" /><text x="17.0" y="32.2">0b3312e6</text></g></g><g class="legends" transform="translate(790, 56)" /></g></svg>