<?xml version='1.0' encoding='utf-8'?>
<svg xmlns:xlink="http://www.w3.org/1999/xlink" class="pygal-chart" id="chart-3ebbec9c-7564-40b7-893a-e52e9a9c42cb" viewBox="0 0 800 600" xmlns="http://www.w3.org/2000/svg"><!--Generated with pygal 2.4.0 (etree) ©Kozea 2012-2016 on 2019-11-21--><!--http://pygal.org--><!--http://github.com/Kozea/pygal--><defs><style type="text/css">#chart-3ebbec9c-7564-40b7-893a-e52e9a9c42cb{-webkit-user-select:none;-webkit-font-smoothing:antialiased;font-family:Consolas,"Liberation Mono",Menlo,Courier,monospace}#chart-3ebbec9c-7564-40b7-893a-e52e9a9c42cb .title{font-family:Consolas,"Liberation Mono",Menlo,Courier,monospace;font-size:16px}#chart-3ebbec9c-7564-40b7-893a-e52e9a9c42cb .legends .legend text{font-family:Consolas,"Liberation Mono",Menlo,Courier,monospace;font-size:14px}#chart-3ebbec9c-7564-40b7-893a-e52e9a9c42cb .axis text{font-family:Consolas,"Liberation Mono",Menlo,Courier,monospace;font-size:10px}#chart-3ebbec9c-7564-40b7-893a-e52e9a9c42cb .axis text.major{font-family:Consolas,"Liberation Mono",Menlo,Courier,monospace;font-size:10px}#chart-3ebbec9c-7564-40b7-893a-e52e9a9c42cb .text-overlay text.value{font-family:Consolas,"Liberation Mono",Menlo,Courier,monospace;font-size:16px}#chart-3ebbec9c-7564-40b7-893a-e52e9a9c42cb .text-overlay text.label{font-family:Consolas,"Liberation Mono",Menlo,Courier,monospace;font-size:10px}#chart-3ebbec9c-7564-40b7-893a-e52e9a9c42cb .tooltip{font-family:Consolas,"Liberation Mono",Menlo,Courier,monospace;font-size:14px}#chart-3ebbec9c-7564-40b7-893a-e52e9a9c42cb text.no_data{font-family:Consolas,"Liberation Mono",Menlo,Courier,monospace;font-size:64px}
#chart-3ebbec9c-7564-40b7-893a-e52e9a9c42cb{background-color:rgba(249,249,249,1)}#chart-3ebbec9c-7564-40b7-893a-e52e9a9c42cb path,#chart-3ebbec9c-7564-40b7-893a-e52e9a9c42cb line,#chart-3ebbec9c-7564-40b7-893a-e52e9a9c42cb rect,#chart-3ebbec9c-7564-40b7-893a-e52e9a9c42cb circle{-webkit-transition:150ms;-moz-transition:150ms;transition:150ms}#chart-3ebbec9c-7564-40b7-893a-e52e9a9c42cb .graph &gt; .background{fill:rgba(249,249,249,1)}#chart-3ebbec9c-7564-40b7-893a-e52e9a9c42cb .plot &gt; .background{fill:rgba(255,255,255,1)}#chart-3ebbec9c-7564-40b7-893a-e52e9a9c42cb .graph{fill:rgba(0,0,0,.87)}#chart-3ebbec9c-7564-40b7-893a-e52e9a9c42cb text.no_data{fill:rgba(0,0,0,1)}#chart-3ebbec9c-7564-40b7-893a-e52e9a9c42cb .title{fill:rgba(0,0,0,1)}#chart-3ebbec9c-7564-40b7-893a-e52e9a9c42cb .legends .legend text{fill:rgba(0,0,0,.87)}#chart-3ebbec9c-7564-40b7-893a-e52e9a9c42cb .legends .legend:hover text{fill:rgba(0,0,0,1)}#chart-3ebbec9c-7564-40b7-893a-e52e9a9c42cb .axis .line{stroke:rgba(0,0,0,1)}#chart-3ebbec9c-7564-40b7-893a-e52e9a9c42cb .axis .guide.line{stroke:rgba(0,0,0,.54)}#chart-3ebbec9c-7564-40b7-893a-e52e9a9c42cb .axis .major.line{stroke:rgba(0,0,0,.87)}#chart-3ebbec9c-7564-40b7-893a-e52e9a9c42cb .axis text.major{fill:rgba(0,0,0,1)}#chart-3ebbec9c-7564-40b7-893a-e52e9a9c42cb .axis.y .guides:hover .guide.line,#chart-3ebbec9c-7564-40b7-893a-e52e9a9c42cb .line-graph .axis.x .guides:hover .guide.line,#chart-3ebbec9c-7564-40b7-893a-e52e9a9c42cb .stackedline-graph .axis.x .guides:hover .guide.line,#chart-3ebbec9c-7564-40b7-893a-e52e9a9c42cb .xy-graph .axis.x .guides:hover .guide.line{stroke:rgba(0,0,0,1)}#chart-3ebbec9c-7564-40b7-893a-e52e9a9c42cb .axis .guides:hover text{fill:rgba(0,0,0,1)}#chart-3ebbec9c-7564-40b7-893a-e52e9a9c42cb .reactive{fill-opacity:.7;stroke-opacity:.8}#chart-3ebbec9c-7564-40b7-893a-e52e9a9c42cb .ci{stroke:rgba(0,0,0,.87)}#chart-3ebbec9c-7564-40b7-893a-e52e9a9c42cb .reactive.active,#chart-3ebbec9c-7564-40b7-893a-e52e9a9c42cb .active .reactive{fill-opacity:.8;stroke-opacity:.9;stroke-width:4}#chart-3ebbec9c-7564-40b7-893a-e52e9a9c42cb .ci .reactive.active{stroke-width:1.5}#chart-3ebbec9c-7564-40b7-893a-e52e9a9c42cb .series text{fill:rgba(0,0,0,1)}#chart-3ebbec9c-7564-40b7-893a-e52e9a9c42cb .tooltip rect{fill:rgba(255,255,255,1);stroke:rgba(0,0,0,1);-webkit-transition:opacity 150ms;-moz-transition:opacity 150ms;transition:opacity 150ms}#chart-3ebbec9c-7564-40b7-893a-e52e9a9c42cb .tooltip .label{fill:rgba(0,0,0,.87)}#chart-3ebbec9c-7564-40b7-893a-e52e9a9c42cb .tooltip .label{fill:rgba(0,0,0,.87)}#chart-3ebbec9c-7564-40b7-893a-e52e9a9c42cb .tooltip .legend{font-size:.8em;fill:rgba(0,0,0,.54)}#chart-3ebbec9c-7564-40b7-893a-e52e9a9c42cb .tooltip .x_label{font-size:.6em;fill:rgba(0,0,0,1)}#chart-3ebbec9c-7564-40b7-893a-e52e9a9c42cb .tooltip .xlink{font-size:.5em;text-decoration:underline}#chart-3ebbec9c-7564-40b7-893a-e52e9a9c42cb .tooltip .value{font-size:1.5em}#chart-3ebbec9c-7564-40b7-893a-e52e9a9c42cb .bound{font-size:.5em}#chart-3ebbec9c-7564-40b7-893a-e52e9a9c42cb .max-value{font-size:.75em;fill:rgba(0,0,0,.54)}#chart-3ebbec9c-7564-40b7-893a-e52e9a9c42cb .map-element{fill:rgba(255,255,255,1);stroke:rgba(0,0,0,.54) !important}#chart-3ebbec9c-7564-40b7-893a-e52e9a9c42cb .map-element .reactive{fill-opacity:inherit;stroke-opacity:inherit}#chart-3ebbec9c-7564-40b7-893a-e52e9a9c42cb .color-0,#chart-3ebbec9c-7564-40b7-893a-e52e9a9c42cb .color-0 a:visited{stroke:#F44336;fill:#F44336}#chart-3ebbec9c-7564-40b7-893a-e52e9a9c42cb .color-1,#chart-3ebbec9c-7564-40b7-893a-e52e9a9c42cb .color-1 a:visited{stroke:#3F51B5;fill:#3F51B5}#chart-3ebbec9c-7564-40b7-893a-e52e9a9c42cb .color-2,#chart-3ebbec9c-7564-40b7-893a-e52e9a9c42cb .color-2 a:visited{stroke:#009688;fill:#009688}#chart-3ebbec9c-7564-40b7-893a-e52e9a9c42cb .text-overlay .color-0 text{fill:black}#chart-3ebbec9c-7564-40b7-893a-e52e9a9c42cb .text-overlay .color-1 text{fill:black}#chart-3ebbec9c-7564-40b7-893a-e52e9a9c42cb .text-overlay .color-2 text{fill:black}
#chart-3ebbec9c-7564-40b7-893a-e52e9a9c42cb text.no_data{text-anchor:middle}#chart-3ebbec9c-7564-40b7-893a-e52e9a9c42cb .guide.line{fill:none}#chart-3ebbec9c-7564-40b7-893a-e52e9a9c42cb .centered{text-anchor:middle}#chart-3ebbec9c-7564-40b7-893a-e52e9a9c42cb .title{text-anchor:middle}#chart-3ebbec9c-7564-40b7-893a-e52e9a9c42cb .legends .legend text{fill-opacity:1}#chart-3ebbec9c-7564-40b7-893a-e52e9a9c42cb .axis.x text{text-anchor:middle}#chart-3ebbec9c-7564-40b7-893a-e52e9a9c42cb .axis.x:not(.web) text[transform]{text-anchor:start}#chart-3ebbec9c-7564-40b7-893a-e52e9a9c42cb .axis.x:not(.web) text[transform].backwards{text-anchor:end}#chart-3ebbec9c-7564-40b7-893a-e52e9a9c42cb .axis.y text{text-anchor:end}#chart-3ebbec9c-7564-40b7-893a-e52e9a9c42cb .axis.y text[transform].backwards{text-anchor:start}#chart-3ebbec9c-7564-40b7-893a-e52e9a9c42cb .axis.y2 text{text-anchor:start}#chart-3ebbec9c-7564-40b7-893a-e52e9a9c42cb .axis.y2 text[transform].backwards{text-anchor:end}#chart-3ebbec9c-7564-40b7-893a-e52e9a9c42cb .axis .guide.line{stroke-dasharray:4,4}#chart-3ebbec9c-7564-40b7-893a-e52e9a9c42cb .axis .major.guide.line{stroke-dasharray:6,6}#chart-3ebbec9c-7564-40b7-893a-e52e9a9c42cb .horizontal .axis.y .guide.line,#chart-3ebbec9c-7564-40b7-893a-e52e9a9c42cb .horizontal .axis.y2 .guide.line,#chart-3ebbec9c-7564-40b7-893a-e52e9a9c42cb .vertical .axis.x .guide.line{opacity:0}#chart-3ebbec9c-7564-40b7-893a-e52e9a9c42cb .horizontal .axis.always_show .guide.line,#chart-3ebbec9c-7564-40b7-893a-e52e9a9c42cb .vertical .axis.always_show .guide.line{opacity:1 !important}#chart-3ebbec9c-7564-40b7-893a-e52e9a9c42cb .axis.y .guides:hover .guide.line,#chart-3ebbec9c-7564-40b7-893a-e52e9a9c42cb .axis.y2 .guides:hover .guide.line,#chart-3ebbec9c-7564-40b7-893a-e52e9a9c42cb .axis.x .guides:hover .guide.line{opacity:1}#chart-3ebbec9c-7564-40b7-893a-e52e9a9c42cb .axis .guides:hover text{opacity:1}#chart-3ebbec9c-7564-40b7-893a-e52e9a9c42cb .nofill{fill:none}#chart-3ebbec9c-7564-40b7-893a-e52e9a9c42cb .subtle-fill{fill-opacity:.2}#chart-3ebbec9c-7564-40b7-893a-e52e9a9c42cb .dot{stroke-width:1px;fill-opacity:1}#chart-3ebbec9c-7564-40b7-893a-e52e9a9c42cb .dot.active{stroke-width:5px}#chart-3ebbec9c-7564-40b7-893a-e52e9a9c42cb .dot.negative{fill:transparent}#chart-3ebbec9c-7564-40b7-893a-e52e9a9c42cb text,#chart-3ebbec9c-7564-40b7-893a-e52e9a9c42cb tspan{stroke:none !important}#chart-3ebbec9c-7564-40b7-893a-e52e9a9c42cb .series text.active{opacity:1}#chart-3ebbec9c-7564-40b7-893a-e52e9a9c42cb .tooltip rect{fill-opacity:.95;stroke-width:.5}#chart-3ebbec9c-7564-40b7-893a-e52e9a9c42cb .tooltip text{fill-opacity:1}#chart-3ebbec9c-7564-40b7-893a-e52e9a9c42cb .showable{visibility:hidden}#chart-3ebbec9c-7564-40b7-893a-e52e9a9c42cb .showable.shown{visibility:visible}#chart-3ebbec9c-7564-40b7-893a-e52e9a9c42cb .gauge-background{fill:rgba(229,229,229,1);stroke:none}#chart-3ebbec9c-7564-40b7-893a-e52e9a9c42cb .bg-lines{stroke:rgba(249,249,249,1);stroke-width:2px}</style><script type="text/javascript">window.pygal = window.pygal || {};window.pygal.config = window.pygal.config || {};window.pygal.config['3ebbec9c-7564-40b7-893a-e52e9a9c42cb'] = {"allow_interruptions": false, "box_mode": "extremes", "classes": ["pygal-chart"], "css": ["file://style.css", "file://graph.css"], "defs": [], "disable_xml_declaration": false, "dots_size": 2.5, "dynamic_print_values": false, "explicit_size": false, "fill": false, "force_uri_protocol": "https", "formatter": null, "half_pie": false, "height": 600, "include_x_axis": false, "inner_radius": 0, "interpolate": "cubic", "interpolation_parameters": {}, "interpolation_precision": 250, "inverse_y_axis": false, "js": ["//kozea.github.io/pygal.js/2.0.x/pygal-tooltips.min.js"], "legend_at_bottom": false, "legend_at_bottom_columns": null, "legend_box_size": 12, "logarithmic": false, "margin": 20, "margin_bottom": null, "margin_left": null, "margin_right": null, "margin_top": null, "max_scale": 16, "min_scale": 4, "missing_value_fill_truncation": "x", "no_data_text": "No data", "no_prefix": false, "order_min": null, "pretty_print": false, "print_labels": true, "print_values": false, "print_values_position": "center", "print_zeroes": true, "range": null, "rounded_bars": null, "secondary_range": null, "show_dots": true, "show_legend": true, "show_minor_x_labels": true, "show_minor_y_labels": true, "show_only_major_dots": false, "show_x_guides": false, "show_x_labels": true, "show_y_guides": true, "show_y_labels": true, "spacing": 10, "stack_from_top": false, "strict": false, "stroke": true, "stroke_style": null, "style": {"background": "rgba(249, 249, 249, 1)", "ci_colors": [], "colors": ["#F44336", "#3F51B5", "#009688", "#FFC107", "#FF5722", "#9C27B0", "#03A9F4", "#8BC34A", "#FF9800", "#E91E63", "#2196F3", "#4CAF50", "#FFEB3B", "#673AB7", "#00BCD4", "#CDDC39", "#9E9E9E", "#607D8B"], "font_family": "Consolas, \"Liberation Mono\", Menlo, Courier, monospace", "foreground": "rgba(0, 0, 0, .87)", "foreground_strong": "rgba(0, 0, 0, 1)", "foreground_subtle": "rgba(0, 0, 0, .54)", "guide_stroke_dasharray": "4,4", "label_font_family": "Consolas, \"Liberation Mono\", Menlo, Courier, monospace", "label_font_size": 10, "legend_font_family": "Consolas, \"Liberation Mono\", Menlo, Courier, monospace", "legend_font_size": 14, "major_guide_stroke_dasharray": "6,6", "major_label_font_family": "Consolas, \"Liberation Mono\", Menlo, Courier, monospace", "major_label_font_size": 10, "no_data_font_family": "Consolas, \"Liberation Mono\", Menlo, Courier, monospace", "no_data_font_size": 64, "opacity": ".7", "opacity_hover": ".8", "plot_background": "rgba(255, 255, 255, 1)", "stroke_opacity": ".8", "stroke_opacity_hover": ".9", "title_font_family": "Consolas, \"Liberation Mono\", Menlo, Courier, monospace", "title_font_size": 16, "tooltip_font_family": "Consolas, \"Liberation Mono\", Menlo, Courier, monospace", "tooltip_font_size": 14, "transition": "150ms", "value_background": "rgba(229, 229, 229, 1)", "value_colors": [], "value_font_family": "Consolas, \"Liberation Mono\", Menlo, Courier, monospace", "value_font_size": 16, "value_label_font_family": "Consolas, \"Liberation Mono\", Menlo, Courier, monospace", "value_label_font_size": 10}, "title": "tagMac: 0x5f8d51", "tooltip_border_radius": 0, "tooltip_fancy_mode": true, "truncate_label": null, "truncate_legend": null, "width": 800, "x_label_rotation": 0, "x_labels": null, "x_labels_major": null, "x_labels_major_count": null, "x_labels_major_every": null, "x_title": null, "xrange": null, "y_label_rotation": 0, "y_labels": null, "y_labels_major": null, "y_labels_major_count": null, "y_labels_major_every": null, "y_title": null, "zero": 0, "legends": ["1fc6a334", "19243e66", "b820b292"]}</script><script type="text/javascript" xlink:href="https://kozea.github.io/pygal.js/2.0.x/pygal-tooltips.min.js" /></defs><title>tagMac: 0x5f8d51</title><g class="graph line-graph vertical"><rect class="background" height="600" width="800" x="0" y="0" /><g class="plot" transform="translate(137, 46)"><rect class="background" height="534" width="642.8" x="0" y="0" /><g class="axis y always_show"><path class="line" d="M0.000000 534.000000 h642.800000" /><g class="guides"><path class="guide line" d="M0.000000 523.730769 h642.800000" /><text class="" x="-5" y="527.2307692307694">-64</text><title>-64</title></g><g class="guides"><path class="guide line" d="M0.000000 395.365385 h642.800000" /><text class="" x="-5" y="398.86538461538476">-63</text><title>-63</title></g><g class="guides"><path class="guide line" d="M0.000000 267.000000 h642.800000" /><text class="" x="-5" y="270.5">-62</text><title>-62</title></g><g class="guides"><path class="guide line" d="M0.000000 138.634615 h642.800000" /><text class="" x="-5" y="142.13461538461524">-61</text><title>-61</title></g><g class="guides"><path class="major guide line" d="M0.000000 10.269231 h642.800000" /><text class="major" x="-5" y="13.769230769230603">-60</text><title>-60</title></g></g><g class="series serie-0 color-0"><path class="line reactive nofill" d="M12.361538 138.634615 L13.597692 139.533167 14.833846 140.431681 16.070000 141.330122 17.306154 142.228452 18.542308 143.126634 19.778462 144.024631 21.014615 144.922406 22.250769 145.819922 23.486923 146.717143 24.723077 147.614031 25.959231 148.510549 27.195385 149.406661 28.431538 150.302328 29.667692 151.197516 30.903846 152.092186 32.140000 152.986301 33.376154 153.879825 34.612308 154.772720 35.848462 155.664950 37.084615 156.556477 38.320769 157.447265 39.556923 158.337277 40.793077 159.226475 42.029231 160.114823 43.265385 161.002284 44.501538 161.888820 45.737692 162.774396 46.973846 163.658973 48.210000 164.542515 49.446154 165.424985 50.682308 166.306345 51.918462 167.186560 53.154615 168.065592 54.390769 168.943404 55.626923 169.819959 56.863077 170.695220 58.099231 171.569150 59.335385 172.441712 60.571538 173.312869 61.807692 174.182585 63.043846 175.050821 64.280000 175.917542 65.516154 176.782711 66.752308 177.646289 67.988462 178.508241 69.224615 179.368530 70.460769 180.227118 71.696923 181.083968 72.933077 181.939043 74.169231 182.792308 75.405385 183.643723 76.641538 184.493254 77.877692 185.340862 79.113846 186.186510 80.350000 187.030162 81.586154 187.871781 82.822308 188.711330 84.058462 189.548771 85.294615 190.384069 86.530769 191.217185 87.766923 192.048082 89.003077 192.876725 90.239231 193.703076 91.475385 194.527097 92.711538 195.348753 93.947692 196.168005 95.183846 196.984818 96.420000 197.799154 97.656154 198.610975 98.892308 199.420246 100.128462 200.226929 101.364615 201.030987 102.600769 201.832384 103.836923 202.631081 105.073077 203.427043 106.309231 204.220232 107.545385 205.010612 108.781538 205.798145 110.017692 206.582794 111.253846 207.364523 112.490000 208.143294 113.726154 208.919071 114.962308 209.691816 116.198462 210.461493 117.434615 211.228064 118.670769 211.991493 119.906923 212.751743 121.143077 213.508776 122.379231 214.262556 123.615385 215.013046 124.851538 215.760209 126.087692 216.504007 127.323846 217.244404 128.560000 217.981363 129.796154 218.714847 131.032308 219.444819 132.268462 220.171242 133.504615 220.894079 134.740769 221.613292 135.976923 222.328846 137.213077 223.040703 138.449231 223.748826 139.685385 224.453178 140.921538 225.153723 142.157692 225.850422 143.393846 226.543240 144.630000 227.232139 145.866154 227.917082 147.102308 228.598033 148.338462 229.274954 149.574615 229.947808 150.810769 230.616559 152.046923 231.281169 153.283077 231.941602 154.519231 232.597820 155.755385 233.249787 156.991538 233.897465 158.227692 234.540818 159.463846 235.179809 160.700000 235.814400 161.936154 236.444555 163.172308 237.070237 164.408462 237.691408 165.644615 238.308032 166.880769 238.920072 168.116923 239.527491 169.353077 240.130252 170.589231 240.728317 171.825385 241.321651 173.061538 241.910215 174.297692 242.493974 175.533846 243.072889 176.770000 243.646925 178.006154 244.216044 179.242308 244.780209 180.478462 245.339383 181.714615 245.893529 182.950769 246.442610 184.186923 246.986590 185.423077 247.525431 186.659231 248.059096 187.895385 248.587549 189.131538 249.110751 190.367692 249.628668 191.603846 250.141261 192.840000 250.648493 194.076154 251.150328 195.312308 251.646728 196.548462 252.137657 197.784615 252.623077 199.020769 253.102952 200.256923 253.577245 201.493077 254.045918 202.729231 254.508935 203.965385 254.966259 205.201538 255.417852 206.437692 255.863679 207.673846 256.303701 208.910000 256.737882 210.146154 257.166185 211.382308 257.588572 212.618462 258.005008 213.854615 258.415455 215.090769 258.819876 216.326923 259.218234 217.563077 259.610492 218.799231 259.996613 220.035385 260.376560 221.271538 260.750296 222.507692 261.117785 223.743846 261.478988 224.980000 261.833870 226.216154 262.182394 227.452308 262.524521 228.688462 262.860216 229.924615 263.189442 231.160769 263.512161 232.396923 263.828336 233.633077 264.137930 234.869231 264.440908 236.105385 264.737230 237.341538 265.026862 238.577692 265.309765 239.813846 265.585902 241.050000 265.855237 242.286154 266.117733 243.522308 266.373353 244.758462 266.622059 245.994615 266.863816 247.230769 267.098585 248.466923 267.326329 249.703077 267.547013 250.939231 267.760599 252.175385 267.967049 253.411538 268.166328 254.647692 268.358397 255.883846 268.543221 257.120000 268.720762 258.356154 268.890982 259.592308 269.053846 260.828462 269.209316 262.064615 269.357355 263.300769 269.497927 264.536923 269.630993 265.773077 269.756518 267.009231 269.874464 268.245385 269.984795 269.481538 270.087473 270.717692 270.182461 271.953846 270.269723 273.190000 270.349221 274.426154 270.420919 275.662308 270.484779 276.898462 270.540765 278.134615 270.588839 279.370769 270.628965 280.606923 270.661106 281.843077 270.685224 283.079231 270.701283 284.315385 270.709246 285.551538 270.709076 286.787692 270.700735 288.023846 270.684187 289.260000 270.659395 290.496154 270.626322 291.732308 270.584931 292.968462 270.535185 294.204615 270.477047 295.440769 270.410479 296.676923 270.335446 297.913077 270.251910 299.149231 270.159834 300.385385 270.059181 301.621538 269.949915 302.857692 269.831997 304.093846 269.705392 305.330000 269.570062 306.566154 269.425970 307.802308 269.273080 309.038462 269.111354 310.274615 268.940755 311.510769 268.761247 312.746923 268.572792 313.983077 268.375354 315.219231 268.168895 316.455385 267.953379 317.691538 267.728768 318.927692 267.495026 320.163846 267.252116 321.400000 267.000000 322.636154 266.738654 323.872308 266.468103 325.108462 266.188384 326.344615 265.899533 327.580769 265.601587 328.816923 265.294585 330.053077 264.978561 331.289231 264.653555 332.525385 264.319601 333.761538 263.976738 334.997692 263.625003 336.233846 263.264432 337.470000 262.895062 338.706154 262.516930 339.942308 262.130074 341.178462 261.734530 342.414615 261.330335 343.650769 260.917526 344.886923 260.496141 346.123077 260.066215 347.359231 259.627787 348.595385 259.180893 349.831538 258.725569 351.067692 258.261854 352.303846 257.789784 353.540000 257.309395 354.776154 256.820726 356.012308 256.323812 357.248462 255.818691 358.484615 255.305400 359.720769 254.783976 360.956923 254.254455 362.193077 253.716875 363.429231 253.171273 364.665385 252.617686 365.901538 252.056150 367.137692 251.486702 368.373846 250.909381 369.610000 250.324221 370.846154 249.731262 372.082308 249.130538 373.318462 248.522088 374.554615 247.905949 375.790769 247.282157 377.026923 246.650749 378.263077 246.011763 379.499231 245.365234 380.735385 244.711201 381.971538 244.049701 383.207692 243.380769 384.443846 242.704444 385.680000 242.020762 386.916154 241.329759 388.152308 240.631474 389.388462 239.925943 390.624615 239.213203 391.860769 238.493291 393.096923 237.766244 394.333077 237.032099 395.569231 236.290892 396.805385 235.542662 398.041538 234.787444 399.277692 234.025276 400.513846 233.256195 401.750000 232.480238 402.986154 231.697441 404.222308 230.907842 405.458462 230.111477 406.694615 229.308384 407.930769 228.498600 409.166923 227.682161 410.403077 226.859105 411.639231 226.029468 412.875385 225.193288 414.111538 224.350601 415.347692 223.501444 416.583846 222.645855 417.820000 221.783870 419.056154 220.915527 420.292308 220.040862 421.528462 219.159911 422.764615 218.272714 424.000769 217.379305 425.236923 216.479722 426.473077 215.574003 427.709231 214.662184 428.945385 213.744301 430.181538 212.820393 431.417692 211.890496 432.653846 210.954646 433.890000 210.012882 435.126154 209.065239 436.362308 208.111755 437.598462 207.152468 438.834615 206.187413 440.070769 205.216627 441.306923 204.240149 442.543077 203.258014 443.779231 202.270260 445.015385 201.276923 446.251538 200.278041 447.487692 199.273651 448.723846 198.263789 449.960000 197.248493 451.196154 196.227799 452.432308 195.201745 453.668462 194.170367 454.904615 193.133702 456.140769 192.091788 457.376923 191.044662 458.613077 189.992359 459.849231 188.934918 461.085385 187.872375 462.321538 186.804767 463.557692 185.732132 464.793846 184.654505 466.030000 183.571925 467.266154 182.484428 468.502308 181.392051 469.738462 180.294831 470.974615 179.192805 472.210769 178.086010 473.446923 176.974482 474.683077 175.858260 475.919231 174.737380 477.155385 173.611878 478.391538 172.481793 479.627692 171.347160 480.863846 170.208016 482.100000 169.064400 483.336154 167.916347 484.572308 166.763895 485.808462 165.607081 487.044615 164.445941 488.280769 163.280512 489.516923 162.110833 490.753077 160.936938 491.989231 159.758867 493.225385 158.576654 494.461538 157.390338 495.697692 156.199956 496.933846 155.005544 498.170000 153.807139 499.406154 152.604778 500.642308 151.398499 501.878462 150.188338 503.114615 148.974332 504.350769 147.756518 505.586923 146.534934 506.823077 145.309615 508.059231 144.080600 509.295385 142.847925 510.531538 141.611626 511.767692 140.371742 513.003846 139.128309 514.240000 137.881363 515.476154 136.630943 516.712308 135.377084 517.948462 134.119824 519.184615 132.859200 520.420769 131.595249 521.656923 130.328007 522.893077 129.057512 524.129231 127.783801 525.365385 126.506911 526.601538 125.226878 527.837692 123.943739 529.073846 122.657533 530.310000 121.368294 531.546154 120.076062 532.782308 118.780871 534.018462 117.482760 535.254615 116.181766 536.490769 114.877925 537.726923 113.571274 538.963077 112.261851 540.199231 110.949691 541.435385 109.634833 542.671538 108.317314 543.907692 106.997169 545.143846 105.674437 546.380000 104.349154 547.616154 103.021356 548.852308 101.691082 550.088462 100.358368 551.324615 99.023251 552.560769 97.685768 553.796923 96.345956 555.033077 95.003852 556.269231 93.659492 557.505385 92.312915 558.741538 90.964156 559.977692 89.613253 561.213846 88.260243 562.450000 86.905163 563.686154 85.548049 564.922308 84.188939 566.158462 82.827869 567.394615 81.464877 568.630769 80.100000 569.866923 78.733274 571.103077 77.364737 572.339231 75.994425 573.575385 74.622376 574.811538 73.248626 576.047692 71.873212 577.283846 70.496172 578.520000 69.117542 579.756154 67.737360 580.992308 66.355662 582.228462 64.972484 583.464615 63.587866 584.700769 62.201842 585.936923 60.814450 587.173077 59.425728 588.409231 58.035712 589.645385 56.644438 590.881538 55.251945 592.117692 53.858269 593.353846 52.463446 594.590000 51.067515 595.826154 49.670511 597.062308 48.272472 598.298462 46.873436 599.534615 45.473438 600.770769 44.072515 602.006923 42.670706 603.243077 41.268046 604.479231 39.864573 605.715385 38.460323 606.951538 37.055334 608.187692 35.649643 609.423846 34.243286 610.660000 32.836301 611.896154 31.428724 613.132308 30.020593 614.368462 28.611944 615.604615 27.202814 616.840769 25.793241 618.076923 24.383262 619.313077 22.972912 620.549231 21.562230 621.785385 20.151252 623.021538 18.740015 624.257692 17.328557 625.493846 15.916913 626.730000 14.505122 627.966154 13.093220 629.202308 11.681244 630.438462 10.269231" /></g><g class="series serie-1 color-1"><path class="line reactive nofill" d="M12.361538 523.730769 L13.597692 523.088944 14.833846 522.447132 16.070000 521.805344 17.306154 521.163593 18.542308 520.521891 19.778462 519.880251 21.014615 519.238685 22.250769 518.597205 23.486923 517.955824 24.723077 517.314554 25.959231 516.673407 27.195385 516.032395 28.431538 515.391532 29.667692 514.750828 30.903846 514.110297 32.140000 513.469951 33.376154 512.829802 34.612308 512.189863 35.848462 511.550145 37.084615 510.910662 38.320769 510.271425 39.556923 509.632446 40.793077 508.993739 42.029231 508.355315 43.265385 507.717188 44.501538 507.079368 45.737692 506.441868 46.973846 505.804701 48.210000 505.167880 49.446154 504.531415 50.682308 503.895321 51.918462 503.259608 53.154615 502.624290 54.390769 501.989378 55.626923 501.354886 56.863077 500.720824 58.099231 500.087207 59.335385 499.454045 60.571538 498.821351 61.807692 498.189138 63.043846 497.557419 64.280000 496.926204 65.516154 496.295507 66.752308 495.665339 67.988462 495.035714 69.224615 494.406644 70.460769 493.778140 71.696923 493.150216 72.933077 492.522883 74.169231 491.896154 75.405385 491.270041 76.641538 490.644556 77.877692 490.019713 79.113846 489.395522 80.350000 488.771997 81.586154 488.149150 82.822308 487.526993 84.058462 486.905538 85.294615 486.284798 86.530769 485.664785 87.766923 485.045511 89.003077 484.426989 90.239231 483.809231 91.475385 483.192250 92.711538 482.576057 93.947692 481.960665 95.183846 481.346086 96.420000 480.732333 97.656154 480.119418 98.892308 479.507354 100.128462 478.896152 101.364615 478.285825 102.600769 477.676385 103.836923 477.067845 105.073077 476.460216 106.309231 475.853512 107.545385 475.247745 108.781538 474.642926 110.017692 474.039069 111.253846 473.436185 112.490000 472.834287 113.726154 472.233387 114.962308 471.633497 116.198462 471.034631 117.434615 470.436799 118.670769 469.840015 119.906923 469.244291 121.143077 468.649639 122.379231 468.056071 123.615385 467.463600 124.851538 466.872238 126.087692 466.281998 127.323846 465.692891 128.560000 465.104930 129.796154 464.518128 131.032308 463.932496 132.268462 463.348048 133.504615 462.764794 134.740769 462.182749 135.976923 461.601923 137.213077 461.022330 138.449231 460.443981 139.685385 459.866889 140.921538 459.291067 142.157692 458.716526 143.393846 458.143279 144.630000 457.571338 145.866154 457.000716 147.102308 456.431425 148.338462 455.863477 149.574615 455.296884 150.810769 454.731660 152.046923 454.167815 153.283077 453.605363 154.519231 453.044316 155.755385 452.484686 156.991538 451.926486 158.227692 451.369727 159.463846 450.814423 160.700000 450.260585 161.936154 449.708225 163.172308 449.157357 164.408462 448.607992 165.644615 448.060143 166.880769 447.513822 168.116923 446.969041 169.353077 446.425814 170.589231 445.884151 171.825385 445.344065 173.061538 444.805569 174.297692 444.268675 175.533846 443.733396 176.770000 443.199743 178.006154 442.667729 179.242308 442.137366 180.478462 441.608667 181.714615 441.081644 182.950769 440.556309 184.186923 440.032675 185.423077 439.510754 186.659231 438.990558 187.895385 438.472099 189.131538 437.955391 190.367692 437.440444 191.603846 436.927272 192.840000 436.415887 194.076154 435.906301 195.312308 435.398527 196.548462 434.892576 197.784615 434.388462 199.020769 433.886196 200.256923 433.385790 201.493077 432.887258 202.729231 432.390611 203.965385 431.895863 205.201538 431.403024 206.437692 430.912107 207.673846 430.423125 208.910000 429.936091 210.146154 429.451015 211.382308 428.967912 212.618462 428.486792 213.854615 428.007669 215.090769 427.530554 216.326923 427.055461 217.563077 426.582400 218.799231 426.111386 220.035385 425.642429 221.271538 425.175542 222.507692 424.710738 223.743846 424.248030 224.980000 423.787428 226.216154 423.328946 227.452308 422.872595 228.688462 422.418389 229.924615 421.966340 231.160769 421.516459 232.396923 421.068760 233.633077 420.623254 234.869231 420.179954 236.105385 419.738872 237.341538 419.300020 238.577692 418.863412 239.813846 418.429058 241.050000 417.996972 242.286154 417.567166 243.522308 417.139652 244.758462 416.714442 245.994615 416.291549 247.230769 415.870985 248.466923 415.452762 249.703077 415.036893 250.939231 414.623390 252.175385 414.212266 253.411538 413.803532 254.647692 413.397201 255.883846 412.993285 257.120000 412.591797 258.356154 412.192749 259.592308 411.796154 260.828462 411.402023 262.064615 411.010369 263.300769 410.621204 264.536923 410.234541 265.773077 409.850391 267.009231 409.468768 268.245385 409.089684 269.481538 408.713150 270.717692 408.339180 271.953846 407.967785 273.190000 407.598978 274.426154 407.232771 275.662308 406.869176 276.898462 406.508207 278.134615 406.149874 279.370769 405.794191 280.606923 405.441170 281.843077 405.090823 283.079231 404.743162 284.315385 404.398200 285.551538 404.055949 286.787692 403.716422 288.023846 403.379630 289.260000 403.045586 290.496154 402.714303 291.732308 402.385792 292.968462 402.060067 294.204615 401.737138 295.440769 401.417020 296.676923 401.099723 297.913077 400.785261 299.149231 400.473645 300.385385 400.164888 301.621538 399.859003 302.857692 399.556001 304.093846 399.255895 305.330000 398.958697 306.566154 398.664420 307.802308 398.373076 309.038462 398.084677 310.274615 397.799235 311.510769 397.516764 312.746923 397.237274 313.983077 396.960779 315.219231 396.687291 316.455385 396.416822 317.691538 396.149385 318.927692 395.884991 320.163846 395.623654 321.400000 395.365385 322.636154 395.110192 323.872308 394.858068 325.108462 394.609000 326.344615 394.362976 327.580769 394.119984 328.816923 393.880010 330.053077 393.643044 331.289231 393.409072 332.525385 393.178082 333.761538 392.950062 334.997692 392.724999 336.233846 392.502882 337.470000 392.283697 338.706154 392.067433 339.942308 391.854078 341.178462 391.643618 342.414615 391.436042 343.650769 391.231337 344.886923 391.029492 346.123077 390.830492 347.359231 390.634327 348.595385 390.440984 349.831538 390.250451 351.067692 390.062715 352.303846 389.877764 353.540000 389.695586 354.776154 389.516168 356.012308 389.339499 357.248462 389.165565 358.484615 388.994354 359.720769 388.825854 360.956923 388.660053 362.193077 388.496939 363.429231 388.336499 364.665385 388.178720 365.901538 388.023591 367.137692 387.871099 368.373846 387.721232 369.610000 387.573978 370.846154 387.429323 372.082308 387.287256 373.318462 387.147765 374.554615 387.010838 375.790769 386.876461 377.026923 386.744622 378.263077 386.615310 379.499231 386.488512 380.735385 386.364215 381.971538 386.242407 383.207692 386.123077 384.443846 386.006211 385.680000 385.891797 386.916154 385.779824 388.152308 385.670278 389.388462 385.563147 390.624615 385.458419 391.860769 385.356082 393.096923 385.256124 394.333077 385.158531 395.569231 385.063292 396.805385 384.970395 398.041538 384.879826 399.277692 384.791575 400.513846 384.705627 401.750000 384.621972 402.986154 384.540597 404.222308 384.461489 405.458462 384.384636 406.694615 384.310026 407.930769 384.237646 409.166923 384.167485 410.403077 384.099529 411.639231 384.033767 412.875385 383.970186 414.111538 383.908774 415.347692 383.849519 416.583846 383.792407 417.820000 383.737428 419.056154 383.684568 420.292308 383.633815 421.528462 383.585158 422.764615 383.538583 424.000769 383.494078 425.236923 383.451631 426.473077 383.411230 427.709231 383.372862 428.945385 383.336515 430.181538 383.302177 431.417692 383.269835 432.653846 383.239477 433.890000 383.211091 435.126154 383.184664 436.362308 383.160184 437.598462 383.137639 438.834615 383.117016 440.070769 383.098304 441.306923 383.081489 442.543077 383.066560 443.779231 383.053503 445.015385 383.042308 446.251538 383.032961 447.487692 383.025450 448.723846 383.019763 449.960000 383.015887 451.196154 383.013811 452.432308 383.013521 453.668462 383.015006 454.904615 383.018253 456.140769 383.023250 457.376923 383.029985 458.613077 383.038444 459.849231 383.048617 461.085385 383.060490 462.321538 383.074052 463.557692 383.089289 464.793846 383.106191 466.030000 383.124743 467.266154 383.144934 468.502308 383.166752 469.738462 383.190185 470.974615 383.215219 472.210769 383.241843 473.446923 383.270044 474.683077 383.299811 475.919231 383.331130 477.155385 383.363989 478.391538 383.398377 479.627692 383.434280 480.863846 383.471687 482.100000 383.510585 483.336154 383.550961 484.572308 383.592804 485.808462 383.636101 487.044615 383.680840 488.280769 383.727009 489.516923 383.774594 490.753077 383.823585 491.989231 383.873968 493.225385 383.925731 494.461538 383.978862 495.697692 384.033348 496.933846 384.089178 498.170000 384.146338 499.406154 384.204817 500.642308 384.264603 501.878462 384.325682 503.114615 384.388043 504.350769 384.451673 505.586923 384.516561 506.823077 384.582692 508.059231 384.650056 509.295385 384.718640 510.531538 384.788432 511.767692 384.859419 513.003846 384.931589 514.240000 385.004930 515.476154 385.079429 516.712308 385.155075 517.948462 385.231854 519.184615 385.309754 520.420769 385.388763 521.656923 385.468869 522.893077 385.550060 524.129231 385.632323 525.365385 385.715645 526.601538 385.800015 527.837692 385.885420 529.073846 385.971848 530.310000 386.059287 531.546154 386.147723 532.782308 386.237145 534.018462 386.327541 535.254615 386.418899 536.490769 386.511205 537.726923 386.604447 538.963077 386.698614 540.199231 386.793693 541.435385 386.889671 542.671538 386.986536 543.907692 387.084277 545.143846 387.182880 546.380000 387.282333 547.616154 387.382625 548.852308 387.483742 550.088462 387.585672 551.324615 387.688403 552.560769 387.791923 553.796923 387.896220 555.033077 388.001280 556.269231 388.107092 557.505385 388.213644 558.741538 388.320922 559.977692 388.428916 561.213846 388.537611 562.450000 388.646997 563.686154 388.757061 564.922308 388.867790 566.158462 388.979172 567.394615 389.091195 568.630769 389.203846 569.866923 389.317114 571.103077 389.430985 572.339231 389.545448 573.575385 389.660490 574.811538 389.776099 576.047692 389.892263 577.283846 390.008968 578.520000 390.126204 579.756154 390.243957 580.992308 390.362215 582.228462 390.480967 583.464615 390.600199 584.700769 390.719899 585.936923 390.840055 587.173077 390.960655 588.409231 391.081686 589.645385 391.203136 590.881538 391.324993 592.117692 391.447244 593.353846 391.569877 594.590000 391.692880 595.826154 391.816240 597.062308 391.939945 598.298462 392.063983 599.534615 392.188341 600.770769 392.313008 602.006923 392.437970 603.243077 392.563216 604.479231 392.688732 605.715385 392.814508 606.951538 392.940530 608.187692 393.066786 609.423846 393.193264 610.660000 393.319951 611.896154 393.446836 613.132308 393.573905 614.368462 393.701147 615.604615 393.828549 616.840769 393.956099 618.076923 394.083785 619.313077 394.211593 620.549231 394.339513 621.785385 394.467531 623.021538 394.595636 624.257692 394.723814 625.493846 394.852055 626.730000 394.980344 627.966154 395.108670 629.202308 395.237021 630.438462 395.365385" /></g><g class="series serie-2 color-2" /></g><g class="titles"><text class="title plot_title" x="400.0" y="26">tagMac: 0x5f8d51</text></g><g class="plot overlay" transform="translate(137, 46)"><g class="series serie-0 color-0"><g class="dots"><circle class="dot reactive tooltip-trigger" cx="12.36153846153846" cy="138.63461538461524" r="2.5" /><desc class="value">-61</desc><desc class="x ">12.36153846153846</desc><desc class="y ">138.63461538461524</desc></g><g class="dots"><circle class="dot reactive tooltip-trigger" cx="321.4" cy="267.0" r="2.5" /><desc class="value">-62</desc><desc class="x ">321.4</desc><desc class="y ">267.0</desc></g><g class="dots"><circle class="dot reactive tooltip-trigger" cx="630.4384615384615" cy="10.269230769230603" r="2.5" /><desc class="value">-60</desc><desc class="x left">630.4384615384615</desc><desc class="y left">10.269230769230603</desc></g></g><g class="series serie-1 color-1"><g class="dots"><circle class="dot reactive tooltip-trigger" cx="12.36153846153846" cy="523.7307692307694" r="2.5" /><desc class="value">-64</desc><desc class="x top">12.36153846153846</desc><desc class="y top">523.7307692307694</desc></g><g class="dots"><circle class="dot reactive tooltip-trigger" cx="321.4" cy="395.36538461538476" r="2.5" /><desc class="value">-63</desc><desc class="x top">321.4</desc><desc class="y top">395.36538461538476</desc></g><g class="dots"><circle class="dot reactive tooltip-trigger" cx="630.4384615384615" cy="395.36538461538476" r="2.5" /><desc class="value">-63</desc><desc class="x left top">630.4384615384615</desc><desc class="y left top">395.36538461538476</desc></g></g><g class="series serie-2 color-2"><g class="dots"><circle class="dot reactive tooltip-trigger" cx="12.36153846153846" cy="523.7307692307694" r="2.5" /><desc class="value">-64</desc><desc class="x top">12.36153846153846</desc><desc class="y top">523.7307692307694</desc></g></g></g><g class="plot text-overlay" transform="translate(137, 46)"><g class="series serie-0 color-0" /><g class="series serie-1 color-1" /><g class="series serie-2 color-2" /></g><g class="plot tooltip-overlay" transform="translate(137, 46)"><g class="tooltip" style="opacity: 0" transform="translate(0 0)"><rect class="tooltip-box" height="0" rx="0" ry="0" width="0" /><g class="text" /></g></g><g class="legends" transform="translate(10, 56)"><g class="legend reactive activate-serie" id="activate-serie-0"><rect class="color-0 reactive" height="12" width="12" x="0.0" y="1.0" /><text x="17.0" y="11.2">1fc6a334</text></g><g class="legend reactive activate-serie" id="activate-serie-1"><rect class="color-1 reactive" height="12" width="12" x="0.0" y="22.0" /><text x="17.0" y="32.2">19243e66</text></g><g class="legend reactive activate-serie" id="activate-serie-2"><rect class="color-2 reactive" height="12" width="12" x="0.0" y="43.0" /><text x="17.0" y="53.2">b820b292</text></g></g><g class="legends" transform="translate(790, 56)" /></g></svg>