<?xml version='1.0' encoding='utf-8'?>
<svg xmlns:xlink="http://www.w3.org/1999/xlink" class="pygal-chart" id="chart-f24a60fc-28c7-40a4-a966-367ab7f8b7d9" viewBox="0 0 800 600" xmlns="http://www.w3.org/2000/svg"><!--Generated with pygal 2.4.0 (etree) ©Kozea 2012-2016 on 2019-11-21--><!--http://pygal.org--><!--http://github.com/Kozea/pygal--><defs><style type="text/css">#chart-f24a60fc-28c7-40a4-a966-367ab7f8b7d9{-webkit-user-select:none;-webkit-font-smoothing:antialiased;font-family:Consolas,"Liberation Mono",Menlo,Courier,monospace}#chart-f24a60fc-28c7-40a4-a966-367ab7f8b7d9 .title{font-family:Consolas,"Liberation Mono",Menlo,Courier,monospace;font-size:16px}#chart-f24a60fc-28c7-40a4-a966-367ab7f8b7d9 .legends .legend text{font-family:Consolas,"Liberation Mono",Menlo,Courier,monospace;font-size:14px}#chart-f24a60fc-28c7-40a4-a966-367ab7f8b7d9 .axis text{font-family:Consolas,"Liberation Mono",Menlo,Courier,monospace;font-size:10px}#chart-f24a60fc-28c7-40a4-a966-367ab7f8b7d9 .axis text.major{font-family:Consolas,"Liberation Mono",Menlo,Courier,monospace;font-size:10px}#chart-f24a60fc-28c7-40a4-a966-367ab7f8b7d9 .text-overlay text.value{font-family:Consolas,"Liberation Mono",Menlo,Courier,monospace;font-size:16px}#chart-f24a60fc-28c7-40a4-a966-367ab7f8b7d9 .text-overlay text.label{font-family:Consolas,"Liberation Mono",Menlo,Courier,monospace;font-size:10px}#chart-f24a60fc-28c7-40a4-a966-367ab7f8b7d9 .tooltip{font-family:Consolas,"Liberation Mono",Menlo,Courier,monospace;font-size:14px}#chart-f24a60fc-28c7-40a4-a966-367ab7f8b7d9 text.no_data{font-family:Consolas,"Liberation Mono",Menlo,Courier,monospace;font-size:64px}
#chart-f24a60fc-28c7-40a4-a966-367ab7f8b7d9{background-color:rgba(249,249,249,1)}#chart-f24a60fc-28c7-40a4-a966-367ab7f8b7d9 path,#chart-f24a60fc-28c7-40a4-a966-367ab7f8b7d9 line,#chart-f24a60fc-28c7-40a4-a966-367ab7f8b7d9 rect,#chart-f24a60fc-28c7-40a4-a966-367ab7f8b7d9 circle{-webkit-transition:150ms;-moz-transition:150ms;transition:150ms}#chart-f24a60fc-28c7-40a4-a966-367ab7f8b7d9 .graph &gt; .background{fill:rgba(249,249,249,1)}#chart-f24a60fc-28c7-40a4-a966-367ab7f8b7d9 .plot &gt; .background{fill:rgba(255,255,255,1)}#chart-f24a60fc-28c7-40a4-a966-367ab7f8b7d9 .graph{fill:rgba(0,0,0,.87)}#chart-f24a60fc-28c7-40a4-a966-367ab7f8b7d9 text.no_data{fill:rgba(0,0,0,1)}#chart-f24a60fc-28c7-40a4-a966-367ab7f8b7d9 .title{fill:rgba(0,0,0,1)}#chart-f24a60fc-28c7-40a4-a966-367ab7f8b7d9 .legends .legend text{fill:rgba(0,0,0,.87)}#chart-f24a60fc-28c7-40a4-a966-367ab7f8b7d9 .legends .legend:hover text{fill:rgba(0,0,0,1)}#chart-f24a60fc-28c7-40a4-a966-367ab7f8b7d9 .axis .line{stroke:rgba(0,0,0,1)}#chart-f24a60fc-28c7-40a4-a966-367ab7f8b7d9 .axis .guide.line{stroke:rgba(0,0,0,.54)}#chart-f24a60fc-28c7-40a4-a966-367ab7f8b7d9 .axis .major.line{stroke:rgba(0,0,0,.87)}#chart-f24a60fc-28c7-40a4-a966-367ab7f8b7d9 .axis text.major{fill:rgba(0,0,0,1)}#chart-f24a60fc-28c7-40a4-a966-367ab7f8b7d9 .axis.y .guides:hover .guide.line,#chart-f24a60fc-28c7-40a4-a966-367ab7f8b7d9 .line-graph .axis.x .guides:hover .guide.line,#chart-f24a60fc-28c7-40a4-a966-367ab7f8b7d9 .stackedline-graph .axis.x .guides:hover .guide.line,#chart-f24a60fc-28c7-40a4-a966-367ab7f8b7d9 .xy-graph .axis.x .guides:hover .guide.line{stroke:rgba(0,0,0,1)}#chart-f24a60fc-28c7-40a4-a966-367ab7f8b7d9 .axis .guides:hover text{fill:rgba(0,0,0,1)}#chart-f24a60fc-28c7-40a4-a966-367ab7f8b7d9 .reactive{fill-opacity:.7;stroke-opacity:.8}#chart-f24a60fc-28c7-40a4-a966-367ab7f8b7d9 .ci{stroke:rgba(0,0,0,.87)}#chart-f24a60fc-28c7-40a4-a966-367ab7f8b7d9 .reactive.active,#chart-f24a60fc-28c7-40a4-a966-367ab7f8b7d9 .active .reactive{fill-opacity:.8;stroke-opacity:.9;stroke-width:4}#chart-f24a60fc-28c7-40a4-a966-367ab7f8b7d9 .ci .reactive.active{stroke-width:1.5}#chart-f24a60fc-28c7-40a4-a966-367ab7f8b7d9 .series text{fill:rgba(0,0,0,1)}#chart-f24a60fc-28c7-40a4-a966-367ab7f8b7d9 .tooltip rect{fill:rgba(255,255,255,1);stroke:rgba(0,0,0,1);-webkit-transition:opacity 150ms;-moz-transition:opacity 150ms;transition:opacity 150ms}#chart-f24a60fc-28c7-40a4-a966-367ab7f8b7d9 .tooltip .label{fill:rgba(0,0,0,.87)}#chart-f24a60fc-28c7-40a4-a966-367ab7f8b7d9 .tooltip .label{fill:rgba(0,0,0,.87)}#chart-f24a60fc-28c7-40a4-a966-367ab7f8b7d9 .tooltip .legend{font-size:.8em;fill:rgba(0,0,0,.54)}#chart-f24a60fc-28c7-40a4-a966-367ab7f8b7d9 .tooltip .x_label{font-size:.6em;fill:rgba(0,0,0,1)}#chart-f24a60fc-28c7-40a4-a966-367ab7f8b7d9 .tooltip .xlink{font-size:.5em;text-decoration:underline}#chart-f24a60fc-28c7-40a4-a966-367ab7f8b7d9 .tooltip .value{font-size:1.5em}#chart-f24a60fc-28c7-40a4-a966-367ab7f8b7d9 .bound{font-size:.5em}#chart-f24a60fc-28c7-40a4-a966-367ab7f8b7d9 .max-value{font-size:.75em;fill:rgba(0,0,0,.54)}#chart-f24a60fc-28c7-40a4-a966-367ab7f8b7d9 .map-element{fill:rgba(255,255,255,1);stroke:rgba(0,0,0,.54) !important}#chart-f24a60fc-28c7-40a4-a966-367ab7f8b7d9 .map-element .reactive{fill-opacity:inherit;stroke-opacity:inherit}#chart-f24a60fc-28c7-40a4-a966-367ab7f8b7d9 .color-0,#chart-f24a60fc-28c7-40a4-a966-367ab7f8b7d9 .color-0 a:visited{stroke:#F44336;fill:#F44336}#chart-f24a60fc-28c7-40a4-a966-367ab7f8b7d9 .text-overlay .color-0 text{fill:black}
#chart-f24a60fc-28c7-40a4-a966-367ab7f8b7d9 text.no_data{text-anchor:middle}#chart-f24a60fc-28c7-40a4-a966-367ab7f8b7d9 .guide.line{fill:none}#chart-f24a60fc-28c7-40a4-a966-367ab7f8b7d9 .centered{text-anchor:middle}#chart-f24a60fc-28c7-40a4-a966-367ab7f8b7d9 .title{text-anchor:middle}#chart-f24a60fc-28c7-40a4-a966-367ab7f8b7d9 .legends .legend text{fill-opacity:1}#chart-f24a60fc-28c7-40a4-a966-367ab7f8b7d9 .axis.x text{text-anchor:middle}#chart-f24a60fc-28c7-40a4-a966-367ab7f8b7d9 .axis.x:not(.web) text[transform]{text-anchor:start}#chart-f24a60fc-28c7-40a4-a966-367ab7f8b7d9 .axis.x:not(.web) text[transform].backwards{text-anchor:end}#chart-f24a60fc-28c7-40a4-a966-367ab7f8b7d9 .axis.y text{text-anchor:end}#chart-f24a60fc-28c7-40a4-a966-367ab7f8b7d9 .axis.y text[transform].backwards{text-anchor:start}#chart-f24a60fc-28c7-40a4-a966-367ab7f8b7d9 .axis.y2 text{text-anchor:start}#chart-f24a60fc-28c7-40a4-a966-367ab7f8b7d9 .axis.y2 text[transform].backwards{text-anchor:end}#chart-f24a60fc-28c7-40a4-a966-367ab7f8b7d9 .axis .guide.line{stroke-dasharray:4,4}#chart-f24a60fc-28c7-40a4-a966-367ab7f8b7d9 .axis .major.guide.line{stroke-dasharray:6,6}#chart-f24a60fc-28c7-40a4-a966-367ab7f8b7d9 .horizontal .axis.y .guide.line,#chart-f24a60fc-28c7-40a4-a966-367ab7f8b7d9 .horizontal .axis.y2 .guide.line,#chart-f24a60fc-28c7-40a4-a966-367ab7f8b7d9 .vertical .axis.x .guide.line{opacity:0}#chart-f24a60fc-28c7-40a4-a966-367ab7f8b7d9 .horizontal .axis.always_show .guide.line,#chart-f24a60fc-28c7-40a4-a966-367ab7f8b7d9 .vertical .axis.always_show .guide.line{opacity:1 !important}#chart-f24a60fc-28c7-40a4-a966-367ab7f8b7d9 .axis.y .guides:hover .guide.line,#chart-f24a60fc-28c7-40a4-a966-367ab7f8b7d9 .axis.y2 .guides:hover .guide.line,#chart-f24a60fc-28c7-40a4-a966-367ab7f8b7d9 .axis.x .guides:hover .guide.line{opacity:1}#chart-f24a60fc-28c7-40a4-a966-367ab7f8b7d9 .axis .guides:hover text{opacity:1}#chart-f24a60fc-28c7-40a4-a966-367ab7f8b7d9 .nofill{fill:none}#chart-f24a60fc-28c7-40a4-a966-367ab7f8b7d9 .subtle-fill{fill-opacity:.2}#chart-f24a60fc-28c7-40a4-a966-367ab7f8b7d9 .dot{stroke-width:1px;fill-opacity:1}#chart-f24a60fc-28c7-40a4-a966-367ab7f8b7d9 .dot.active{stroke-width:5px}#chart-f24a60fc-28c7-40a4-a966-367ab7f8b7d9 .dot.negative{fill:transparent}#chart-f24a60fc-28c7-40a4-a966-367ab7f8b7d9 text,#chart-f24a60fc-28c7-40a4-a966-367ab7f8b7d9 tspan{stroke:none !important}#chart-f24a60fc-28c7-40a4-a966-367ab7f8b7d9 .series text.active{opacity:1}#chart-f24a60fc-28c7-40a4-a966-367ab7f8b7d9 .tooltip rect{fill-opacity:.95;stroke-width:.5}#chart-f24a60fc-28c7-40a4-a966-367ab7f8b7d9 .tooltip text{fill-opacity:1}#chart-f24a60fc-28c7-40a4-a966-367ab7f8b7d9 .showable{visibility:hidden}#chart-f24a60fc-28c7-40a4-a966-367ab7f8b7d9 .showable.shown{visibility:visible}#chart-f24a60fc-28c7-40a4-a966-367ab7f8b7d9 .gauge-background{fill:rgba(229,229,229,1);stroke:none}#chart-f24a60fc-28c7-40a4-a966-367ab7f8b7d9 .bg-lines{stroke:rgba(249,249,249,1);stroke-width:2px}</style><script type="text/javascript">window.pygal = window.pygal || {};window.pygal.config = window.pygal.config || {};window.pygal.config['f24a60fc-28c7-40a4-a966-367ab7f8b7d9'] = {"allow_interruptions": false, "box_mode": "extremes", "classes": ["pygal-chart"], "css": ["file://style.css", "file://graph.css"], "defs": [], "disable_xml_declaration": false, "dots_size": 2.5, "dynamic_print_values": false, "explicit_size": false, "fill": false, "force_uri_protocol": "https", "formatter": null, "half_pie": false, "height": 600, "include_x_axis": false, "inner_radius": 0, "interpolate": "cubic", "interpolation_parameters": {}, "interpolation_precision": 250, "inverse_y_axis": false, "js": ["//kozea.github.io/pygal.js/2.0.x/pygal-tooltips.min.js"], "legend_at_bottom": false, "legend_at_bottom_columns": null, "legend_box_size": 12, "logarithmic": false, "margin": 20, "margin_bottom": null, "margin_left": null, "margin_right": null, "margin_top": null, "max_scale": 16, "min_scale": 4, "missing_value_fill_truncation": "x", "no_data_text": "No data", "no_prefix": false, "order_min": null, "pretty_print": false, "print_labels": true, "print_values": false, "print_values_position": "center", "print_zeroes": true, "range": null, "rounded_bars": null, "secondary_range": null, "show_dots": true, "show_legend": true, "show_minor_x_labels": true, "show_minor_y_labels": true, "show_only_major_dots": false, "show_x_guides": false, "show_x_labels": true, "show_y_guides": true, "show_y_labels": true, "spacing": 10, "stack_from_top": false, "strict": false, "stroke": true, "stroke_style": null, "style": {"background": "rgba(249, 249, 249, 1)", "ci_colors": [], "colors": ["#F44336", "#3F51B5", "#009688", "#FFC107", "#FF5722", "#9C27B0", "#03A9F4", "#8BC34A", "#FF9800", "#E91E63", "#2196F3", "#4CAF50", "#FFEB3B", "#673AB7", "#00BCD4", "#CDDC39", "#9E9E9E", "#607D8B"], "font_family": "Consolas, \"Liberation Mono\", Menlo, Courier, monospace", "foreground": "rgba(0, 0, 0, .87)", "foreground_strong": "rgba(0, 0, 0, 1)", "foreground_subtle": "rgba(0, 0, 0, .54)", "guide_stroke_dasharray": "4,4", "label_font_family": "Consolas, \"Liberation Mono\", Menlo, Courier, monospace", "label_font_size": 10, "legend_font_family": "Consolas, \"Liberation Mono\", Menlo, Courier, monospace", "legend_font_size": 14, "major_guide_stroke_dasharray": "6,6", "major_label_font_family": "Consolas, \"Liberation Mono\", Menlo, Courier, monospace", "major_label_font_size": 10, "no_data_font_family": "Consolas, \"Liberation Mono\", Menlo, Courier, monospace", "no_data_font_size": 64, "opacity": ".7", "opacity_hover": ".8", "plot_background": "rgba(255, 255, 255, 1)", "stroke_opacity": ".8", "stroke_opacity_hover": ".9", "title_font_family": "Consolas, \"Liberation Mono\", Menlo, Courier, monospace", "title_font_size": 16, "tooltip_font_family": "Consolas, \"Liberation Mono\", Menlo, Courier, monospace", "tooltip_font_size": 14, "transition": "150ms", "value_background": "rgba(229, 229, 229, 1)", "value_colors": [], "value_font_family": "Consolas, \"Liberation Mono\", Menlo, Courier, monospace", "value_font_size": 16, "value_label_font_family": "Consolas, \"Liberation Mono\", Menlo, Courier, monospace", "value_label_font_size": 10}, "title": "tagMac: 0x5f8d4a", "tooltip_border_radius": 0, "tooltip_fancy_mode": true, "truncate_label": null, "truncate_legend": null, "width": 800, "x_label_rotation": 0, "x_labels": null, "x_labels_major": null, "x_labels_major_count": null, "x_labels_major_every": null, "x_title": null, "xrange": null, "y_label_rotation": 0, "y_labels": null, "y_labels_major": null, "y_labels_major_count": null, "y_labels_major_every": null, "y_title": null, "zero": 0, "legends": ["0b3312e6"]}</script><script type="text/javascript" xlink:href="https://kozea.github.io/pygal.js/2.0.x/pygal-tooltips.min.js" /></defs><title>tagMac: 0x5f8d4a</title><g class="graph line-graph vertical"><rect class="background" height="600" width="800" x="0" y="0" /><g class="plot" transform="translate(137, 46)"><rect class="background" height="534" width="642.8" x="0" y="0" /><g class="axis y always_show"><path class="line" d="M0.000000 534.000000 h642.800000" /><g class="guides"><path class="guide line" d="M0.000000 267.000000 h642.800000" /><text class="" x="-5" y="270.5">-65</text><title>-65</title></g></g><g class="series serie-0 color-0"><path class="line reactive nofill" d="M12.361538 267.000000 L13.597692 267.000000 14.833846 267.000000 16.070000 267.000000 17.306154 267.000000 18.542308 267.000000 19.778462 267.000000 21.014615 267.000000 22.250769 267.000000 23.486923 267.000000 24.723077 267.000000 25.959231 267.000000 27.195385 267.000000 28.431538 267.000000 29.667692 267.000000 30.903846 267.000000 32.140000 267.000000 33.376154 267.000000 34.612308 267.000000 35.848462 267.000000 37.084615 267.000000 38.320769 267.000000 39.556923 267.000000 40.793077 267.000000 42.029231 267.000000 43.265385 267.000000 44.501538 267.000000 45.737692 267.000000 46.973846 267.000000 48.210000 267.000000 49.446154 267.000000 50.682308 267.000000 51.918462 267.000000 53.154615 267.000000 54.390769 267.000000 55.626923 267.000000 56.863077 267.000000 58.099231 267.000000 59.335385 267.000000 60.571538 267.000000 61.807692 267.000000 63.043846 267.000000 64.280000 267.000000 65.516154 267.000000 66.752308 267.000000 67.988462 267.000000 69.224615 267.000000 70.460769 267.000000 71.696923 267.000000 72.933077 267.000000 74.169231 267.000000 75.405385 267.000000 76.641538 267.000000 77.877692 267.000000 79.113846 267.000000 80.350000 267.000000 81.586154 267.000000 82.822308 267.000000 84.058462 267.000000 85.294615 267.000000 86.530769 267.000000 87.766923 267.000000 89.003077 267.000000 90.239231 267.000000 91.475385 267.000000 92.711538 267.000000 93.947692 267.000000 95.183846 267.000000 96.420000 267.000000 97.656154 267.000000 98.892308 267.000000 100.128462 267.000000 101.364615 267.000000 102.600769 267.000000 103.836923 267.000000 105.073077 267.000000 106.309231 267.000000 107.545385 267.000000 108.781538 267.000000 110.017692 267.000000 111.253846 267.000000 112.490000 267.000000 113.726154 267.000000 114.962308 267.000000 116.198462 267.000000 117.434615 267.000000 118.670769 267.000000 119.906923 267.000000 121.143077 267.000000 122.379231 267.000000 123.615385 267.000000 124.851538 267.000000 126.087692 267.000000 127.323846 267.000000 128.560000 267.000000 129.796154 267.000000 131.032308 267.000000 132.268462 267.000000 133.504615 267.000000 134.740769 267.000000 135.976923 267.000000 137.213077 267.000000 138.449231 267.000000 139.685385 267.000000 140.921538 267.000000 142.157692 267.000000 143.393846 267.000000 144.630000 267.000000 145.866154 267.000000 147.102308 267.000000 148.338462 267.000000 149.574615 267.000000 150.810769 267.000000 152.046923 267.000000 153.283077 267.000000 154.519231 267.000000 155.755385 267.000000 156.991538 267.000000 158.227692 267.000000 159.463846 267.000000 160.700000 267.000000 161.936154 267.000000 163.172308 267.000000 164.408462 267.000000 165.644615 267.000000 166.880769 267.000000 168.116923 267.000000 169.353077 267.000000 170.589231 267.000000 171.825385 267.000000 173.061538 267.000000 174.297692 267.000000 175.533846 267.000000 176.770000 267.000000 178.006154 267.000000 179.242308 267.000000 180.478462 267.000000 181.714615 267.000000 182.950769 267.000000 184.186923 267.000000 185.423077 267.000000 186.659231 267.000000 187.895385 267.000000 189.131538 267.000000 190.367692 267.000000 191.603846 267.000000 192.840000 267.000000 194.076154 267.000000 195.312308 267.000000 196.548462 267.000000 197.784615 267.000000 199.020769 267.000000 200.256923 267.000000 201.493077 267.000000 202.729231 267.000000 203.965385 267.000000 205.201538 267.000000 206.437692 267.000000 207.673846 267.000000 208.910000 267.000000 210.146154 267.000000 211.382308 267.000000 212.618462 267.000000 213.854615 267.000000 215.090769 267.000000 216.326923 267.000000 217.563077 267.000000 218.799231 267.000000 220.035385 267.000000 221.271538 267.000000 222.507692 267.000000 223.743846 267.000000 224.980000 267.000000 226.216154 267.000000 227.452308 267.000000 228.688462 267.000000 229.924615 267.000000 231.160769 267.000000 232.396923 267.000000 233.633077 267.000000 234.869231 267.000000 236.105385 267.000000 237.341538 267.000000 238.577692 267.000000 239.813846 267.000000 241.050000 267.000000 242.286154 267.000000 243.522308 267.000000 244.758462 267.000000 245.994615 267.000000 247.230769 267.000000 248.466923 267.000000 249.703077 267.000000 250.939231 267.000000 252.175385 267.000000 253.411538 267.000000 254.647692 267.000000 255.883846 267.000000 257.120000 267.000000 258.356154 267.000000 259.592308 267.000000 260.828462 267.000000 262.064615 267.000000 263.300769 267.000000 264.536923 267.000000 265.773077 267.000000 267.009231 267.000000 268.245385 267.000000 269.481538 267.000000 270.717692 267.000000 271.953846 267.000000 273.190000 267.000000 274.426154 267.000000 275.662308 267.000000 276.898462 267.000000 278.134615 267.000000 279.370769 267.000000 280.606923 267.000000 281.843077 267.000000 283.079231 267.000000 284.315385 267.000000 285.551538 267.000000 286.787692 267.000000 288.023846 267.000000 289.260000 267.000000 290.496154 267.000000 291.732308 267.000000 292.968462 267.000000 294.204615 267.000000 295.440769 267.000000 296.676923 267.000000 297.913077 267.000000 299.149231 267.000000 300.385385 267.000000 301.621538 267.000000 302.857692 267.000000 304.093846 267.000000 305.330000 267.000000 306.566154 267.000000 307.802308 267.000000 309.038462 267.000000 310.274615 267.000000 311.510769 267.000000 312.746923 267.000000 313.983077 267.000000 315.219231 267.000000 316.455385 267.000000 317.691538 267.000000 318.927692 267.000000 320.163846 267.000000 321.400000 267.000000 322.636154 267.000000 323.872308 267.000000 325.108462 267.000000 326.344615 267.000000 327.580769 267.000000 328.816923 267.000000 330.053077 267.000000 331.289231 267.000000 332.525385 267.000000 333.761538 267.000000 334.997692 267.000000 336.233846 267.000000 337.470000 267.000000 338.706154 267.000000 339.942308 267.000000 341.178462 267.000000 342.414615 267.000000 343.650769 267.000000 344.886923 267.000000 346.123077 267.000000 347.359231 267.000000 348.595385 267.000000 349.831538 267.000000 351.067692 267.000000 352.303846 267.000000 353.540000 267.000000 354.776154 267.000000 356.012308 267.000000 357.248462 267.000000 358.484615 267.000000 359.720769 267.000000 360.956923 267.000000 362.193077 267.000000 363.429231 267.000000 364.665385 267.000000 365.901538 267.000000 367.137692 267.000000 368.373846 267.000000 369.610000 267.000000 370.846154 267.000000 372.082308 267.000000 373.318462 267.000000 374.554615 267.000000 375.790769 267.000000 377.026923 267.000000 378.263077 267.000000 379.499231 267.000000 380.735385 267.000000 381.971538 267.000000 383.207692 267.000000 384.443846 267.000000 385.680000 267.000000 386.916154 267.000000 388.152308 267.000000 389.388462 267.000000 390.624615 267.000000 391.860769 267.000000 393.096923 267.000000 394.333077 267.000000 395.569231 267.000000 396.805385 267.000000 398.041538 267.000000 399.277692 267.000000 400.513846 267.000000 401.750000 267.000000 402.986154 267.000000 404.222308 267.000000 405.458462 267.000000 406.694615 267.000000 407.930769 267.000000 409.166923 267.000000 410.403077 267.000000 411.639231 267.000000 412.875385 267.000000 414.111538 267.000000 415.347692 267.000000 416.583846 267.000000 417.820000 267.000000 419.056154 267.000000 420.292308 267.000000 421.528462 267.000000 422.764615 267.000000 424.000769 267.000000 425.236923 267.000000 426.473077 267.000000 427.709231 267.000000 428.945385 267.000000 430.181538 267.000000 431.417692 267.000000 432.653846 267.000000 433.890000 267.000000 435.126154 267.000000 436.362308 267.000000 437.598462 267.000000 438.834615 267.000000 440.070769 267.000000 441.306923 267.000000 442.543077 267.000000 443.779231 267.000000 445.015385 267.000000 446.251538 267.000000 447.487692 267.000000 448.723846 267.000000 449.960000 267.000000 451.196154 267.000000 452.432308 267.000000 453.668462 267.000000 454.904615 267.000000 456.140769 267.000000 457.376923 267.000000 458.613077 267.000000 459.849231 267.000000 461.085385 267.000000 462.321538 267.000000 463.557692 267.000000 464.793846 267.000000 466.030000 267.000000 467.266154 267.000000 468.502308 267.000000 469.738462 267.000000 470.974615 267.000000 472.210769 267.000000 473.446923 267.000000 474.683077 267.000000 475.919231 267.000000 477.155385 267.000000 478.391538 267.000000 479.627692 267.000000 480.863846 267.000000 482.100000 267.000000 483.336154 267.000000 484.572308 267.000000 485.808462 267.000000 487.044615 267.000000 488.280769 267.000000 489.516923 267.000000 490.753077 267.000000 491.989231 267.000000 493.225385 267.000000 494.461538 267.000000 495.697692 267.000000 496.933846 267.000000 498.170000 267.000000 499.406154 267.000000 500.642308 267.000000 501.878462 267.000000 503.114615 267.000000 504.350769 267.000000 505.586923 267.000000 506.823077 267.000000 508.059231 267.000000 509.295385 267.000000 510.531538 267.000000 511.767692 267.000000 513.003846 267.000000 514.240000 267.000000 515.476154 267.000000 516.712308 267.000000 517.948462 267.000000 519.184615 267.000000 520.420769 267.000000 521.656923 267.000000 522.893077 267.000000 524.129231 267.000000 525.365385 267.000000 526.601538 267.000000 527.837692 267.000000 529.073846 267.000000 530.310000 267.000000 531.546154 267.000000 532.782308 267.000000 534.018462 267.000000 535.254615 267.000000 536.490769 267.000000 537.726923 267.000000 538.963077 267.000000 540.199231 267.000000 541.435385 267.000000 542.671538 267.000000 543.907692 267.000000 545.143846 267.000000 546.380000 267.000000 547.616154 267.000000 548.852308 267.000000 550.088462 267.000000 551.324615 267.000000 552.560769 267.000000 553.796923 267.000000 555.033077 267.000000 556.269231 267.000000 557.505385 267.000000 558.741538 267.000000 559.977692 267.000000 561.213846 267.000000 562.450000 267.000000 563.686154 267.000000 564.922308 267.000000 566.158462 267.000000 567.394615 267.000000 568.630769 267.000000 569.866923 267.000000 571.103077 267.000000 572.339231 267.000000 573.575385 267.000000 574.811538 267.000000 576.047692 267.000000 577.283846 267.000000 578.520000 267.000000 579.756154 267.000000 580.992308 267.000000 582.228462 267.000000 583.464615 267.000000 584.700769 267.000000 585.936923 267.000000 587.173077 267.000000 588.409231 267.000000 589.645385 267.000000 590.881538 267.000000 592.117692 267.000000 593.353846 267.000000 594.590000 267.000000 595.826154 267.000000 597.062308 267.000000 598.298462 267.000000 599.534615 267.000000 600.770769 267.000000 602.006923 267.000000 603.243077 267.000000 604.479231 267.000000 605.715385 267.000000 606.951538 267.000000 608.187692 267.000000 609.423846 267.000000 610.660000 267.000000 611.896154 267.000000 613.132308 267.000000 614.368462 267.000000 615.604615 267.000000 616.840769 267.000000 618.076923 267.000000 619.313077 267.000000 620.549231 267.000000 621.785385 267.000000 623.021538 267.000000 624.257692 267.000000 625.493846 267.000000 626.730000 267.000000 627.966154 267.000000 629.202308 267.000000 630.438462 267.000000" /></g></g><g class="titles"><text class="title plot_title" x="400.0" y="26">tagMac: 0x5f8d4a</text></g><g class="plot overlay" transform="translate(137, 46)"><g class="series serie-0 color-0"><g class="dots"><circle class="dot reactive tooltip-trigger" cx="12.36153846153846" cy="267.0" r="2.5" /><desc class="value">-65</desc><desc class="x ">12.36153846153846</desc><desc class="y ">267.0</desc></g><g class="dots"><circle class="dot reactive tooltip-trigger" cx="321.4" cy="267.0" r="2.5" /><desc class="value">-65</desc><desc class="x ">321.4</desc><desc class="y ">267.0</desc></g><g class="dots"><circle class="dot reactive tooltip-trigger" cx="630.4384615384615" cy="267.0" r="2.5" /><desc class="value">-65</desc><desc class="x left">630.4384615384615</desc><desc class="y left">267.0</desc></g></g></g><g class="plot text-overlay" transform="translate(137, 46)"><g class="series serie-0 color-0" /></g><g class="plot tooltip-overlay" transform="translate(137, 46)"><g class="tooltip" style="opacity: 0" transform="translate(0 0)"><rect class="tooltip-box" height="0" rx="0" ry="0" width="0" /><g class="text" /></g></g><g class="legends" transform="translate(10, 56)"><g class="legend reactive activate-serie" id="activate-serie-0"><rect class="color-0 reactive" height="12" width="12" x="0.0" y="1.0" /><text x="17.0" y="11.2">0b3312e6</text></g></g><g class="legends" transform="translate(790, 56)" /></g></svg>