<?xml version='1.0' encoding='utf-8'?>
<svg xmlns:xlink="http://www.w3.org/1999/xlink" class="pygal-chart" id="chart-bdc848d7-49ed-4270-87f3-be1afd5d8689" viewBox="0 0 800 600" xmlns="http://www.w3.org/2000/svg"><!--Generated with pygal 2.4.0 (etree) ©Kozea 2012-2016 on 2019-11-21--><!--http://pygal.org--><!--http://github.com/Kozea/pygal--><defs><style type="text/css">#chart-bdc848d7-49ed-4270-87f3-be1afd5d8689{-webkit-user-select:none;-webkit-font-smoothing:antialiased;font-family:Consolas,"Liberation Mono",Menlo,Courier,monospace}#chart-bdc848d7-49ed-4270-87f3-be1afd5d8689 .title{font-family:Consolas,"Liberation Mono",Menlo,Courier,monospace;font-size:16px}#chart-bdc848d7-49ed-4270-87f3-be1afd5d8689 .legends .legend text{font-family:Consolas,"Liberation Mono",Menlo,Courier,monospace;font-size:14px}#chart-bdc848d7-49ed-4270-87f3-be1afd5d8689 .axis text{font-family:Consolas,"Liberation Mono",Menlo,Courier,monospace;font-size:10px}#chart-bdc848d7-49ed-4270-87f3-be1afd5d8689 .axis text.major{font-family:Consolas,"Liberation Mono",Menlo,Courier,monospace;font-size:10px}#chart-bdc848d7-49ed-4270-87f3-be1afd5d8689 .text-overlay text.value{font-family:Consolas,"Liberation Mono",Menlo,Courier,monospace;font-size:16px}#chart-bdc848d7-49ed-4270-87f3-be1afd5d8689 .text-overlay text.label{font-family:Consolas,"Liberation Mono",Menlo,Courier,monospace;font-size:10px}#chart-bdc848d7-49ed-4270-87f3-be1afd5d8689 .tooltip{font-family:Consolas,"Liberation Mono",Menlo,Courier,monospace;font-size:14px}#chart-bdc848d7-49ed-4270-87f3-be1afd5d8689 text.no_data{font-family:Consolas,"Liberation Mono",Menlo,Courier,monospace;font-size:64px}
#chart-bdc848d7-49ed-4270-87f3-be1afd5d8689{background-color:rgba(249,249,249,1)}#chart-bdc848d7-49ed-4270-87f3-be1afd5d8689 path,#chart-bdc848d7-49ed-4270-87f3-be1afd5d8689 line,#chart-bdc848d7-49ed-4270-87f3-be1afd5d8689 rect,#chart-bdc848d7-49ed-4270-87f3-be1afd5d8689 circle{-webkit-transition:150ms;-moz-transition:150ms;transition:150ms}#chart-bdc848d7-49ed-4270-87f3-be1afd5d8689 .graph &gt; .background{fill:rgba(249,249,249,1)}#chart-bdc848d7-49ed-4270-87f3-be1afd5d8689 .plot &gt; .background{fill:rgba(255,255,255,1)}#chart-bdc848d7-49ed-4270-87f3-be1afd5d8689 .graph{fill:rgba(0,0,0,.87)}#chart-bdc848d7-49ed-4270-87f3-be1afd5d8689 text.no_data{fill:rgba(0,0,0,1)}#chart-bdc848d7-49ed-4270-87f3-be1afd5d8689 .title{fill:rgba(0,0,0,1)}#chart-bdc848d7-49ed-4270-87f3-be1afd5d8689 .legends .legend text{fill:rgba(0,0,0,.87)}#chart-bdc848d7-49ed-4270-87f3-be1afd5d8689 .legends .legend:hover text{fill:rgba(0,0,0,1)}#chart-bdc848d7-49ed-4270-87f3-be1afd5d8689 .axis .line{stroke:rgba(0,0,0,1)}#chart-bdc848d7-49ed-4270-87f3-be1afd5d8689 .axis .guide.line{stroke:rgba(0,0,0,.54)}#chart-bdc848d7-49ed-4270-87f3-be1afd5d8689 .axis .major.line{stroke:rgba(0,0,0,.87)}#chart-bdc848d7-49ed-4270-87f3-be1afd5d8689 .axis text.major{fill:rgba(0,0,0,1)}#chart-bdc848d7-49ed-4270-87f3-be1afd5d8689 .axis.y .guides:hover .guide.line,#chart-bdc848d7-49ed-4270-87f3-be1afd5d8689 .line-graph .axis.x .guides:hover .guide.line,#chart-bdc848d7-49ed-4270-87f3-be1afd5d8689 .stackedline-graph .axis.x .guides:hover .guide.line,#chart-bdc848d7-49ed-4270-87f3-be1afd5d8689 .xy-graph .axis.x .guides:hover .guide.line{stroke:rgba(0,0,0,1)}#chart-bdc848d7-49ed-4270-87f3-be1afd5d8689 .axis .guides:hover text{fill:rgba(0,0,0,1)}#chart-bdc848d7-49ed-4270-87f3-be1afd5d8689 .reactive{fill-opacity:.7;stroke-opacity:.8}#chart-bdc848d7-49ed-4270-87f3-be1afd5d8689 .ci{stroke:rgba(0,0,0,.87)}#chart-bdc848d7-49ed-4270-87f3-be1afd5d8689 .reactive.active,#chart-bdc848d7-49ed-4270-87f3-be1afd5d8689 .active .reactive{fill-opacity:.8;stroke-opacity:.9;stroke-width:4}#chart-bdc848d7-49ed-4270-87f3-be1afd5d8689 .ci .reactive.active{stroke-width:1.5}#chart-bdc848d7-49ed-4270-87f3-be1afd5d8689 .series text{fill:rgba(0,0,0,1)}#chart-bdc848d7-49ed-4270-87f3-be1afd5d8689 .tooltip rect{fill:rgba(255,255,255,1);stroke:rgba(0,0,0,1);-webkit-transition:opacity 150ms;-moz-transition:opacity 150ms;transition:opacity 150ms}#chart-bdc848d7-49ed-4270-87f3-be1afd5d8689 .tooltip .label{fill:rgba(0,0,0,.87)}#chart-bdc848d7-49ed-4270-87f3-be1afd5d8689 .tooltip .label{fill:rgba(0,0,0,.87)}#chart-bdc848d7-49ed-4270-87f3-be1afd5d8689 .tooltip .legend{font-size:.8em;fill:rgba(0,0,0,.54)}#chart-bdc848d7-49ed-4270-87f3-be1afd5d8689 .tooltip .x_label{font-size:.6em;fill:rgba(0,0,0,1)}#chart-bdc848d7-49ed-4270-87f3-be1afd5d8689 .tooltip .xlink{font-size:.5em;text-decoration:underline}#chart-bdc848d7-49ed-4270-87f3-be1afd5d8689 .tooltip .value{font-size:1.5em}#chart-bdc848d7-49ed-4270-87f3-be1afd5d8689 .bound{font-size:.5em}#chart-bdc848d7-49ed-4270-87f3-be1afd5d8689 .max-value{font-size:.75em;fill:rgba(0,0,0,.54)}#chart-bdc848d7-49ed-4270-87f3-be1afd5d8689 .map-element{fill:rgba(255,255,255,1);stroke:rgba(0,0,0,.54) !important}#chart-bdc848d7-49ed-4270-87f3-be1afd5d8689 .map-element .reactive{fill-opacity:inherit;stroke-opacity:inherit}#chart-bdc848d7-49ed-4270-87f3-be1afd5d8689 .color-0,#chart-bdc848d7-49ed-4270-87f3-be1afd5d8689 .color-0 a:visited{stroke:#F44336;fill:#F44336}#chart-bdc848d7-49ed-4270-87f3-be1afd5d8689 .color-1,#chart-bdc848d7-49ed-4270-87f3-be1afd5d8689 .color-1 a:visited{stroke:#3F51B5;fill:#3F51B5}#chart-bdc848d7-49ed-4270-87f3-be1afd5d8689 .color-2,#chart-bdc848d7-49ed-4270-87f3-be1afd5d8689 .color-2 a:visited{stroke:#009688;fill:#009688}#chart-bdc848d7-49ed-4270-87f3-be1afd5d8689 .color-3,#chart-bdc848d7-49ed-4270-87f3-be1afd5d8689 .color-3 a:visited{stroke:#FFC107;fill:#FFC107}#chart-bdc848d7-49ed-4270-87f3-be1afd5d8689 .text-overlay .color-0 text{fill:black}#chart-bdc848d7-49ed-4270-87f3-be1afd5d8689 .text-overlay .color-1 text{fill:black}#chart-bdc848d7-49ed-4270-87f3-be1afd5d8689 .text-overlay .color-2 text{fill:black}#chart-bdc848d7-49ed-4270-87f3-be1afd5d8689 .text-overlay .color-3 text{fill:black}
#chart-bdc848d7-49ed-4270-87f3-be1afd5d8689 text.no_data{text-anchor:middle}#chart-bdc848d7-49ed-4270-87f3-be1afd5d8689 .guide.line{fill:none}#chart-bdc848d7-49ed-4270-87f3-be1afd5d8689 .centered{text-anchor:middle}#chart-bdc848d7-49ed-4270-87f3-be1afd5d8689 .title{text-anchor:middle}#chart-bdc848d7-49ed-4270-87f3-be1afd5d8689 .legends .legend text{fill-opacity:1}#chart-bdc848d7-49ed-4270-87f3-be1afd5d8689 .axis.x text{text-anchor:middle}#chart-bdc848d7-49ed-4270-87f3-be1afd5d8689 .axis.x:not(.web) text[transform]{text-anchor:start}#chart-bdc848d7-49ed-4270-87f3-be1afd5d8689 .axis.x:not(.web) text[transform].backwards{text-anchor:end}#chart-bdc848d7-49ed-4270-87f3-be1afd5d8689 .axis.y text{text-anchor:end}#chart-bdc848d7-49ed-4270-87f3-be1afd5d8689 .axis.y text[transform].backwards{text-anchor:start}#chart-bdc848d7-49ed-4270-87f3-be1afd5d8689 .axis.y2 text{text-anchor:start}#chart-bdc848d7-49ed-4270-87f3-be1afd5d8689 .axis.y2 text[transform].backwards{text-anchor:end}#chart-bdc848d7-49ed-4270-87f3-be1afd5d8689 .axis .guide.line{stroke-dasharray:4,4}#chart-bdc848d7-49ed-4270-87f3-be1afd5d8689 .axis .major.guide.line{stroke-dasharray:6,6}#chart-bdc848d7-49ed-4270-87f3-be1afd5d8689 .horizontal .axis.y .guide.line,#chart-bdc848d7-49ed-4270-87f3-be1afd5d8689 .horizontal .axis.y2 .guide.line,#chart-bdc848d7-49ed-4270-87f3-be1afd5d8689 .vertical .axis.x .guide.line{opacity:0}#chart-bdc848d7-49ed-4270-87f3-be1afd5d8689 .horizontal .axis.always_show .guide.line,#chart-bdc848d7-49ed-4270-87f3-be1afd5d8689 .vertical .axis.always_show .guide.line{opacity:1 !important}#chart-bdc848d7-49ed-4270-87f3-be1afd5d8689 .axis.y .guides:hover .guide.line,#chart-bdc848d7-49ed-4270-87f3-be1afd5d8689 .axis.y2 .guides:hover .guide.line,#chart-bdc848d7-49ed-4270-87f3-be1afd5d8689 .axis.x .guides:hover .guide.line{opacity:1}#chart-bdc848d7-49ed-4270-87f3-be1afd5d8689 .axis .guides:hover text{opacity:1}#chart-bdc848d7-49ed-4270-87f3-be1afd5d8689 .nofill{fill:none}#chart-bdc848d7-49ed-4270-87f3-be1afd5d8689 .subtle-fill{fill-opacity:.2}#chart-bdc848d7-49ed-4270-87f3-be1afd5d8689 .dot{stroke-width:1px;fill-opacity:1}#chart-bdc848d7-49ed-4270-87f3-be1afd5d8689 .dot.active{stroke-width:5px}#chart-bdc848d7-49ed-4270-87f3-be1afd5d8689 .dot.negative{fill:transparent}#chart-bdc848d7-49ed-4270-87f3-be1afd5d8689 text,#chart-bdc848d7-49ed-4270-87f3-be1afd5d8689 tspan{stroke:none !important}#chart-bdc848d7-49ed-4270-87f3-be1afd5d8689 .series text.active{opacity:1}#chart-bdc848d7-49ed-4270-87f3-be1afd5d8689 .tooltip rect{fill-opacity:.95;stroke-width:.5}#chart-bdc848d7-49ed-4270-87f3-be1afd5d8689 .tooltip text{fill-opacity:1}#chart-bdc848d7-49ed-4270-87f3-be1afd5d8689 .showable{visibility:hidden}#chart-bdc848d7-49ed-4270-87f3-be1afd5d8689 .showable.shown{visibility:visible}#chart-bdc848d7-49ed-4270-87f3-be1afd5d8689 .gauge-background{fill:rgba(229,229,229,1);stroke:none}#chart-bdc848d7-49ed-4270-87f3-be1afd5d8689 .bg-lines{stroke:rgba(249,249,249,1);stroke-width:2px}</style><script type="text/javascript">window.pygal = window.pygal || {};window.pygal.config = window.pygal.config || {};window.pygal.config['bdc848d7-49ed-4270-87f3-be1afd5d8689'] = {"allow_interruptions": false, "box_mode": "extremes", "classes": ["pygal-chart"], "css": ["file://style.css", "file://graph.css"], "defs": [], "disable_xml_declaration": false, "dots_size": 2.5, "dynamic_print_values": false, "explicit_size": false, "fill": false, "force_uri_protocol": "https", "formatter": null, "half_pie": false, "height": 600, "include_x_axis": false, "inner_radius": 0, "interpolate": "cubic", "interpolation_parameters": {}, "interpolation_precision": 250, "inverse_y_axis": false, "js": ["//kozea.github.io/pygal.js/2.0.x/pygal-tooltips.min.js"], "legend_at_bottom": false, "legend_at_bottom_columns": null, "legend_box_size": 12, "logarithmic": false, "margin": 20, "margin_bottom": null, "margin_left": null, "margin_right": null, "margin_top": null, "max_scale": 16, "min_scale": 4, "missing_value_fill_truncation": "x", "no_data_text": "No data", "no_prefix": false, "order_min": null, "pretty_print": false, "print_labels": true, "print_values": false, "print_values_position": "center", "print_zeroes": true, "range": null, "rounded_bars": null, "secondary_range": null, "show_dots": true, "show_legend": true, "show_minor_x_labels": true, "show_minor_y_labels": true, "show_only_major_dots": false, "show_x_guides": false, "show_x_labels": true, "show_y_guides": true, "show_y_labels": true, "spacing": 10, "stack_from_top": false, "strict": false, "stroke": true, "stroke_style": null, "style": {"background": "rgba(249, 249, 249, 1)", "ci_colors": [], "colors": ["#F44336", "#3F51B5", "#009688", "#FFC107", "#FF5722", "#9C27B0", "#03A9F4", "#8BC34A", "#FF9800", "#E91E63", "#2196F3", "#4CAF50", "#FFEB3B", "#673AB7", "#00BCD4", "#CDDC39", "#9E9E9E", "#607D8B"], "font_family": "Consolas, \"Liberation Mono\", Menlo, Courier, monospace", "foreground": "rgba(0, 0, 0, .87)", "foreground_strong": "rgba(0, 0, 0, 1)", "foreground_subtle": "rgba(0, 0, 0, .54)", "guide_stroke_dasharray": "4,4", "label_font_family": "Consolas, \"Liberation Mono\", Menlo, Courier, monospace", "label_font_size": 10, "legend_font_family": "Consolas, \"Liberation Mono\", Menlo, Courier, monospace", "legend_font_size": 14, "major_guide_stroke_dasharray": "6,6", "major_label_font_family": "Consolas, \"Liberation Mono\", Menlo, Courier, monospace", "major_label_font_size": 10, "no_data_font_family": "Consolas, \"Liberation Mono\", Menlo, Courier, monospace", "no_data_font_size": 64, "opacity": ".7", "opacity_hover": ".8", "plot_background": "rgba(255, 255, 255, 1)", "stroke_opacity": ".8", "stroke_opacity_hover": ".9", "title_font_family": "Consolas, \"Liberation Mono\", Menlo, Courier, monospace", "title_font_size": 16, "tooltip_font_family": "Consolas, \"Liberation Mono\", Menlo, Courier, monospace", "tooltip_font_size": 14, "transition": "150ms", "value_background": "rgba(229, 229, 229, 1)", "value_colors": [], "value_font_family": "Consolas, \"Liberation Mono\", Menlo, Courier, monospace", "value_font_size": 16, "value_label_font_family": "Consolas, \"Liberation Mono\", Menlo, Courier, monospace", "value_label_font_size": 10}, "title": "tagMac: 0x5f8d4f", "tooltip_border_radius": 0, "tooltip_fancy_mode": true, "truncate_label": null, "truncate_legend": null, "width": 800, "x_label_rotation": 0, "x_labels": null, "x_labels_major": null, "x_labels_major_count": null, "x_labels_major_every": null, "x_title": null, "xrange": null, "y_label_rotation": 0, "y_labels": null, "y_labels_major": null, "y_labels_major_count": null, "y_labels_major_every": null, "y_title": null, "zero": 0, "legends": ["1fc6a334", "0b3312e6", "19243e66", "eec50c22"]}</script><script type="text/javascript" xlink:href="https://kozea.github.io/pygal.js/2.0.x/pygal-tooltips.min.js" /></defs><title>tagMac: 0x5f8d4f</title><g class="graph line-graph vertical"><rect class="background" height="600" width="800" x="0" y="0" /><g class="plot" transform="translate(137, 46)"><rect class="background" height="534" width="642.8" x="0" y="0" /><g class="axis y always_show"><path class="line" d="M0.000000 534.000000 h642.800000" /><g class="guides"><path class="major guide line" d="M0.000000 523.730769 h642.800000" /><text class="major" x="-5" y="527.2307692307699">-65</text><title>-65</title></g><g class="guides"><path class="guide line" d="M0.000000 421.038462 h642.800000" /><text class="" x="-5" y="424.53846153846206">-64</text><title>-64</title></g><g class="guides"><path class="guide line" d="M0.000000 318.346154 h642.800000" /><text class="" x="-5" y="321.84615384615427">-63</text><title>-63</title></g><g class="guides"><path class="guide line" d="M0.000000 215.653846 h642.800000" /><text class="" x="-5" y="219.15384615384647">-62</text><title>-62</title></g><g class="guides"><path class="guide line" d="M0.000000 112.961538 h642.800000" /><text class="" x="-5" y="116.46153846153874">-61</text><title>-61</title></g><g class="guides"><path class="major guide line" d="M0.000000 10.269231 h642.800000" /><text class="major" x="-5" y="13.769230769230944">-60</text><title>-60</title></g></g><g class="series serie-0 color-0"><path class="line reactive nofill" d="M12.361538 523.730769 L13.597692 523.730769 14.833846 523.730769 16.070000 523.730769 17.306154 523.730769 18.542308 523.730769 19.778462 523.730769 21.014615 523.730769 22.250769 523.730769 23.486923 523.730769 24.723077 523.730769 25.959231 523.730769 27.195385 523.730769 28.431538 523.730769 29.667692 523.730769 30.903846 523.730769 32.140000 523.730769 33.376154 523.730769 34.612308 523.730769 35.848462 523.730769 37.084615 523.730769 38.320769 523.730769 39.556923 523.730769 40.793077 523.730769 42.029231 523.730769 43.265385 523.730769 44.501538 523.730769 45.737692 523.730769 46.973846 523.730769 48.210000 523.730769 49.446154 523.730769 50.682308 523.730769 51.918462 523.730769 53.154615 523.730769 54.390769 523.730769 55.626923 523.730769 56.863077 523.730769 58.099231 523.730769 59.335385 523.730769 60.571538 523.730769 61.807692 523.730769 63.043846 523.730769 64.280000 523.730769 65.516154 523.730769 66.752308 523.730769 67.988462 523.730769 69.224615 523.730769 70.460769 523.730769 71.696923 523.730769 72.933077 523.730769 74.169231 523.730769 75.405385 523.730769 76.641538 523.730769 77.877692 523.730769 79.113846 523.730769 80.350000 523.730769 81.586154 523.730769 82.822308 523.730769 84.058462 523.730769 85.294615 523.730769 86.530769 523.730769 87.766923 523.730769 89.003077 523.730769 90.239231 523.730769 91.475385 523.730769 92.711538 523.730769 93.947692 523.730769 95.183846 523.730769 96.420000 523.730769 97.656154 523.730769 98.892308 523.730769 100.128462 523.730769 101.364615 523.730769 102.600769 523.730769 103.836923 523.730769 105.073077 523.730769 106.309231 523.730769 107.545385 523.730769 108.781538 523.730769 110.017692 523.730769 111.253846 523.730769 112.490000 523.730769 113.726154 523.730769 114.962308 523.730769 116.198462 523.730769 117.434615 523.730769 118.670769 523.730769 119.906923 523.730769 121.143077 523.730769 122.379231 523.730769 123.615385 523.730769 124.851538 523.730769 126.087692 523.730769 127.323846 523.730769 128.560000 523.730769 129.796154 523.730769 131.032308 523.730769 132.268462 523.730769 133.504615 523.730769 134.740769 523.730769 135.976923 523.730769 137.213077 523.730769 138.449231 523.730769 139.685385 523.730769 140.921538 523.730769 142.157692 523.730769 143.393846 523.730769 144.630000 523.730769 145.866154 523.730769 147.102308 523.730769 148.338462 523.730769 149.574615 523.730769 150.810769 523.730769 152.046923 523.730769 153.283077 523.730769 154.519231 523.730769 155.755385 523.730769 156.991538 523.730769 158.227692 523.730769 159.463846 523.730769 160.700000 523.730769 161.936154 523.730769 163.172308 523.730769 164.408462 523.730769 165.644615 523.730769 166.880769 523.730769 168.116923 523.730769 169.353077 523.730769 170.589231 523.730769 171.825385 523.730769 173.061538 523.730769 174.297692 523.730769 175.533846 523.730769 176.770000 523.730769 178.006154 523.730769 179.242308 523.730769 180.478462 523.730769 181.714615 523.730769 182.950769 523.730769 184.186923 523.730769 185.423077 523.730769 186.659231 523.730769 187.895385 523.730769 189.131538 523.730769 190.367692 523.730769 191.603846 523.730769 192.840000 523.730769 194.076154 523.730769 195.312308 523.730769 196.548462 523.730769 197.784615 523.730769 199.020769 523.730769 200.256923 523.730769 201.493077 523.730769 202.729231 523.730769 203.965385 523.730769 205.201538 523.730769 206.437692 523.730769 207.673846 523.730769 208.910000 523.730769 210.146154 523.730769 211.382308 523.730769 212.618462 523.730769 213.854615 523.730769 215.090769 523.730769 216.326923 523.730769 217.563077 523.730769 218.799231 523.730769 220.035385 523.730769 221.271538 523.730769 222.507692 523.730769 223.743846 523.730769 224.980000 523.730769 226.216154 523.730769 227.452308 523.730769 228.688462 523.730769 229.924615 523.730769 231.160769 523.730769 232.396923 523.730769 233.633077 523.730769 234.869231 523.730769 236.105385 523.730769 237.341538 523.730769 238.577692 523.730769 239.813846 523.730769 241.050000 523.730769 242.286154 523.730769 243.522308 523.730769 244.758462 523.730769 245.994615 523.730769 247.230769 523.730769 248.466923 523.730769 249.703077 523.730769 250.939231 523.730769 252.175385 523.730769 253.411538 523.730769 254.647692 523.730769 255.883846 523.730769 257.120000 523.730769 258.356154 523.730769 259.592308 523.730769 260.828462 523.730769 262.064615 523.730769 263.300769 523.730769 264.536923 523.730769 265.773077 523.730769 267.009231 523.730769 268.245385 523.730769 269.481538 523.730769 270.717692 523.730769 271.953846 523.730769 273.190000 523.730769 274.426154 523.730769 275.662308 523.730769 276.898462 523.730769 278.134615 523.730769 279.370769 523.730769 280.606923 523.730769 281.843077 523.730769 283.079231 523.730769 284.315385 523.730769 285.551538 523.730769 286.787692 523.730769 288.023846 523.730769 289.260000 523.730769 290.496154 523.730769 291.732308 523.730769 292.968462 523.730769 294.204615 523.730769 295.440769 523.730769 296.676923 523.730769 297.913077 523.730769 299.149231 523.730769 300.385385 523.730769 301.621538 523.730769 302.857692 523.730769 304.093846 523.730769 305.330000 523.730769 306.566154 523.730769 307.802308 523.730769 309.038462 523.730769 310.274615 523.730769 311.510769 523.730769 312.746923 523.730769 313.983077 523.730769 315.219231 523.730769 316.455385 523.730769 317.691538 523.730769 318.927692 523.730769 320.163846 523.730769 321.400000 523.730769 322.636154 523.730769 323.872308 523.730769 325.108462 523.730769 326.344615 523.730769 327.580769 523.730769 328.816923 523.730769 330.053077 523.730769 331.289231 523.730769 332.525385 523.730769 333.761538 523.730769 334.997692 523.730769 336.233846 523.730769 337.470000 523.730769 338.706154 523.730769 339.942308 523.730769 341.178462 523.730769 342.414615 523.730769 343.650769 523.730769 344.886923 523.730769 346.123077 523.730769 347.359231 523.730769 348.595385 523.730769 349.831538 523.730769 351.067692 523.730769 352.303846 523.730769 353.540000 523.730769 354.776154 523.730769 356.012308 523.730769 357.248462 523.730769 358.484615 523.730769 359.720769 523.730769 360.956923 523.730769 362.193077 523.730769 363.429231 523.730769 364.665385 523.730769 365.901538 523.730769 367.137692 523.730769 368.373846 523.730769 369.610000 523.730769 370.846154 523.730769 372.082308 523.730769 373.318462 523.730769 374.554615 523.730769 375.790769 523.730769 377.026923 523.730769 378.263077 523.730769 379.499231 523.730769 380.735385 523.730769 381.971538 523.730769 383.207692 523.730769 384.443846 523.730769 385.680000 523.730769 386.916154 523.730769 388.152308 523.730769 389.388462 523.730769 390.624615 523.730769 391.860769 523.730769 393.096923 523.730769 394.333077 523.730769 395.569231 523.730769 396.805385 523.730769 398.041538 523.730769 399.277692 523.730769 400.513846 523.730769 401.750000 523.730769 402.986154 523.730769 404.222308 523.730769 405.458462 523.730769 406.694615 523.730769 407.930769 523.730769 409.166923 523.730769 410.403077 523.730769 411.639231 523.730769 412.875385 523.730769 414.111538 523.730769 415.347692 523.730769 416.583846 523.730769 417.820000 523.730769 419.056154 523.730769 420.292308 523.730769 421.528462 523.730769 422.764615 523.730769 424.000769 523.730769 425.236923 523.730769 426.473077 523.730769 427.709231 523.730769 428.945385 523.730769 430.181538 523.730769 431.417692 523.730769 432.653846 523.730769 433.890000 523.730769 435.126154 523.730769 436.362308 523.730769 437.598462 523.730769 438.834615 523.730769 440.070769 523.730769 441.306923 523.730769 442.543077 523.730769 443.779231 523.730769 445.015385 523.730769 446.251538 523.730769 447.487692 523.730769 448.723846 523.730769 449.960000 523.730769 451.196154 523.730769 452.432308 523.730769 453.668462 523.730769 454.904615 523.730769 456.140769 523.730769 457.376923 523.730769 458.613077 523.730769 459.849231 523.730769 461.085385 523.730769 462.321538 523.730769 463.557692 523.730769 464.793846 523.730769 466.030000 523.730769 467.266154 523.730769 468.502308 523.730769 469.738462 523.730769 470.974615 523.730769 472.210769 523.730769 473.446923 523.730769 474.683077 523.730769 475.919231 523.730769 477.155385 523.730769 478.391538 523.730769 479.627692 523.730769 480.863846 523.730769 482.100000 523.730769 483.336154 523.730769 484.572308 523.730769 485.808462 523.730769 487.044615 523.730769 488.280769 523.730769 489.516923 523.730769 490.753077 523.730769 491.989231 523.730769 493.225385 523.730769 494.461538 523.730769 495.697692 523.730769 496.933846 523.730769 498.170000 523.730769 499.406154 523.730769 500.642308 523.730769 501.878462 523.730769 503.114615 523.730769 504.350769 523.730769 505.586923 523.730769 506.823077 523.730769 508.059231 523.730769 509.295385 523.730769 510.531538 523.730769 511.767692 523.730769 513.003846 523.730769 514.240000 523.730769 515.476154 523.730769 516.712308 523.730769 517.948462 523.730769 519.184615 523.730769 520.420769 523.730769 521.656923 523.730769 522.893077 523.730769 524.129231 523.730769 525.365385 523.730769 526.601538 523.730769 527.837692 523.730769 529.073846 523.730769 530.310000 523.730769 531.546154 523.730769 532.782308 523.730769 534.018462 523.730769 535.254615 523.730769 536.490769 523.730769 537.726923 523.730769 538.963077 523.730769 540.199231 523.730769 541.435385 523.730769 542.671538 523.730769 543.907692 523.730769 545.143846 523.730769 546.380000 523.730769 547.616154 523.730769 548.852308 523.730769 550.088462 523.730769 551.324615 523.730769 552.560769 523.730769 553.796923 523.730769 555.033077 523.730769 556.269231 523.730769 557.505385 523.730769 558.741538 523.730769 559.977692 523.730769 561.213846 523.730769 562.450000 523.730769 563.686154 523.730769 564.922308 523.730769 566.158462 523.730769 567.394615 523.730769 568.630769 523.730769 569.866923 523.730769 571.103077 523.730769 572.339231 523.730769 573.575385 523.730769 574.811538 523.730769 576.047692 523.730769 577.283846 523.730769 578.520000 523.730769 579.756154 523.730769 580.992308 523.730769 582.228462 523.730769 583.464615 523.730769 584.700769 523.730769 585.936923 523.730769 587.173077 523.730769 588.409231 523.730769 589.645385 523.730769 590.881538 523.730769 592.117692 523.730769 593.353846 523.730769 594.590000 523.730769 595.826154 523.730769 597.062308 523.730769 598.298462 523.730769 599.534615 523.730769 600.770769 523.730769 602.006923 523.730769 603.243077 523.730769 604.479231 523.730769 605.715385 523.730769 606.951538 523.730769 608.187692 523.730769 609.423846 523.730769 610.660000 523.730769 611.896154 523.730769 613.132308 523.730769 614.368462 523.730769 615.604615 523.730769 616.840769 523.730769 618.076923 523.730769 619.313077 523.730769 620.549231 523.730769 621.785385 523.730769 623.021538 523.730769 624.257692 523.730769 625.493846 523.730769 626.730000 523.730769 627.966154 523.730769 629.202308 523.730769 630.438462 523.730769" /></g><g class="series serie-1 color-1"><path class="line reactive nofill" d="M12.361538 215.653846 L13.597692 215.243077 14.833846 214.832308 16.070000 214.421538 17.306154 214.010769 18.542308 213.600000 19.778462 213.189231 21.014615 212.778462 22.250769 212.367692 23.486923 211.956923 24.723077 211.546154 25.959231 211.135385 27.195385 210.724615 28.431538 210.313846 29.667692 209.903077 30.903846 209.492308 32.140000 209.081538 33.376154 208.670769 34.612308 208.260000 35.848462 207.849231 37.084615 207.438462 38.320769 207.027692 39.556923 206.616923 40.793077 206.206154 42.029231 205.795385 43.265385 205.384615 44.501538 204.973846 45.737692 204.563077 46.973846 204.152308 48.210000 203.741538 49.446154 203.330769 50.682308 202.920000 51.918462 202.509231 53.154615 202.098462 54.390769 201.687692 55.626923 201.276923 56.863077 200.866154 58.099231 200.455385 59.335385 200.044615 60.571538 199.633846 61.807692 199.223077 63.043846 198.812308 64.280000 198.401538 65.516154 197.990769 66.752308 197.580000 67.988462 197.169231 69.224615 196.758462 70.460769 196.347692 71.696923 195.936923 72.933077 195.526154 74.169231 195.115385 75.405385 194.704615 76.641538 194.293846 77.877692 193.883077 79.113846 193.472308 80.350000 193.061538 81.586154 192.650769 82.822308 192.240000 84.058462 191.829231 85.294615 191.418462 86.530769 191.007692 87.766923 190.596923 89.003077 190.186154 90.239231 189.775385 91.475385 189.364615 92.711538 188.953846 93.947692 188.543077 95.183846 188.132308 96.420000 187.721538 97.656154 187.310769 98.892308 186.900000 100.128462 186.489231 101.364615 186.078462 102.600769 185.667692 103.836923 185.256923 105.073077 184.846154 106.309231 184.435385 107.545385 184.024615 108.781538 183.613846 110.017692 183.203077 111.253846 182.792308 112.490000 182.381538 113.726154 181.970769 114.962308 181.560000 116.198462 181.149231 117.434615 180.738462 118.670769 180.327692 119.906923 179.916923 121.143077 179.506154 122.379231 179.095385 123.615385 178.684615 124.851538 178.273846 126.087692 177.863077 127.323846 177.452308 128.560000 177.041538 129.796154 176.630769 131.032308 176.220000 132.268462 175.809231 133.504615 175.398462 134.740769 174.987692 135.976923 174.576923 137.213077 174.166154 138.449231 173.755385 139.685385 173.344615 140.921538 172.933846 142.157692 172.523077 143.393846 172.112308 144.630000 171.701538 145.866154 171.290769 147.102308 170.880000 148.338462 170.469231 149.574615 170.058462 150.810769 169.647692 152.046923 169.236923 153.283077 168.826154 154.519231 168.415385 155.755385 168.004615 156.991538 167.593846 158.227692 167.183077 159.463846 166.772308 160.700000 166.361538 161.936154 165.950769 163.172308 165.540000 164.408462 165.129231 165.644615 164.718462 166.880769 164.307692 168.116923 163.896923 169.353077 163.486154 170.589231 163.075385 171.825385 162.664615 173.061538 162.253846 174.297692 161.843077 175.533846 161.432308 176.770000 161.021538 178.006154 160.610769 179.242308 160.200000 180.478462 159.789231 181.714615 159.378462 182.950769 158.967692 184.186923 158.556923 185.423077 158.146154 186.659231 157.735385 187.895385 157.324615 189.131538 156.913846 190.367692 156.503077 191.603846 156.092308 192.840000 155.681538 194.076154 155.270769 195.312308 154.860000 196.548462 154.449231 197.784615 154.038462 199.020769 153.627692 200.256923 153.216923 201.493077 152.806154 202.729231 152.395385 203.965385 151.984615 205.201538 151.573846 206.437692 151.163077 207.673846 150.752308 208.910000 150.341538 210.146154 149.930769 211.382308 149.520000 212.618462 149.109231 213.854615 148.698462 215.090769 148.287692 216.326923 147.876923 217.563077 147.466154 218.799231 147.055385 220.035385 146.644615 221.271538 146.233846 222.507692 145.823077 223.743846 145.412308 224.980000 145.001538 226.216154 144.590769 227.452308 144.180000 228.688462 143.769231 229.924615 143.358462 231.160769 142.947692 232.396923 142.536923 233.633077 142.126154 234.869231 141.715385 236.105385 141.304615 237.341538 140.893846 238.577692 140.483077 239.813846 140.072308 241.050000 139.661538 242.286154 139.250769 243.522308 138.840000 244.758462 138.429231 245.994615 138.018462 247.230769 137.607692 248.466923 137.196923 249.703077 136.786154 250.939231 136.375385 252.175385 135.964615 253.411538 135.553846 254.647692 135.143077 255.883846 134.732308 257.120000 134.321538 258.356154 133.910769 259.592308 133.500000 260.828462 133.089231 262.064615 132.678462 263.300769 132.267692 264.536923 131.856923 265.773077 131.446154 267.009231 131.035385 268.245385 130.624615 269.481538 130.213846 270.717692 129.803077 271.953846 129.392308 273.190000 128.981538 274.426154 128.570769 275.662308 128.160000 276.898462 127.749231 278.134615 127.338462 279.370769 126.927692 280.606923 126.516923 281.843077 126.106154 283.079231 125.695385 284.315385 125.284615 285.551538 124.873846 286.787692 124.463077 288.023846 124.052308 289.260000 123.641538 290.496154 123.230769 291.732308 122.820000 292.968462 122.409231 294.204615 121.998462 295.440769 121.587692 296.676923 121.176923 297.913077 120.766154 299.149231 120.355385 300.385385 119.944615 301.621538 119.533846 302.857692 119.123077 304.093846 118.712308 305.330000 118.301538 306.566154 117.890769 307.802308 117.480000 309.038462 117.069231 310.274615 116.658462 311.510769 116.247692 312.746923 115.836923 313.983077 115.426154 315.219231 115.015385 316.455385 114.604615 317.691538 114.193846 318.927692 113.783077 320.163846 113.372308 321.400000 112.961538 322.636154 112.550769 323.872308 112.140000 325.108462 111.729231 326.344615 111.318462 327.580769 110.907692 328.816923 110.496923 330.053077 110.086154 331.289231 109.675385 332.525385 109.264615 333.761538 108.853846 334.997692 108.443077 336.233846 108.032308 337.470000 107.621538 338.706154 107.210769 339.942308 106.800000 341.178462 106.389231 342.414615 105.978462 343.650769 105.567692 344.886923 105.156923 346.123077 104.746154 347.359231 104.335385 348.595385 103.924615 349.831538 103.513846 351.067692 103.103077 352.303846 102.692308 353.540000 102.281538 354.776154 101.870769 356.012308 101.460000 357.248462 101.049231 358.484615 100.638462 359.720769 100.227692 360.956923 99.816923 362.193077 99.406154 363.429231 98.995385 364.665385 98.584615 365.901538 98.173846 367.137692 97.763077 368.373846 97.352308 369.610000 96.941538 370.846154 96.530769 372.082308 96.120000 373.318462 95.709231 374.554615 95.298462 375.790769 94.887692 377.026923 94.476923 378.263077 94.066154 379.499231 93.655385 380.735385 93.244615 381.971538 92.833846 383.207692 92.423077 384.443846 92.012308 385.680000 91.601538 386.916154 91.190769 388.152308 90.780000 389.388462 90.369231 390.624615 89.958462 391.860769 89.547692 393.096923 89.136923 394.333077 88.726154 395.569231 88.315385 396.805385 87.904615 398.041538 87.493846 399.277692 87.083077 400.513846 86.672308 401.750000 86.261538 402.986154 85.850769 404.222308 85.440000 405.458462 85.029231 406.694615 84.618462 407.930769 84.207692 409.166923 83.796923 410.403077 83.386154 411.639231 82.975385 412.875385 82.564615 414.111538 82.153846 415.347692 81.743077 416.583846 81.332308 417.820000 80.921538 419.056154 80.510769 420.292308 80.100000 421.528462 79.689231 422.764615 79.278462 424.000769 78.867692 425.236923 78.456923 426.473077 78.046154 427.709231 77.635385 428.945385 77.224615 430.181538 76.813846 431.417692 76.403077 432.653846 75.992308 433.890000 75.581538 435.126154 75.170769 436.362308 74.760000 437.598462 74.349231 438.834615 73.938462 440.070769 73.527692 441.306923 73.116923 442.543077 72.706154 443.779231 72.295385 445.015385 71.884615 446.251538 71.473846 447.487692 71.063077 448.723846 70.652308 449.960000 70.241538 451.196154 69.830769 452.432308 69.420000 453.668462 69.009231 454.904615 68.598462 456.140769 68.187692 457.376923 67.776923 458.613077 67.366154 459.849231 66.955385 461.085385 66.544615 462.321538 66.133846 463.557692 65.723077 464.793846 65.312308 466.030000 64.901538 467.266154 64.490769 468.502308 64.080000 469.738462 63.669231 470.974615 63.258462 472.210769 62.847692 473.446923 62.436923 474.683077 62.026154 475.919231 61.615385 477.155385 61.204615 478.391538 60.793846 479.627692 60.383077 480.863846 59.972308 482.100000 59.561538 483.336154 59.150769 484.572308 58.740000 485.808462 58.329231 487.044615 57.918462 488.280769 57.507692 489.516923 57.096923 490.753077 56.686154 491.989231 56.275385 493.225385 55.864615 494.461538 55.453846 495.697692 55.043077 496.933846 54.632308 498.170000 54.221538 499.406154 53.810769 500.642308 53.400000 501.878462 52.989231 503.114615 52.578462 504.350769 52.167692 505.586923 51.756923 506.823077 51.346154 508.059231 50.935385 509.295385 50.524615 510.531538 50.113846 511.767692 49.703077 513.003846 49.292308 514.240000 48.881538 515.476154 48.470769 516.712308 48.060000 517.948462 47.649231 519.184615 47.238462 520.420769 46.827692 521.656923 46.416923 522.893077 46.006154 524.129231 45.595385 525.365385 45.184615 526.601538 44.773846 527.837692 44.363077 529.073846 43.952308 530.310000 43.541538 531.546154 43.130769 532.782308 42.720000 534.018462 42.309231 535.254615 41.898462 536.490769 41.487692 537.726923 41.076923 538.963077 40.666154 540.199231 40.255385 541.435385 39.844615 542.671538 39.433846 543.907692 39.023077 545.143846 38.612308 546.380000 38.201538 547.616154 37.790769 548.852308 37.380000 550.088462 36.969231 551.324615 36.558462 552.560769 36.147692 553.796923 35.736923 555.033077 35.326154 556.269231 34.915385 557.505385 34.504615 558.741538 34.093846 559.977692 33.683077 561.213846 33.272308 562.450000 32.861538 563.686154 32.450769 564.922308 32.040000 566.158462 31.629231 567.394615 31.218462 568.630769 30.807692 569.866923 30.396923 571.103077 29.986154 572.339231 29.575385 573.575385 29.164615 574.811538 28.753846 576.047692 28.343077 577.283846 27.932308 578.520000 27.521538 579.756154 27.110769 580.992308 26.700000 582.228462 26.289231 583.464615 25.878462 584.700769 25.467692 585.936923 25.056923 587.173077 24.646154 588.409231 24.235385 589.645385 23.824615 590.881538 23.413846 592.117692 23.003077 593.353846 22.592308 594.590000 22.181538 595.826154 21.770769 597.062308 21.360000 598.298462 20.949231 599.534615 20.538462 600.770769 20.127692 602.006923 19.716923 603.243077 19.306154 604.479231 18.895385 605.715385 18.484615 606.951538 18.073846 608.187692 17.663077 609.423846 17.252308 610.660000 16.841538 611.896154 16.430769 613.132308 16.020000 614.368462 15.609231 615.604615 15.198462 616.840769 14.787692 618.076923 14.376923 619.313077 13.966154 620.549231 13.555385 621.785385 13.144615 623.021538 12.733846 624.257692 12.323077 625.493846 11.912308 626.730000 11.501538 627.966154 11.090769 629.202308 10.680000 630.438462 10.269231" /></g><g class="series serie-2 color-2"><path class="line reactive nofill" d="M12.361538 523.730769 L13.597692 523.730769 14.833846 523.730769 16.070000 523.730769 17.306154 523.730769 18.542308 523.730769 19.778462 523.730769 21.014615 523.730769 22.250769 523.730769 23.486923 523.730769 24.723077 523.730769 25.959231 523.730769 27.195385 523.730769 28.431538 523.730769 29.667692 523.730769 30.903846 523.730769 32.140000 523.730769 33.376154 523.730769 34.612308 523.730769 35.848462 523.730769 37.084615 523.730769 38.320769 523.730769 39.556923 523.730769 40.793077 523.730769 42.029231 523.730769 43.265385 523.730769 44.501538 523.730769 45.737692 523.730769 46.973846 523.730769 48.210000 523.730769 49.446154 523.730769 50.682308 523.730769 51.918462 523.730769 53.154615 523.730769 54.390769 523.730769 55.626923 523.730769 56.863077 523.730769 58.099231 523.730769 59.335385 523.730769 60.571538 523.730769 61.807692 523.730769 63.043846 523.730769 64.280000 523.730769 65.516154 523.730769 66.752308 523.730769 67.988462 523.730769 69.224615 523.730769 70.460769 523.730769 71.696923 523.730769 72.933077 523.730769 74.169231 523.730769 75.405385 523.730769 76.641538 523.730769 77.877692 523.730769 79.113846 523.730769 80.350000 523.730769 81.586154 523.730769 82.822308 523.730769 84.058462 523.730769 85.294615 523.730769 86.530769 523.730769 87.766923 523.730769 89.003077 523.730769 90.239231 523.730769 91.475385 523.730769 92.711538 523.730769 93.947692 523.730769 95.183846 523.730769 96.420000 523.730769 97.656154 523.730769 98.892308 523.730769 100.128462 523.730769 101.364615 523.730769 102.600769 523.730769 103.836923 523.730769 105.073077 523.730769 106.309231 523.730769 107.545385 523.730769 108.781538 523.730769 110.017692 523.730769 111.253846 523.730769 112.490000 523.730769 113.726154 523.730769 114.962308 523.730769 116.198462 523.730769 117.434615 523.730769 118.670769 523.730769 119.906923 523.730769 121.143077 523.730769 122.379231 523.730769 123.615385 523.730769 124.851538 523.730769 126.087692 523.730769 127.323846 523.730769 128.560000 523.730769 129.796154 523.730769 131.032308 523.730769 132.268462 523.730769 133.504615 523.730769 134.740769 523.730769 135.976923 523.730769 137.213077 523.730769 138.449231 523.730769 139.685385 523.730769 140.921538 523.730769 142.157692 523.730769 143.393846 523.730769 144.630000 523.730769 145.866154 523.730769 147.102308 523.730769 148.338462 523.730769 149.574615 523.730769 150.810769 523.730769 152.046923 523.730769 153.283077 523.730769 154.519231 523.730769 155.755385 523.730769 156.991538 523.730769 158.227692 523.730769 159.463846 523.730769 160.700000 523.730769 161.936154 523.730769 163.172308 523.730769 164.408462 523.730769 165.644615 523.730769 166.880769 523.730769 168.116923 523.730769 169.353077 523.730769 170.589231 523.730769 171.825385 523.730769 173.061538 523.730769 174.297692 523.730769 175.533846 523.730769 176.770000 523.730769 178.006154 523.730769 179.242308 523.730769 180.478462 523.730769 181.714615 523.730769 182.950769 523.730769 184.186923 523.730769 185.423077 523.730769 186.659231 523.730769 187.895385 523.730769 189.131538 523.730769 190.367692 523.730769 191.603846 523.730769 192.840000 523.730769 194.076154 523.730769 195.312308 523.730769 196.548462 523.730769 197.784615 523.730769 199.020769 523.730769 200.256923 523.730769 201.493077 523.730769 202.729231 523.730769 203.965385 523.730769 205.201538 523.730769 206.437692 523.730769 207.673846 523.730769 208.910000 523.730769 210.146154 523.730769 211.382308 523.730769 212.618462 523.730769 213.854615 523.730769 215.090769 523.730769 216.326923 523.730769 217.563077 523.730769 218.799231 523.730769 220.035385 523.730769 221.271538 523.730769 222.507692 523.730769 223.743846 523.730769 224.980000 523.730769 226.216154 523.730769 227.452308 523.730769 228.688462 523.730769 229.924615 523.730769 231.160769 523.730769 232.396923 523.730769 233.633077 523.730769 234.869231 523.730769 236.105385 523.730769 237.341538 523.730769 238.577692 523.730769 239.813846 523.730769 241.050000 523.730769 242.286154 523.730769 243.522308 523.730769 244.758462 523.730769 245.994615 523.730769 247.230769 523.730769 248.466923 523.730769 249.703077 523.730769 250.939231 523.730769 252.175385 523.730769 253.411538 523.730769 254.647692 523.730769 255.883846 523.730769 257.120000 523.730769 258.356154 523.730769 259.592308 523.730769 260.828462 523.730769 262.064615 523.730769 263.300769 523.730769 264.536923 523.730769 265.773077 523.730769 267.009231 523.730769 268.245385 523.730769 269.481538 523.730769 270.717692 523.730769 271.953846 523.730769 273.190000 523.730769 274.426154 523.730769 275.662308 523.730769 276.898462 523.730769 278.134615 523.730769 279.370769 523.730769 280.606923 523.730769 281.843077 523.730769 283.079231 523.730769 284.315385 523.730769 285.551538 523.730769 286.787692 523.730769 288.023846 523.730769 289.260000 523.730769 290.496154 523.730769 291.732308 523.730769 292.968462 523.730769 294.204615 523.730769 295.440769 523.730769 296.676923 523.730769 297.913077 523.730769 299.149231 523.730769 300.385385 523.730769 301.621538 523.730769 302.857692 523.730769 304.093846 523.730769 305.330000 523.730769 306.566154 523.730769 307.802308 523.730769 309.038462 523.730769 310.274615 523.730769 311.510769 523.730769 312.746923 523.730769 313.983077 523.730769 315.219231 523.730769 316.455385 523.730769 317.691538 523.730769 318.927692 523.730769 320.163846 523.730769 321.400000 523.730769 322.636154 523.730769 323.872308 523.730769 325.108462 523.730769 326.344615 523.730769 327.580769 523.730769 328.816923 523.730769 330.053077 523.730769 331.289231 523.730769 332.525385 523.730769 333.761538 523.730769 334.997692 523.730769 336.233846 523.730769 337.470000 523.730769 338.706154 523.730769 339.942308 523.730769 341.178462 523.730769 342.414615 523.730769 343.650769 523.730769 344.886923 523.730769 346.123077 523.730769 347.359231 523.730769 348.595385 523.730769 349.831538 523.730769 351.067692 523.730769 352.303846 523.730769 353.540000 523.730769 354.776154 523.730769 356.012308 523.730769 357.248462 523.730769 358.484615 523.730769 359.720769 523.730769 360.956923 523.730769 362.193077 523.730769 363.429231 523.730769 364.665385 523.730769 365.901538 523.730769 367.137692 523.730769 368.373846 523.730769 369.610000 523.730769 370.846154 523.730769 372.082308 523.730769 373.318462 523.730769 374.554615 523.730769 375.790769 523.730769 377.026923 523.730769 378.263077 523.730769 379.499231 523.730769 380.735385 523.730769 381.971538 523.730769 383.207692 523.730769 384.443846 523.730769 385.680000 523.730769 386.916154 523.730769 388.152308 523.730769 389.388462 523.730769 390.624615 523.730769 391.860769 523.730769 393.096923 523.730769 394.333077 523.730769 395.569231 523.730769 396.805385 523.730769 398.041538 523.730769 399.277692 523.730769 400.513846 523.730769 401.750000 523.730769 402.986154 523.730769 404.222308 523.730769 405.458462 523.730769 406.694615 523.730769 407.930769 523.730769 409.166923 523.730769 410.403077 523.730769 411.639231 523.730769 412.875385 523.730769 414.111538 523.730769 415.347692 523.730769 416.583846 523.730769 417.820000 523.730769 419.056154 523.730769 420.292308 523.730769 421.528462 523.730769 422.764615 523.730769 424.000769 523.730769 425.236923 523.730769 426.473077 523.730769 427.709231 523.730769 428.945385 523.730769 430.181538 523.730769 431.417692 523.730769 432.653846 523.730769 433.890000 523.730769 435.126154 523.730769 436.362308 523.730769 437.598462 523.730769 438.834615 523.730769 440.070769 523.730769 441.306923 523.730769 442.543077 523.730769 443.779231 523.730769 445.015385 523.730769 446.251538 523.730769 447.487692 523.730769 448.723846 523.730769 449.960000 523.730769 451.196154 523.730769 452.432308 523.730769 453.668462 523.730769 454.904615 523.730769 456.140769 523.730769 457.376923 523.730769 458.613077 523.730769 459.849231 523.730769 461.085385 523.730769 462.321538 523.730769 463.557692 523.730769 464.793846 523.730769 466.030000 523.730769 467.266154 523.730769 468.502308 523.730769 469.738462 523.730769 470.974615 523.730769 472.210769 523.730769 473.446923 523.730769 474.683077 523.730769 475.919231 523.730769 477.155385 523.730769 478.391538 523.730769 479.627692 523.730769 480.863846 523.730769 482.100000 523.730769 483.336154 523.730769 484.572308 523.730769 485.808462 523.730769 487.044615 523.730769 488.280769 523.730769 489.516923 523.730769 490.753077 523.730769 491.989231 523.730769 493.225385 523.730769 494.461538 523.730769 495.697692 523.730769 496.933846 523.730769 498.170000 523.730769 499.406154 523.730769 500.642308 523.730769 501.878462 523.730769 503.114615 523.730769 504.350769 523.730769 505.586923 523.730769 506.823077 523.730769 508.059231 523.730769 509.295385 523.730769 510.531538 523.730769 511.767692 523.730769 513.003846 523.730769 514.240000 523.730769 515.476154 523.730769 516.712308 523.730769 517.948462 523.730769 519.184615 523.730769 520.420769 523.730769 521.656923 523.730769 522.893077 523.730769 524.129231 523.730769 525.365385 523.730769 526.601538 523.730769 527.837692 523.730769 529.073846 523.730769 530.310000 523.730769 531.546154 523.730769 532.782308 523.730769 534.018462 523.730769 535.254615 523.730769 536.490769 523.730769 537.726923 523.730769 538.963077 523.730769 540.199231 523.730769 541.435385 523.730769 542.671538 523.730769 543.907692 523.730769 545.143846 523.730769 546.380000 523.730769 547.616154 523.730769 548.852308 523.730769 550.088462 523.730769 551.324615 523.730769 552.560769 523.730769 553.796923 523.730769 555.033077 523.730769 556.269231 523.730769 557.505385 523.730769 558.741538 523.730769 559.977692 523.730769 561.213846 523.730769 562.450000 523.730769 563.686154 523.730769 564.922308 523.730769 566.158462 523.730769 567.394615 523.730769 568.630769 523.730769 569.866923 523.730769 571.103077 523.730769 572.339231 523.730769 573.575385 523.730769 574.811538 523.730769 576.047692 523.730769 577.283846 523.730769 578.520000 523.730769 579.756154 523.730769 580.992308 523.730769 582.228462 523.730769 583.464615 523.730769 584.700769 523.730769 585.936923 523.730769 587.173077 523.730769 588.409231 523.730769 589.645385 523.730769 590.881538 523.730769 592.117692 523.730769 593.353846 523.730769 594.590000 523.730769 595.826154 523.730769 597.062308 523.730769 598.298462 523.730769 599.534615 523.730769 600.770769 523.730769 602.006923 523.730769 603.243077 523.730769 604.479231 523.730769 605.715385 523.730769 606.951538 523.730769 608.187692 523.730769 609.423846 523.730769 610.660000 523.730769 611.896154 523.730769 613.132308 523.730769 614.368462 523.730769 615.604615 523.730769 616.840769 523.730769 618.076923 523.730769 619.313077 523.730769 620.549231 523.730769 621.785385 523.730769 623.021538 523.730769 624.257692 523.730769 625.493846 523.730769 626.730000 523.730769 627.966154 523.730769 629.202308 523.730769 630.438462 523.730769" /></g><g class="series serie-3 color-3" /></g><g class="titles"><text class="title plot_title" x="400.0" y="26">tagMac: 0x5f8d4f</text></g><g class="plot overlay" transform="translate(137, 46)"><g class="series serie-0 color-0"><g class="dots"><circle class="dot reactive tooltip-trigger" cx="12.36153846153846" cy="523.7307692307699" r="2.5" /><desc class="value">-65</desc><desc class="x top">12.36153846153846</desc><desc class="y top">523.7307692307699</desc></g><g class="dots"><circle class="dot reactive tooltip-trigger" cx="321.4" cy="523.7307692307699" r="2.5" /><desc class="value">-65</desc><desc class="x top">321.4</desc><desc class="y top">523.7307692307699</desc></g><g class="dots"><circle class="dot reactive tooltip-trigger" cx="630.4384615384615" cy="523.7307692307699" r="2.5" /><desc class="value">-65</desc><desc class="x left top">630.4384615384615</desc><desc class="y left top">523.7307692307699</desc></g></g><g class="series serie-1 color-1"><g class="dots"><circle class="dot reactive tooltip-trigger" cx="12.36153846153846" cy="215.65384615384647" r="2.5" /><desc class="value">-62</desc><desc class="x ">12.36153846153846</desc><desc class="y ">215.65384615384647</desc></g><g class="dots"><circle class="dot reactive tooltip-trigger" cx="321.4" cy="112.96153846153874" r="2.5" /><desc class="value">-61</desc><desc class="x ">321.4</desc><desc class="y ">112.96153846153874</desc></g><g class="dots"><circle class="dot reactive tooltip-trigger" cx="630.4384615384615" cy="10.269230769230944" r="2.5" /><desc class="value">-60</desc><desc class="x left">630.4384615384615</desc><desc class="y left">10.269230769230944</desc></g></g><g class="series serie-2 color-2"><g class="dots"><circle class="dot reactive tooltip-trigger" cx="12.36153846153846" cy="523.7307692307699" r="2.5" /><desc class="value">-65</desc><desc class="x top">12.36153846153846</desc><desc class="y top">523.7307692307699</desc></g><g class="dots"><circle class="dot reactive tooltip-trigger" cx="321.4" cy="523.7307692307699" r="2.5" /><desc class="value">-65</desc><desc class="x top">321.4</desc><desc class="y top">523.7307692307699</desc></g><g class="dots"><circle class="dot reactive tooltip-trigger" cx="630.4384615384615" cy="523.7307692307699" r="2.5" /><desc class="value">-65</desc><desc class="x left top">630.4384615384615</desc><desc class="y left top">523.7307692307699</desc></g></g><g class="series serie-3 color-3"><g class="dots"><circle class="dot reactive tooltip-trigger" cx="12.36153846153846" cy="523.7307692307699" r="2.5" /><desc class="value">-65</desc><desc class="x top">12.36153846153846</desc><desc class="y top">523.7307692307699</desc></g></g></g><g class="plot text-overlay" transform="translate(137, 46)"><g class="series serie-0 color-0" /><g class="series serie-1 color-1" /><g class="series serie-2 color-2" /><g class="series serie-3 color-3" /></g><g class="plot tooltip-overlay" transform="translate(137, 46)"><g class="tooltip" style="opacity: 0" transform="translate(0 0)"><rect class="tooltip-box" height="0" rx="0" ry="0" width="0" /><g class="text" /></g></g><g class="legends" transform="translate(10, 56)"><g class="legend reactive activate-serie" id="activate-serie-0"><rect class="color-0 reactive" height="12" width="12" x="0.0" y="1.0" /><text x="17.0" y="11.2">1fc6a334</text></g><g class="legend reactive activate-serie" id="activate-serie-1"><rect class="color-1 reactive" height="12" width="12" x="0.0" y="22.0" /><text x="17.0" y="32.2">0b3312e6</text></g><g class="legend reactive activate-serie" id="activate-serie-2"><rect class="color-2 reactive" height="12" width="12" x="0.0" y="43.0" /><text x="17.0" y="53.2">19243e66</text></g><g class="legend reactive activate-serie" id="activate-serie-3"><rect class="color-3 reactive" height="12" width="12" x="0.0" y="64.0" /><text x="17.0" y="74.2">eec50c22</text></g></g><g class="legends" transform="translate(790, 56)" /></g></svg>