<?xml version='1.0' encoding='utf-8'?>
<svg xmlns:xlink="http://www.w3.org/1999/xlink" class="pygal-chart" id="chart-a97cf786-a016-4beb-82a2-15e282e250bb" viewBox="0 0 800 600" xmlns="http://www.w3.org/2000/svg"><!--Generated with pygal 2.4.0 (etree) ©Kozea 2012-2016 on 2019-11-21--><!--http://pygal.org--><!--http://github.com/Kozea/pygal--><defs><style type="text/css">#chart-a97cf786-a016-4beb-82a2-15e282e250bb{-webkit-user-select:none;-webkit-font-smoothing:antialiased;font-family:Consolas,"Liberation Mono",Menlo,Courier,monospace}#chart-a97cf786-a016-4beb-82a2-15e282e250bb .title{font-family:Consolas,"Liberation Mono",Menlo,Courier,monospace;font-size:16px}#chart-a97cf786-a016-4beb-82a2-15e282e250bb .legends .legend text{font-family:Consolas,"Liberation Mono",Menlo,Courier,monospace;font-size:14px}#chart-a97cf786-a016-4beb-82a2-15e282e250bb .axis text{font-family:Consolas,"Liberation Mono",Menlo,Courier,monospace;font-size:10px}#chart-a97cf786-a016-4beb-82a2-15e282e250bb .axis text.major{font-family:Consolas,"Liberation Mono",Menlo,Courier,monospace;font-size:10px}#chart-a97cf786-a016-4beb-82a2-15e282e250bb .text-overlay text.value{font-family:Consolas,"Liberation Mono",Menlo,Courier,monospace;font-size:16px}#chart-a97cf786-a016-4beb-82a2-15e282e250bb .text-overlay text.label{font-family:Consolas,"Liberation Mono",Menlo,Courier,monospace;font-size:10px}#chart-a97cf786-a016-4beb-82a2-15e282e250bb .tooltip{font-family:Consolas,"Liberation Mono",Menlo,Courier,monospace;font-size:14px}#chart-a97cf786-a016-4beb-82a2-15e282e250bb text.no_data{font-family:Consolas,"Liberation Mono",Menlo,Courier,monospace;font-size:64px}
#chart-a97cf786-a016-4beb-82a2-15e282e250bb{background-color:rgba(249,249,249,1)}#chart-a97cf786-a016-4beb-82a2-15e282e250bb path,#chart-a97cf786-a016-4beb-82a2-15e282e250bb line,#chart-a97cf786-a016-4beb-82a2-15e282e250bb rect,#chart-a97cf786-a016-4beb-82a2-15e282e250bb circle{-webkit-transition:150ms;-moz-transition:150ms;transition:150ms}#chart-a97cf786-a016-4beb-82a2-15e282e250bb .graph &gt; .background{fill:rgba(249,249,249,1)}#chart-a97cf786-a016-4beb-82a2-15e282e250bb .plot &gt; .background{fill:rgba(255,255,255,1)}#chart-a97cf786-a016-4beb-82a2-15e282e250bb .graph{fill:rgba(0,0,0,.87)}#chart-a97cf786-a016-4beb-82a2-15e282e250bb text.no_data{fill:rgba(0,0,0,1)}#chart-a97cf786-a016-4beb-82a2-15e282e250bb .title{fill:rgba(0,0,0,1)}#chart-a97cf786-a016-4beb-82a2-15e282e250bb .legends .legend text{fill:rgba(0,0,0,.87)}#chart-a97cf786-a016-4beb-82a2-15e282e250bb .legends .legend:hover text{fill:rgba(0,0,0,1)}#chart-a97cf786-a016-4beb-82a2-15e282e250bb .axis .line{stroke:rgba(0,0,0,1)}#chart-a97cf786-a016-4beb-82a2-15e282e250bb .axis .guide.line{stroke:rgba(0,0,0,.54)}#chart-a97cf786-a016-4beb-82a2-15e282e250bb .axis .major.line{stroke:rgba(0,0,0,.87)}#chart-a97cf786-a016-4beb-82a2-15e282e250bb .axis text.major{fill:rgba(0,0,0,1)}#chart-a97cf786-a016-4beb-82a2-15e282e250bb .axis.y .guides:hover .guide.line,#chart-a97cf786-a016-4beb-82a2-15e282e250bb .line-graph .axis.x .guides:hover .guide.line,#chart-a97cf786-a016-4beb-82a2-15e282e250bb .stackedline-graph .axis.x .guides:hover .guide.line,#chart-a97cf786-a016-4beb-82a2-15e282e250bb .xy-graph .axis.x .guides:hover .guide.line{stroke:rgba(0,0,0,1)}#chart-a97cf786-a016-4beb-82a2-15e282e250bb .axis .guides:hover text{fill:rgba(0,0,0,1)}#chart-a97cf786-a016-4beb-82a2-15e282e250bb .reactive{fill-opacity:.7;stroke-opacity:.8}#chart-a97cf786-a016-4beb-82a2-15e282e250bb .ci{stroke:rgba(0,0,0,.87)}#chart-a97cf786-a016-4beb-82a2-15e282e250bb .reactive.active,#chart-a97cf786-a016-4beb-82a2-15e282e250bb .active .reactive{fill-opacity:.8;stroke-opacity:.9;stroke-width:4}#chart-a97cf786-a016-4beb-82a2-15e282e250bb .ci .reactive.active{stroke-width:1.5}#chart-a97cf786-a016-4beb-82a2-15e282e250bb .series text{fill:rgba(0,0,0,1)}#chart-a97cf786-a016-4beb-82a2-15e282e250bb .tooltip rect{fill:rgba(255,255,255,1);stroke:rgba(0,0,0,1);-webkit-transition:opacity 150ms;-moz-transition:opacity 150ms;transition:opacity 150ms}#chart-a97cf786-a016-4beb-82a2-15e282e250bb .tooltip .label{fill:rgba(0,0,0,.87)}#chart-a97cf786-a016-4beb-82a2-15e282e250bb .tooltip .label{fill:rgba(0,0,0,.87)}#chart-a97cf786-a016-4beb-82a2-15e282e250bb .tooltip .legend{font-size:.8em;fill:rgba(0,0,0,.54)}#chart-a97cf786-a016-4beb-82a2-15e282e250bb .tooltip .x_label{font-size:.6em;fill:rgba(0,0,0,1)}#chart-a97cf786-a016-4beb-82a2-15e282e250bb .tooltip .xlink{font-size:.5em;text-decoration:underline}#chart-a97cf786-a016-4beb-82a2-15e282e250bb .tooltip .value{font-size:1.5em}#chart-a97cf786-a016-4beb-82a2-15e282e250bb .bound{font-size:.5em}#chart-a97cf786-a016-4beb-82a2-15e282e250bb .max-value{font-size:.75em;fill:rgba(0,0,0,.54)}#chart-a97cf786-a016-4beb-82a2-15e282e250bb .map-element{fill:rgba(255,255,255,1);stroke:rgba(0,0,0,.54) !important}#chart-a97cf786-a016-4beb-82a2-15e282e250bb .map-element .reactive{fill-opacity:inherit;stroke-opacity:inherit}#chart-a97cf786-a016-4beb-82a2-15e282e250bb .color-0,#chart-a97cf786-a016-4beb-82a2-15e282e250bb .color-0 a:visited{stroke:#F44336;fill:#F44336}#chart-a97cf786-a016-4beb-82a2-15e282e250bb .color-1,#chart-a97cf786-a016-4beb-82a2-15e282e250bb .color-1 a:visited{stroke:#3F51B5;fill:#3F51B5}#chart-a97cf786-a016-4beb-82a2-15e282e250bb .color-2,#chart-a97cf786-a016-4beb-82a2-15e282e250bb .color-2 a:visited{stroke:#009688;fill:#009688}#chart-a97cf786-a016-4beb-82a2-15e282e250bb .text-overlay .color-0 text{fill:black}#chart-a97cf786-a016-4beb-82a2-15e282e250bb .text-overlay .color-1 text{fill:black}#chart-a97cf786-a016-4beb-82a2-15e282e250bb .text-overlay .color-2 text{fill:black}
#chart-a97cf786-a016-4beb-82a2-15e282e250bb text.no_data{text-anchor:middle}#chart-a97cf786-a016-4beb-82a2-15e282e250bb .guide.line{fill:none}#chart-a97cf786-a016-4beb-82a2-15e282e250bb .centered{text-anchor:middle}#chart-a97cf786-a016-4beb-82a2-15e282e250bb .title{text-anchor:middle}#chart-a97cf786-a016-4beb-82a2-15e282e250bb .legends .legend text{fill-opacity:1}#chart-a97cf786-a016-4beb-82a2-15e282e250bb .axis.x text{text-anchor:middle}#chart-a97cf786-a016-4beb-82a2-15e282e250bb .axis.x:not(.web) text[transform]{text-anchor:start}#chart-a97cf786-a016-4beb-82a2-15e282e250bb .axis.x:not(.web) text[transform].backwards{text-anchor:end}#chart-a97cf786-a016-4beb-82a2-15e282e250bb .axis.y text{text-anchor:end}#chart-a97cf786-a016-4beb-82a2-15e282e250bb .axis.y text[transform].backwards{text-anchor:start}#chart-a97cf786-a016-4beb-82a2-15e282e250bb .axis.y2 text{text-anchor:start}#chart-a97cf786-a016-4beb-82a2-15e282e250bb .axis.y2 text[transform].backwards{text-anchor:end}#chart-a97cf786-a016-4beb-82a2-15e282e250bb .axis .guide.line{stroke-dasharray:4,4}#chart-a97cf786-a016-4beb-82a2-15e282e250bb .axis .major.guide.line{stroke-dasharray:6,6}#chart-a97cf786-a016-4beb-82a2-15e282e250bb .horizontal .axis.y .guide.line,#chart-a97cf786-a016-4beb-82a2-15e282e250bb .horizontal .axis.y2 .guide.line,#chart-a97cf786-a016-4beb-82a2-15e282e250bb .vertical .axis.x .guide.line{opacity:0}#chart-a97cf786-a016-4beb-82a2-15e282e250bb .horizontal .axis.always_show .guide.line,#chart-a97cf786-a016-4beb-82a2-15e282e250bb .vertical .axis.always_show .guide.line{opacity:1 !important}#chart-a97cf786-a016-4beb-82a2-15e282e250bb .axis.y .guides:hover .guide.line,#chart-a97cf786-a016-4beb-82a2-15e282e250bb .axis.y2 .guides:hover .guide.line,#chart-a97cf786-a016-4beb-82a2-15e282e250bb .axis.x .guides:hover .guide.line{opacity:1}#chart-a97cf786-a016-4beb-82a2-15e282e250bb .axis .guides:hover text{opacity:1}#chart-a97cf786-a016-4beb-82a2-15e282e250bb .nofill{fill:none}#chart-a97cf786-a016-4beb-82a2-15e282e250bb .subtle-fill{fill-opacity:.2}#chart-a97cf786-a016-4beb-82a2-15e282e250bb .dot{stroke-width:1px;fill-opacity:1}#chart-a97cf786-a016-4beb-82a2-15e282e250bb .dot.active{stroke-width:5px}#chart-a97cf786-a016-4beb-82a2-15e282e250bb .dot.negative{fill:transparent}#chart-a97cf786-a016-4beb-82a2-15e282e250bb text,#chart-a97cf786-a016-4beb-82a2-15e282e250bb tspan{stroke:none !important}#chart-a97cf786-a016-4beb-82a2-15e282e250bb .series text.active{opacity:1}#chart-a97cf786-a016-4beb-82a2-15e282e250bb .tooltip rect{fill-opacity:.95;stroke-width:.5}#chart-a97cf786-a016-4beb-82a2-15e282e250bb .tooltip text{fill-opacity:1}#chart-a97cf786-a016-4beb-82a2-15e282e250bb .showable{visibility:hidden}#chart-a97cf786-a016-4beb-82a2-15e282e250bb .showable.shown{visibility:visible}#chart-a97cf786-a016-4beb-82a2-15e282e250bb .gauge-background{fill:rgba(229,229,229,1);stroke:none}#chart-a97cf786-a016-4beb-82a2-15e282e250bb .bg-lines{stroke:rgba(249,249,249,1);stroke-width:2px}</style><script type="text/javascript">window.pygal = window.pygal || {};window.pygal.config = window.pygal.config || {};window.pygal.config['a97cf786-a016-4beb-82a2-15e282e250bb'] = {"allow_interruptions": false, "box_mode": "extremes", "classes": ["pygal-chart"], "css": ["file://style.css", "file://graph.css"], "defs": [], "disable_xml_declaration": false, "dots_size": 2.5, "dynamic_print_values": false, "explicit_size": false, "fill": false, "force_uri_protocol": "https", "formatter": null, "half_pie": false, "height": 600, "include_x_axis": false, "inner_radius": 0, "interpolate": "cubic", "interpolation_parameters": {}, "interpolation_precision": 250, "inverse_y_axis": false, "js": ["//kozea.github.io/pygal.js/2.0.x/pygal-tooltips.min.js"], "legend_at_bottom": false, "legend_at_bottom_columns": null, "legend_box_size": 12, "logarithmic": false, "margin": 20, "margin_bottom": null, "margin_left": null, "margin_right": null, "margin_top": null, "max_scale": 16, "min_scale": 4, "missing_value_fill_truncation": "x", "no_data_text": "No data", "no_prefix": false, "order_min": null, "pretty_print": false, "print_labels": true, "print_values": false, "print_values_position": "center", "print_zeroes": true, "range": null, "rounded_bars": null, "secondary_range": null, "show_dots": true, "show_legend": true, "show_minor_x_labels": true, "show_minor_y_labels": true, "show_only_major_dots": false, "show_x_guides": false, "show_x_labels": true, "show_y_guides": true, "show_y_labels": true, "spacing": 10, "stack_from_top": false, "strict": false, "stroke": true, "stroke_style": null, "style": {"background": "rgba(249, 249, 249, 1)", "ci_colors": [], "colors": ["#F44336", "#3F51B5", "#009688", "#FFC107", "#FF5722", "#9C27B0", "#03A9F4", "#8BC34A", "#FF9800", "#E91E63", "#2196F3", "#4CAF50", "#FFEB3B", "#673AB7", "#00BCD4", "#CDDC39", "#9E9E9E", "#607D8B"], "font_family": "Consolas, \"Liberation Mono\", Menlo, Courier, monospace", "foreground": "rgba(0, 0, 0, .87)", "foreground_strong": "rgba(0, 0, 0, 1)", "foreground_subtle": "rgba(0, 0, 0, .54)", "guide_stroke_dasharray": "4,4", "label_font_family": "Consolas, \"Liberation Mono\", Menlo, Courier, monospace", "label_font_size": 10, "legend_font_family": "Consolas, \"Liberation Mono\", Menlo, Courier, monospace", "legend_font_size": 14, "major_guide_stroke_dasharray": "6,6", "major_label_font_family": "Consolas, \"Liberation Mono\", Menlo, Courier, monospace", "major_label_font_size": 10, "no_data_font_family": "Consolas, \"Liberation Mono\", Menlo, Courier, monospace", "no_data_font_size": 64, "opacity": ".7", "opacity_hover": ".8", "plot_background": "rgba(255, 255, 255, 1)", "stroke_opacity": ".8", "stroke_opacity_hover": ".9", "title_font_family": "Consolas, \"Liberation Mono\", Menlo, Courier, monospace", "title_font_size": 16, "tooltip_font_family": "Consolas, \"Liberation Mono\", Menlo, Courier, monospace", "tooltip_font_size": 14, "transition": "150ms", "value_background": "rgba(229, 229, 229, 1)", "value_colors": [], "value_font_family": "Consolas, \"Liberation Mono\", Menlo, Courier, monospace", "value_font_size": 16, "value_label_font_family": "Consolas, \"Liberation Mono\", Menlo, Courier, monospace", "value_label_font_size": 10}, "title": "tagMac: 0x5f8d4e", "tooltip_border_radius": 0, "tooltip_fancy_mode": true, "truncate_label": null, "truncate_legend": null, "width": 800, "x_label_rotation": 0, "x_labels": null, "x_labels_major": null, "x_labels_major_count": null, "x_labels_major_every": null, "x_title": null, "xrange": null, "y_label_rotation": 0, "y_labels": null, "y_labels_major": null, "y_labels_major_count": null, "y_labels_major_every": null, "y_title": null, "zero": 0, "legends": ["eec50c22", "1fc6a334", "0b3312e6"]}</script><script type="text/javascript" xlink:href="https://kozea.github.io/pygal.js/2.0.x/pygal-tooltips.min.js" /></defs><title>tagMac: 0x5f8d4e</title><g class="graph line-graph vertical"><rect class="background" height="600" width="800" x="0" y="0" /><g class="plot" transform="translate(137, 46)"><rect class="background" height="534" width="642.8" x="0" y="0" /><g class="axis y always_show"><path class="line" d="M0.000000 534.000000 h642.800000" /><g class="guides"><path class="major guide line" d="M0.000000 523.730769 h642.800000" /><text class="major" x="-5" y="527.23076923077">-65</text><title>-65</title></g><g class="guides"><path class="guide line" d="M0.000000 395.752440 h642.800000" /><text class="" x="-5" y="399.252440225974">-64</text><title>-64</title></g><g class="guides"><path class="guide line" d="M0.000000 267.774111 h642.800000" /><text class="" x="-5" y="271.27411122117803">-63</text><title>-63</title></g><g class="guides"><path class="guide line" d="M0.000000 139.795782 h642.800000" /><text class="" x="-5" y="143.29578221638207">-62</text><title>-62</title></g><g class="guides"><path class="guide line" d="M0.000000 11.817453 h642.800000" /><text class="" x="-5" y="15.317453211586098">-61</text><title>-61</title></g></g><g class="series serie-0 color-0"><path class="line reactive nofill" d="M12.361538 523.730769 L13.597692 520.787282 14.833846 517.843881 16.070000 514.900652 17.306154 511.957680 18.542308 509.015053 19.778462 506.072856 21.014615 503.131175 22.250769 500.190095 23.486923 497.249704 24.723077 494.310087 25.959231 491.371330 27.195385 488.433519 28.431538 485.496740 29.667692 482.561079 30.903846 479.626622 32.140000 476.693454 33.376154 473.761663 34.612308 470.831334 35.848462 467.902553 37.084615 464.975406 38.320769 462.049980 39.556923 459.126359 40.793077 456.204630 42.029231 453.284879 43.265385 450.367192 44.501538 447.451655 45.737692 444.538355 46.973846 441.627376 48.210000 438.718805 49.446154 435.812729 50.682308 432.909232 51.918462 430.008402 53.154615 427.110323 54.390769 424.215083 55.626923 421.322766 56.863077 418.433460 58.099231 415.547250 59.335385 412.664221 60.571538 409.784461 61.807692 406.908055 63.043846 404.035089 64.280000 401.165649 65.516154 398.299821 66.752308 395.437691 67.988462 392.579346 69.224615 389.724870 70.460769 386.874350 71.696923 384.027872 72.933077 381.185523 74.169231 378.347387 75.405385 375.513552 76.641538 372.684103 77.877692 369.859125 79.113846 367.038706 80.350000 364.222931 81.586154 361.411886 82.822308 358.605657 84.058462 355.804330 85.294615 353.007992 86.530769 350.216727 87.766923 347.430622 89.003077 344.649764 90.239231 341.874237 91.475385 339.104129 92.711538 336.339525 93.947692 333.580511 95.183846 330.827173 96.420000 328.079597 97.656154 325.337869 98.892308 322.602075 100.128462 319.872301 101.364615 317.148634 102.600769 314.431158 103.836923 311.719961 105.073077 309.015128 106.309231 306.316745 107.545385 303.624898 108.781538 300.939673 110.017692 298.261156 111.253846 295.589433 112.490000 292.924591 113.726154 290.266714 114.962308 287.615890 116.198462 284.972204 117.434615 282.335741 118.670769 279.706589 119.906923 277.084834 121.143077 274.470560 122.379231 271.863854 123.615385 269.264803 124.851538 266.673491 126.087692 264.090006 127.323846 261.514433 128.560000 258.946858 129.796154 256.387367 131.032308 253.836047 132.268462 251.292982 133.504615 248.758260 134.740769 246.231965 135.976923 243.714185 137.213077 241.205005 138.449231 238.704512 139.685385 236.212790 140.921538 233.729926 142.157692 231.256007 143.393846 228.791118 144.630000 226.335345 145.866154 223.888774 147.102308 221.451491 148.338462 219.023582 149.574615 216.605134 150.810769 214.196232 152.046923 211.796961 153.283077 209.407409 154.519231 207.027662 155.755385 204.657804 156.991538 202.297922 158.227692 199.948103 159.463846 197.608432 160.700000 195.278995 161.936154 192.959878 163.172308 190.651168 164.408462 188.352949 165.644615 186.065309 166.880769 183.788333 168.116923 181.522107 169.353077 179.266717 170.589231 177.022250 171.825385 174.788790 173.061538 172.566425 174.297692 170.355240 175.533846 168.155321 176.770000 165.966755 178.006154 163.789626 179.242308 161.624022 180.478462 159.470028 181.714615 157.327730 182.950769 155.197214 184.186923 153.078567 185.423077 150.971874 186.659231 148.877221 187.895385 146.794694 189.131538 144.724379 190.367692 142.666363 191.603846 140.620731 192.840000 138.587569 194.076154 136.566963 195.312308 134.558999 196.548462 132.563764 197.784615 130.581343 199.020769 128.611822 200.256923 126.655287 201.493077 124.711824 202.729231 122.781520 203.965385 120.864460 205.201538 118.960730 206.437692 117.070416 207.673846 115.193605 208.910000 113.330382 210.146154 111.480833 211.382308 109.645044 212.618462 107.823102 213.854615 106.015091 215.090769 104.221099 216.326923 102.441212 217.563077 100.675514 218.799231 98.924093 220.035385 97.187034 221.271538 95.464423 222.507692 93.756346 223.743846 92.062890 224.980000 90.384140 226.216154 88.720182 227.452308 87.071102 228.688462 85.436987 229.924615 83.817922 231.160769 82.213993 232.396923 80.625286 233.633077 79.051888 234.869231 77.493884 236.105385 75.951360 237.341538 74.424403 238.577692 72.913097 239.813846 71.417530 241.050000 69.937788 242.286154 68.473955 243.522308 67.026119 244.758462 65.594365 245.994615 64.178779 247.230769 62.779448 248.466923 61.396456 249.703077 60.029892 250.939231 58.679839 252.175385 57.346385 253.411538 56.029615 254.647692 54.729615 255.883846 53.446471 257.120000 52.180270 258.356154 50.931097 259.592308 49.699039 260.828462 48.484180 262.064615 47.286608 263.300769 46.106408 264.536923 44.943667 265.773077 43.798470 267.009231 42.670903 268.245385 41.561052 269.481538 40.469004 270.717692 39.394844 271.953846 38.338658 273.190000 37.300533 274.426154 36.280554 275.662308 35.278807 276.898462 34.295379 278.134615 33.330354 279.370769 32.383820 280.606923 31.455863 281.843077 30.546568 283.079231 29.656021 284.315385 28.784308 285.551538 27.931516 286.787692 27.097730 288.023846 26.283036 289.260000 25.487521 290.496154 24.711270 291.732308 23.954369 292.968462 23.216905 294.204615 22.498963 295.440769 21.800629 296.676923 21.121990 297.913077 20.463131 299.149231 19.824138 300.385385 19.205097 301.621538 18.606095 302.857692 18.027218 304.093846 17.468550 305.330000 16.930179 306.566154 16.412191 307.802308 15.914670 309.038462 15.437704 310.274615 14.981379 311.510769 14.545779 312.746923 14.130992 313.983077 13.737104 315.219231 13.364199 316.455385 13.012365 317.691538 12.681688 318.927692 12.372253 320.163846 12.084146 321.400000 11.817453 322.636154 11.572232 323.872308 11.348426 325.108462 11.145948 326.344615 10.964712 327.580769 10.804633 328.816923 10.665624 330.053077 10.547599 331.289231 10.450473 332.525385 10.374159 333.761538 10.318571 334.997692 10.283624 336.233846 10.269231 337.470000 10.275306 338.706154 10.301764 339.942308 10.348518 341.178462 10.415482 342.414615 10.502571 343.650769 10.609698 344.886923 10.736778 346.123077 10.883723 347.359231 11.050449 348.595385 11.236870 349.831538 11.442899 351.067692 11.668450 352.303846 11.913437 353.540000 12.177775 354.776154 12.461377 356.012308 12.764157 357.248462 13.086030 358.484615 13.426909 359.720769 13.786708 360.956923 14.165342 362.193077 14.562724 363.429231 14.978768 364.665385 15.413388 365.901538 15.866499 367.137692 16.338014 368.373846 16.827848 369.610000 17.335914 370.846154 17.862126 372.082308 18.406398 373.318462 18.968645 374.554615 19.548780 375.790769 20.146717 377.026923 20.762371 378.263077 21.395654 379.499231 22.046483 380.735385 22.714769 381.971538 23.400428 383.207692 24.103373 384.443846 24.823518 385.680000 25.560778 386.916154 26.315066 388.152308 27.086296 389.388462 27.874382 390.624615 28.679239 391.860769 29.500780 393.096923 30.338919 394.333077 31.193571 395.569231 32.064649 396.805385 32.952067 398.041538 33.855739 399.277692 34.775580 400.513846 35.711503 401.750000 36.663422 402.986154 37.631251 404.222308 38.614905 405.458462 39.614297 406.694615 40.629341 407.930769 41.659952 409.166923 42.706043 410.403077 43.767528 411.639231 44.844321 412.875385 45.936336 414.111538 47.043488 415.347692 48.165690 416.583846 49.302857 417.820000 50.454901 419.056154 51.621738 420.292308 52.803281 421.528462 53.999444 422.764615 55.210142 424.000769 56.435287 425.236923 57.674795 426.473077 58.928580 427.709231 60.196554 428.945385 61.478633 430.181538 62.774730 431.417692 64.084759 432.653846 65.408634 433.890000 66.746270 435.126154 68.097580 436.362308 69.462478 437.598462 70.840878 438.834615 72.232695 440.070769 73.637842 441.306923 75.056233 442.543077 76.487782 443.779231 77.932403 445.015385 79.390011 446.251538 80.860519 447.487692 82.343841 448.723846 83.839891 449.960000 85.348584 451.196154 86.869832 452.432308 88.403551 453.668462 89.949654 454.904615 91.508056 456.140769 93.078669 457.376923 94.661409 458.613077 96.256189 459.849231 97.862923 461.085385 99.481525 462.321538 101.111910 463.557692 102.753991 464.793846 104.407682 466.030000 106.072897 467.266154 107.749550 468.502308 109.437555 469.738462 111.136827 470.974615 112.847279 472.210769 114.568825 473.446923 116.301379 474.683077 118.044856 475.919231 119.799168 477.155385 121.564231 478.391538 123.339958 479.627692 125.126263 480.863846 126.923060 482.100000 128.730264 483.336154 130.547788 484.572308 132.375545 485.808462 134.213451 487.044615 136.061420 488.280769 137.919364 489.516923 139.787198 490.753077 141.664837 491.989231 143.552194 493.225385 145.449183 494.461538 147.355718 495.697692 149.271713 496.933846 151.197083 498.170000 153.131740 499.406154 155.075600 500.642308 157.028576 501.878462 158.990582 503.114615 160.961532 504.350769 162.941341 505.586923 164.929921 506.823077 166.927188 508.059231 168.933055 509.295385 170.947436 510.531538 172.970245 511.767692 175.001396 513.003846 177.040803 514.240000 179.088381 515.476154 181.144043 516.712308 183.207702 517.948462 185.279274 519.184615 187.358672 520.420769 189.445810 521.656923 191.540603 522.893077 193.642963 524.129231 195.752806 525.365385 197.870044 526.601538 199.994593 527.837692 202.126366 529.073846 204.265277 530.310000 206.411240 531.546154 208.564169 532.782308 210.723979 534.018462 212.890582 535.254615 215.063894 536.490769 217.243828 537.726923 219.430297 538.963077 221.623217 540.199231 223.822501 541.435385 226.028064 542.671538 228.239818 543.907692 230.457678 545.143846 232.681559 546.380000 234.911373 547.616154 237.147036 548.852308 239.388461 550.088462 241.635561 551.324615 243.888252 552.560769 246.146447 553.796923 248.410060 555.033077 250.679006 556.269231 252.953197 557.505385 255.232548 558.741538 257.516974 559.977692 259.806387 561.213846 262.100703 562.450000 264.399835 563.686154 266.703696 564.922308 269.012202 566.158462 271.325266 567.394615 273.642802 568.630769 275.964724 569.866923 278.290946 571.103077 280.621383 572.339231 282.955947 573.575385 285.294553 574.811538 287.637116 576.047692 289.983548 577.283846 292.333765 578.520000 294.687679 579.756154 297.045206 580.992308 299.406259 582.228462 301.770752 583.464615 304.138598 584.700769 306.509713 585.936923 308.884010 587.173077 311.261403 588.409231 313.641806 589.645385 316.025134 590.881538 318.411299 592.117692 320.800216 593.353846 323.191799 594.590000 325.585962 595.826154 327.982620 597.062308 330.381685 598.298462 332.783073 599.534615 335.186696 600.770769 337.592470 602.006923 340.000307 603.243077 342.410123 604.479231 344.821830 605.715385 347.235344 606.951538 349.650577 608.187692 352.067445 609.423846 354.485861 610.660000 356.905739 611.896154 359.326992 613.132308 361.749536 614.368462 364.173284 615.604615 366.598150 616.840769 369.024047 618.076923 371.450891 619.313077 373.878595 620.549231 376.307073 621.785385 378.736239 623.021538 381.166007 624.257692 383.596291 625.493846 386.027005 626.730000 388.458062 627.966154 390.889378 629.202308 393.320866 630.438462 395.752440" /></g><g class="series serie-1 color-1" /><g class="series serie-2 color-2"><path class="line reactive nofill" d="M12.361538 523.730769 L13.597692 523.730769 14.833846 523.730769 16.070000 523.730769 17.306154 523.730769 18.542308 523.730769 19.778462 523.730769 21.014615 523.730769 22.250769 523.730769 23.486923 523.730769 24.723077 523.730769 25.959231 523.730769 27.195385 523.730769 28.431538 523.730769 29.667692 523.730769 30.903846 523.730769 32.140000 523.730769 33.376154 523.730769 34.612308 523.730769 35.848462 523.730769 37.084615 523.730769 38.320769 523.730769 39.556923 523.730769 40.793077 523.730769 42.029231 523.730769 43.265385 523.730769 44.501538 523.730769 45.737692 523.730769 46.973846 523.730769 48.210000 523.730769 49.446154 523.730769 50.682308 523.730769 51.918462 523.730769 53.154615 523.730769 54.390769 523.730769 55.626923 523.730769 56.863077 523.730769 58.099231 523.730769 59.335385 523.730769 60.571538 523.730769 61.807692 523.730769 63.043846 523.730769 64.280000 523.730769 65.516154 523.730769 66.752308 523.730769 67.988462 523.730769 69.224615 523.730769 70.460769 523.730769 71.696923 523.730769 72.933077 523.730769 74.169231 523.730769 75.405385 523.730769 76.641538 523.730769 77.877692 523.730769 79.113846 523.730769 80.350000 523.730769 81.586154 523.730769 82.822308 523.730769 84.058462 523.730769 85.294615 523.730769 86.530769 523.730769 87.766923 523.730769 89.003077 523.730769 90.239231 523.730769 91.475385 523.730769 92.711538 523.730769 93.947692 523.730769 95.183846 523.730769 96.420000 523.730769 97.656154 523.730769 98.892308 523.730769 100.128462 523.730769 101.364615 523.730769 102.600769 523.730769 103.836923 523.730769 105.073077 523.730769 106.309231 523.730769 107.545385 523.730769 108.781538 523.730769 110.017692 523.730769 111.253846 523.730769 112.490000 523.730769 113.726154 523.730769 114.962308 523.730769 116.198462 523.730769 117.434615 523.730769 118.670769 523.730769 119.906923 523.730769 121.143077 523.730769 122.379231 523.730769 123.615385 523.730769 124.851538 523.730769 126.087692 523.730769 127.323846 523.730769 128.560000 523.730769 129.796154 523.730769 131.032308 523.730769 132.268462 523.730769 133.504615 523.730769 134.740769 523.730769 135.976923 523.730769 137.213077 523.730769 138.449231 523.730769 139.685385 523.730769 140.921538 523.730769 142.157692 523.730769 143.393846 523.730769 144.630000 523.730769 145.866154 523.730769 147.102308 523.730769 148.338462 523.730769 149.574615 523.730769 150.810769 523.730769 152.046923 523.730769 153.283077 523.730769 154.519231 523.730769 155.755385 523.730769 156.991538 523.730769 158.227692 523.730769 159.463846 523.730769 160.700000 523.730769 161.936154 523.730769 163.172308 523.730769 164.408462 523.730769 165.644615 523.730769 166.880769 523.730769 168.116923 523.730769 169.353077 523.730769 170.589231 523.730769 171.825385 523.730769 173.061538 523.730769 174.297692 523.730769 175.533846 523.730769 176.770000 523.730769 178.006154 523.730769 179.242308 523.730769 180.478462 523.730769 181.714615 523.730769 182.950769 523.730769 184.186923 523.730769 185.423077 523.730769 186.659231 523.730769 187.895385 523.730769 189.131538 523.730769 190.367692 523.730769 191.603846 523.730769 192.840000 523.730769 194.076154 523.730769 195.312308 523.730769 196.548462 523.730769 197.784615 523.730769 199.020769 523.730769 200.256923 523.730769 201.493077 523.730769 202.729231 523.730769 203.965385 523.730769 205.201538 523.730769 206.437692 523.730769 207.673846 523.730769 208.910000 523.730769 210.146154 523.730769 211.382308 523.730769 212.618462 523.730769 213.854615 523.730769 215.090769 523.730769 216.326923 523.730769 217.563077 523.730769 218.799231 523.730769 220.035385 523.730769 221.271538 523.730769 222.507692 523.730769 223.743846 523.730769 224.980000 523.730769 226.216154 523.730769 227.452308 523.730769 228.688462 523.730769 229.924615 523.730769 231.160769 523.730769 232.396923 523.730769 233.633077 523.730769 234.869231 523.730769 236.105385 523.730769 237.341538 523.730769 238.577692 523.730769 239.813846 523.730769 241.050000 523.730769 242.286154 523.730769 243.522308 523.730769 244.758462 523.730769 245.994615 523.730769 247.230769 523.730769 248.466923 523.730769 249.703077 523.730769 250.939231 523.730769 252.175385 523.730769 253.411538 523.730769 254.647692 523.730769 255.883846 523.730769 257.120000 523.730769 258.356154 523.730769 259.592308 523.730769 260.828462 523.730769 262.064615 523.730769 263.300769 523.730769 264.536923 523.730769 265.773077 523.730769 267.009231 523.730769 268.245385 523.730769 269.481538 523.730769 270.717692 523.730769 271.953846 523.730769 273.190000 523.730769 274.426154 523.730769 275.662308 523.730769 276.898462 523.730769 278.134615 523.730769 279.370769 523.730769 280.606923 523.730769 281.843077 523.730769 283.079231 523.730769 284.315385 523.730769 285.551538 523.730769 286.787692 523.730769 288.023846 523.730769 289.260000 523.730769 290.496154 523.730769 291.732308 523.730769 292.968462 523.730769 294.204615 523.730769 295.440769 523.730769 296.676923 523.730769 297.913077 523.730769 299.149231 523.730769 300.385385 523.730769 301.621538 523.730769 302.857692 523.730769 304.093846 523.730769 305.330000 523.730769 306.566154 523.730769 307.802308 523.730769 309.038462 523.730769 310.274615 523.730769 311.510769 523.730769 312.746923 523.730769 313.983077 523.730769 315.219231 523.730769 316.455385 523.730769 317.691538 523.730769 318.927692 523.730769 320.163846 523.730769 321.400000 523.730769" /></g></g><g class="titles"><text class="title plot_title" x="400.0" y="26">tagMac: 0x5f8d4e</text></g><g class="plot overlay" transform="translate(137, 46)"><g class="series serie-0 color-0"><g class="dots"><circle class="dot reactive tooltip-trigger" cx="12.36153846153846" cy="523.73076923077" r="2.5" /><desc class="value">-65</desc><desc class="x top">12.36153846153846</desc><desc class="y top">523.73076923077</desc></g><g class="dots"><circle class="dot reactive tooltip-trigger" cx="321.4" cy="11.817453211586098" r="2.5" /><desc class="value">-61</desc><desc class="x ">321.4</desc><desc class="y ">11.817453211586098</desc></g><g class="dots"><circle class="dot reactive tooltip-trigger" cx="630.4384615384615" cy="395.752440225974" r="2.5" /><desc class="value">-64</desc><desc class="x left top">630.4384615384615</desc><desc class="y left top">395.752440225974</desc></g></g><g class="series serie-1 color-1"><g class="dots"><circle class="dot reactive tooltip-trigger" cx="12.36153846153846" cy="523.73076923077" r="2.5" /><desc class="value">-65</desc><desc class="x top">12.36153846153846</desc><desc class="y top">523.73076923077</desc></g></g><g class="series serie-2 color-2"><g class="dots"><circle class="dot reactive tooltip-trigger" cx="12.36153846153846" cy="523.73076923077" r="2.5" /><desc class="value">-65</desc><desc class="x top">12.36153846153846</desc><desc class="y top">523.73076923077</desc></g><g class="dots"><circle class="dot reactive tooltip-trigger" cx="321.4" cy="523.73076923077" r="2.5" /><desc class="value">-65</desc><desc class="x top">321.4</desc><desc class="y top">523.73076923077</desc></g></g></g><g class="plot text-overlay" transform="translate(137, 46)"><g class="series serie-0 color-0" /><g class="series serie-1 color-1" /><g class="series serie-2 color-2" /></g><g class="plot tooltip-overlay" transform="translate(137, 46)"><g class="tooltip" style="opacity: 0" transform="translate(0 0)"><rect class="tooltip-box" height="0" rx="0" ry="0" width="0" /><g class="text" /></g></g><g class="legends" transform="translate(10, 56)"><g class="legend reactive activate-serie" id="activate-serie-0"><rect class="color-0 reactive" height="12" width="12" x="0.0" y="1.0" /><text x="17.0" y="11.2">eec50c22</text></g><g class="legend reactive activate-serie" id="activate-serie-1"><rect class="color-1 reactive" height="12" width="12" x="0.0" y="22.0" /><text x="17.0" y="32.2">1fc6a334</text></g><g class="legend reactive activate-serie" id="activate-serie-2"><rect class="color-2 reactive" height="12" width="12" x="0.0" y="43.0" /><text x="17.0" y="53.2">0b3312e6</text></g></g><g class="legends" transform="translate(790, 56)" /></g></svg>