<?xml version='1.0' encoding='utf-8'?>
<svg xmlns:xlink="http://www.w3.org/1999/xlink" class="pygal-chart" id="chart-3cb703b5-2f39-4735-b5d4-30aeb16881bd" viewBox="0 0 800 600" xmlns="http://www.w3.org/2000/svg"><!--Generated with pygal 2.4.0 (etree) ©Kozea 2012-2016 on 2019-11-21--><!--http://pygal.org--><!--http://github.com/Kozea/pygal--><defs><style type="text/css">#chart-3cb703b5-2f39-4735-b5d4-30aeb16881bd{-webkit-user-select:none;-webkit-font-smoothing:antialiased;font-family:Consolas,"Liberation Mono",Menlo,Courier,monospace}#chart-3cb703b5-2f39-4735-b5d4-30aeb16881bd .title{font-family:Consolas,"Liberation Mono",Menlo,Courier,monospace;font-size:16px}#chart-3cb703b5-2f39-4735-b5d4-30aeb16881bd .legends .legend text{font-family:Consolas,"Liberation Mono",Menlo,Courier,monospace;font-size:14px}#chart-3cb703b5-2f39-4735-b5d4-30aeb16881bd .axis text{font-family:Consolas,"Liberation Mono",Menlo,Courier,monospace;font-size:10px}#chart-3cb703b5-2f39-4735-b5d4-30aeb16881bd .axis text.major{font-family:Consolas,"Liberation Mono",Menlo,Courier,monospace;font-size:10px}#chart-3cb703b5-2f39-4735-b5d4-30aeb16881bd .text-overlay text.value{font-family:Consolas,"Liberation Mono",Menlo,Courier,monospace;font-size:16px}#chart-3cb703b5-2f39-4735-b5d4-30aeb16881bd .text-overlay text.label{font-family:Consolas,"Liberation Mono",Menlo,Courier,monospace;font-size:10px}#chart-3cb703b5-2f39-4735-b5d4-30aeb16881bd .tooltip{font-family:Consolas,"Liberation Mono",Menlo,Courier,monospace;font-size:14px}#chart-3cb703b5-2f39-4735-b5d4-30aeb16881bd text.no_data{font-family:Consolas,"Liberation Mono",Menlo,Courier,monospace;font-size:64px}
#chart-3cb703b5-2f39-4735-b5d4-30aeb16881bd{background-color:rgba(249,249,249,1)}#chart-3cb703b5-2f39-4735-b5d4-30aeb16881bd path,#chart-3cb703b5-2f39-4735-b5d4-30aeb16881bd line,#chart-3cb703b5-2f39-4735-b5d4-30aeb16881bd rect,#chart-3cb703b5-2f39-4735-b5d4-30aeb16881bd circle{-webkit-transition:150ms;-moz-transition:150ms;transition:150ms}#chart-3cb703b5-2f39-4735-b5d4-30aeb16881bd .graph &gt; .background{fill:rgba(249,249,249,1)}#chart-3cb703b5-2f39-4735-b5d4-30aeb16881bd .plot &gt; .background{fill:rgba(255,255,255,1)}#chart-3cb703b5-2f39-4735-b5d4-30aeb16881bd .graph{fill:rgba(0,0,0,.87)}#chart-3cb703b5-2f39-4735-b5d4-30aeb16881bd text.no_data{fill:rgba(0,0,0,1)}#chart-3cb703b5-2f39-4735-b5d4-30aeb16881bd .title{fill:rgba(0,0,0,1)}#chart-3cb703b5-2f39-4735-b5d4-30aeb16881bd .legends .legend text{fill:rgba(0,0,0,.87)}#chart-3cb703b5-2f39-4735-b5d4-30aeb16881bd .legends .legend:hover text{fill:rgba(0,0,0,1)}#chart-3cb703b5-2f39-4735-b5d4-30aeb16881bd .axis .line{stroke:rgba(0,0,0,1)}#chart-3cb703b5-2f39-4735-b5d4-30aeb16881bd .axis .guide.line{stroke:rgba(0,0,0,.54)}#chart-3cb703b5-2f39-4735-b5d4-30aeb16881bd .axis .major.line{stroke:rgba(0,0,0,.87)}#chart-3cb703b5-2f39-4735-b5d4-30aeb16881bd .axis text.major{fill:rgba(0,0,0,1)}#chart-3cb703b5-2f39-4735-b5d4-30aeb16881bd .axis.y .guides:hover .guide.line,#chart-3cb703b5-2f39-4735-b5d4-30aeb16881bd .line-graph .axis.x .guides:hover .guide.line,#chart-3cb703b5-2f39-4735-b5d4-30aeb16881bd .stackedline-graph .axis.x .guides:hover .guide.line,#chart-3cb703b5-2f39-4735-b5d4-30aeb16881bd .xy-graph .axis.x .guides:hover .guide.line{stroke:rgba(0,0,0,1)}#chart-3cb703b5-2f39-4735-b5d4-30aeb16881bd .axis .guides:hover text{fill:rgba(0,0,0,1)}#chart-3cb703b5-2f39-4735-b5d4-30aeb16881bd .reactive{fill-opacity:.7;stroke-opacity:.8}#chart-3cb703b5-2f39-4735-b5d4-30aeb16881bd .ci{stroke:rgba(0,0,0,.87)}#chart-3cb703b5-2f39-4735-b5d4-30aeb16881bd .reactive.active,#chart-3cb703b5-2f39-4735-b5d4-30aeb16881bd .active .reactive{fill-opacity:.8;stroke-opacity:.9;stroke-width:4}#chart-3cb703b5-2f39-4735-b5d4-30aeb16881bd .ci .reactive.active{stroke-width:1.5}#chart-3cb703b5-2f39-4735-b5d4-30aeb16881bd .series text{fill:rgba(0,0,0,1)}#chart-3cb703b5-2f39-4735-b5d4-30aeb16881bd .tooltip rect{fill:rgba(255,255,255,1);stroke:rgba(0,0,0,1);-webkit-transition:opacity 150ms;-moz-transition:opacity 150ms;transition:opacity 150ms}#chart-3cb703b5-2f39-4735-b5d4-30aeb16881bd .tooltip .label{fill:rgba(0,0,0,.87)}#chart-3cb703b5-2f39-4735-b5d4-30aeb16881bd .tooltip .label{fill:rgba(0,0,0,.87)}#chart-3cb703b5-2f39-4735-b5d4-30aeb16881bd .tooltip .legend{font-size:.8em;fill:rgba(0,0,0,.54)}#chart-3cb703b5-2f39-4735-b5d4-30aeb16881bd .tooltip .x_label{font-size:.6em;fill:rgba(0,0,0,1)}#chart-3cb703b5-2f39-4735-b5d4-30aeb16881bd .tooltip .xlink{font-size:.5em;text-decoration:underline}#chart-3cb703b5-2f39-4735-b5d4-30aeb16881bd .tooltip .value{font-size:1.5em}#chart-3cb703b5-2f39-4735-b5d4-30aeb16881bd .bound{font-size:.5em}#chart-3cb703b5-2f39-4735-b5d4-30aeb16881bd .max-value{font-size:.75em;fill:rgba(0,0,0,.54)}#chart-3cb703b5-2f39-4735-b5d4-30aeb16881bd .map-element{fill:rgba(255,255,255,1);stroke:rgba(0,0,0,.54) !important}#chart-3cb703b5-2f39-4735-b5d4-30aeb16881bd .map-element .reactive{fill-opacity:inherit;stroke-opacity:inherit}#chart-3cb703b5-2f39-4735-b5d4-30aeb16881bd .color-0,#chart-3cb703b5-2f39-4735-b5d4-30aeb16881bd .color-0 a:visited{stroke:#F44336;fill:#F44336}#chart-3cb703b5-2f39-4735-b5d4-30aeb16881bd .color-1,#chart-3cb703b5-2f39-4735-b5d4-30aeb16881bd .color-1 a:visited{stroke:#3F51B5;fill:#3F51B5}#chart-3cb703b5-2f39-4735-b5d4-30aeb16881bd .color-2,#chart-3cb703b5-2f39-4735-b5d4-30aeb16881bd .color-2 a:visited{stroke:#009688;fill:#009688}#chart-3cb703b5-2f39-4735-b5d4-30aeb16881bd .text-overlay .color-0 text{fill:black}#chart-3cb703b5-2f39-4735-b5d4-30aeb16881bd .text-overlay .color-1 text{fill:black}#chart-3cb703b5-2f39-4735-b5d4-30aeb16881bd .text-overlay .color-2 text{fill:black}
#chart-3cb703b5-2f39-4735-b5d4-30aeb16881bd text.no_data{text-anchor:middle}#chart-3cb703b5-2f39-4735-b5d4-30aeb16881bd .guide.line{fill:none}#chart-3cb703b5-2f39-4735-b5d4-30aeb16881bd .centered{text-anchor:middle}#chart-3cb703b5-2f39-4735-b5d4-30aeb16881bd .title{text-anchor:middle}#chart-3cb703b5-2f39-4735-b5d4-30aeb16881bd .legends .legend text{fill-opacity:1}#chart-3cb703b5-2f39-4735-b5d4-30aeb16881bd .axis.x text{text-anchor:middle}#chart-3cb703b5-2f39-4735-b5d4-30aeb16881bd .axis.x:not(.web) text[transform]{text-anchor:start}#chart-3cb703b5-2f39-4735-b5d4-30aeb16881bd .axis.x:not(.web) text[transform].backwards{text-anchor:end}#chart-3cb703b5-2f39-4735-b5d4-30aeb16881bd .axis.y text{text-anchor:end}#chart-3cb703b5-2f39-4735-b5d4-30aeb16881bd .axis.y text[transform].backwards{text-anchor:start}#chart-3cb703b5-2f39-4735-b5d4-30aeb16881bd .axis.y2 text{text-anchor:start}#chart-3cb703b5-2f39-4735-b5d4-30aeb16881bd .axis.y2 text[transform].backwards{text-anchor:end}#chart-3cb703b5-2f39-4735-b5d4-30aeb16881bd .axis .guide.line{stroke-dasharray:4,4}#chart-3cb703b5-2f39-4735-b5d4-30aeb16881bd .axis .major.guide.line{stroke-dasharray:6,6}#chart-3cb703b5-2f39-4735-b5d4-30aeb16881bd .horizontal .axis.y .guide.line,#chart-3cb703b5-2f39-4735-b5d4-30aeb16881bd .horizontal .axis.y2 .guide.line,#chart-3cb703b5-2f39-4735-b5d4-30aeb16881bd .vertical .axis.x .guide.line{opacity:0}#chart-3cb703b5-2f39-4735-b5d4-30aeb16881bd .horizontal .axis.always_show .guide.line,#chart-3cb703b5-2f39-4735-b5d4-30aeb16881bd .vertical .axis.always_show .guide.line{opacity:1 !important}#chart-3cb703b5-2f39-4735-b5d4-30aeb16881bd .axis.y .guides:hover .guide.line,#chart-3cb703b5-2f39-4735-b5d4-30aeb16881bd .axis.y2 .guides:hover .guide.line,#chart-3cb703b5-2f39-4735-b5d4-30aeb16881bd .axis.x .guides:hover .guide.line{opacity:1}#chart-3cb703b5-2f39-4735-b5d4-30aeb16881bd .axis .guides:hover text{opacity:1}#chart-3cb703b5-2f39-4735-b5d4-30aeb16881bd .nofill{fill:none}#chart-3cb703b5-2f39-4735-b5d4-30aeb16881bd .subtle-fill{fill-opacity:.2}#chart-3cb703b5-2f39-4735-b5d4-30aeb16881bd .dot{stroke-width:1px;fill-opacity:1}#chart-3cb703b5-2f39-4735-b5d4-30aeb16881bd .dot.active{stroke-width:5px}#chart-3cb703b5-2f39-4735-b5d4-30aeb16881bd .dot.negative{fill:transparent}#chart-3cb703b5-2f39-4735-b5d4-30aeb16881bd text,#chart-3cb703b5-2f39-4735-b5d4-30aeb16881bd tspan{stroke:none !important}#chart-3cb703b5-2f39-4735-b5d4-30aeb16881bd .series text.active{opacity:1}#chart-3cb703b5-2f39-4735-b5d4-30aeb16881bd .tooltip rect{fill-opacity:.95;stroke-width:.5}#chart-3cb703b5-2f39-4735-b5d4-30aeb16881bd .tooltip text{fill-opacity:1}#chart-3cb703b5-2f39-4735-b5d4-30aeb16881bd .showable{visibility:hidden}#chart-3cb703b5-2f39-4735-b5d4-30aeb16881bd .showable.shown{visibility:visible}#chart-3cb703b5-2f39-4735-b5d4-30aeb16881bd .gauge-background{fill:rgba(229,229,229,1);stroke:none}#chart-3cb703b5-2f39-4735-b5d4-30aeb16881bd .bg-lines{stroke:rgba(249,249,249,1);stroke-width:2px}</style><script type="text/javascript">window.pygal = window.pygal || {};window.pygal.config = window.pygal.config || {};window.pygal.config['3cb703b5-2f39-4735-b5d4-30aeb16881bd'] = {"allow_interruptions": false, "box_mode": "extremes", "classes": ["pygal-chart"], "css": ["file://style.css", "file://graph.css"], "defs": [], "disable_xml_declaration": false, "dots_size": 2.5, "dynamic_print_values": false, "explicit_size": false, "fill": false, "force_uri_protocol": "https", "formatter": null, "half_pie": false, "height": 600, "include_x_axis": false, "inner_radius": 0, "interpolate": "cubic", "interpolation_parameters": {}, "interpolation_precision": 250, "inverse_y_axis": false, "js": ["//kozea.github.io/pygal.js/2.0.x/pygal-tooltips.min.js"], "legend_at_bottom": false, "legend_at_bottom_columns": null, "legend_box_size": 12, "logarithmic": false, "margin": 20, "margin_bottom": null, "margin_left": null, "margin_right": null, "margin_top": null, "max_scale": 16, "min_scale": 4, "missing_value_fill_truncation": "x", "no_data_text": "No data", "no_prefix": false, "order_min": null, "pretty_print": false, "print_labels": true, "print_values": false, "print_values_position": "center", "print_zeroes": true, "range": null, "rounded_bars": null, "secondary_range": null, "show_dots": true, "show_legend": true, "show_minor_x_labels": true, "show_minor_y_labels": true, "show_only_major_dots": false, "show_x_guides": false, "show_x_labels": true, "show_y_guides": true, "show_y_labels": true, "spacing": 10, "stack_from_top": false, "strict": false, "stroke": true, "stroke_style": null, "style": {"background": "rgba(249, 249, 249, 1)", "ci_colors": [], "colors": ["#F44336", "#3F51B5", "#009688", "#FFC107", "#FF5722", "#9C27B0", "#03A9F4", "#8BC34A", "#FF9800", "#E91E63", "#2196F3", "#4CAF50", "#FFEB3B", "#673AB7", "#00BCD4", "#CDDC39", "#9E9E9E", "#607D8B"], "font_family": "Consolas, \"Liberation Mono\", Menlo, Courier, monospace", "foreground": "rgba(0, 0, 0, .87)", "foreground_strong": "rgba(0, 0, 0, 1)", "foreground_subtle": "rgba(0, 0, 0, .54)", "guide_stroke_dasharray": "4,4", "label_font_family": "Consolas, \"Liberation Mono\", Menlo, Courier, monospace", "label_font_size": 10, "legend_font_family": "Consolas, \"Liberation Mono\", Menlo, Courier, monospace", "legend_font_size": 14, "major_guide_stroke_dasharray": "6,6", "major_label_font_family": "Consolas, \"Liberation Mono\", Menlo, Courier, monospace", "major_label_font_size": 10, "no_data_font_family": "Consolas, \"Liberation Mono\", Menlo, Courier, monospace", "no_data_font_size": 64, "opacity": ".7", "opacity_hover": ".8", "plot_background": "rgba(255, 255, 255, 1)", "stroke_opacity": ".8", "stroke_opacity_hover": ".9", "title_font_family": "Consolas, \"Liberation Mono\", Menlo, Courier, monospace", "title_font_size": 16, "tooltip_font_family": "Consolas, \"Liberation Mono\", Menlo, Courier, monospace", "tooltip_font_size": 14, "transition": "150ms", "value_background": "rgba(229, 229, 229, 1)", "value_colors": [], "value_font_family": "Consolas, \"Liberation Mono\", Menlo, Courier, monospace", "value_font_size": 16, "value_label_font_family": "Consolas, \"Liberation Mono\", Menlo, Courier, monospace", "value_label_font_size": 10}, "title": "tagMac: 0x5f8d49", "tooltip_border_radius": 0, "tooltip_fancy_mode": true, "truncate_label": null, "truncate_legend": null, "width": 800, "x_label_rotation": 0, "x_labels": null, "x_labels_major": null, "x_labels_major_count": null, "x_labels_major_every": null, "x_title": null, "xrange": null, "y_label_rotation": 0, "y_labels": null, "y_labels_major": null, "y_labels_major_count": null, "y_labels_major_every": null, "y_title": null, "zero": 0, "legends": ["2dd04da8", "0b3312e6", "b820b292"]}</script><script type="text/javascript" xlink:href="https://kozea.github.io/pygal.js/2.0.x/pygal-tooltips.min.js" /></defs><title>tagMac: 0x5f8d49</title><g class="graph line-graph vertical"><rect class="background" height="600" width="800" x="0" y="0" /><g class="plot" transform="translate(137, 46)"><rect class="background" height="534" width="642.8" x="0" y="0" /><g class="axis y always_show"><path class="line" d="M0.000000 534.000000 h642.800000" /><g class="guides"><path class="guide line" d="M0.000000 523.730769 h642.800000" /><text class="" x="-5" y="527.2307692307694">-63</text><title>-63</title></g><g class="guides"><path class="guide line" d="M0.000000 395.365385 h642.800000" /><text class="" x="-5" y="398.86538461538476">-62</text><title>-62</title></g><g class="guides"><path class="guide line" d="M0.000000 267.000000 h642.800000" /><text class="" x="-5" y="270.5">-61</text><title>-61</title></g><g class="guides"><path class="major guide line" d="M0.000000 138.634615 h642.800000" /><text class="major" x="-5" y="142.13461538461524">-60</text><title>-60</title></g><g class="guides"><path class="guide line" d="M0.000000 10.269231 h642.800000" /><text class="" x="-5" y="13.769230769230603">-59</text><title>-59</title></g></g><g class="series serie-0 color-0"><path class="line reactive nofill" d="M12.361538 395.365385 L13.597692 395.878846 14.833846 396.392308 16.070000 396.905769 17.306154 397.419231 18.542308 397.932692 19.778462 398.446154 21.014615 398.959615 22.250769 399.473077 23.486923 399.986538 24.723077 400.500000 25.959231 401.013462 27.195385 401.526923 28.431538 402.040385 29.667692 402.553846 30.903846 403.067308 32.140000 403.580769 33.376154 404.094231 34.612308 404.607692 35.848462 405.121154 37.084615 405.634615 38.320769 406.148077 39.556923 406.661538 40.793077 407.175000 42.029231 407.688462 43.265385 408.201923 44.501538 408.715385 45.737692 409.228846 46.973846 409.742308 48.210000 410.255769 49.446154 410.769231 50.682308 411.282692 51.918462 411.796154 53.154615 412.309615 54.390769 412.823077 55.626923 413.336538 56.863077 413.850000 58.099231 414.363462 59.335385 414.876923 60.571538 415.390385 61.807692 415.903846 63.043846 416.417308 64.280000 416.930769 65.516154 417.444231 66.752308 417.957692 67.988462 418.471154 69.224615 418.984615 70.460769 419.498077 71.696923 420.011538 72.933077 420.525000 74.169231 421.038462 75.405385 421.551923 76.641538 422.065385 77.877692 422.578846 79.113846 423.092308 80.350000 423.605769 81.586154 424.119231 82.822308 424.632692 84.058462 425.146154 85.294615 425.659615 86.530769 426.173077 87.766923 426.686538 89.003077 427.200000 90.239231 427.713462 91.475385 428.226923 92.711538 428.740385 93.947692 429.253846 95.183846 429.767308 96.420000 430.280769 97.656154 430.794231 98.892308 431.307692 100.128462 431.821154 101.364615 432.334615 102.600769 432.848077 103.836923 433.361538 105.073077 433.875000 106.309231 434.388462 107.545385 434.901923 108.781538 435.415385 110.017692 435.928846 111.253846 436.442308 112.490000 436.955769 113.726154 437.469231 114.962308 437.982692 116.198462 438.496154 117.434615 439.009615 118.670769 439.523077 119.906923 440.036538 121.143077 440.550000 122.379231 441.063462 123.615385 441.576923 124.851538 442.090385 126.087692 442.603846 127.323846 443.117308 128.560000 443.630769 129.796154 444.144231 131.032308 444.657692 132.268462 445.171154 133.504615 445.684615 134.740769 446.198077 135.976923 446.711538 137.213077 447.225000 138.449231 447.738462 139.685385 448.251923 140.921538 448.765385 142.157692 449.278846 143.393846 449.792308 144.630000 450.305769 145.866154 450.819231 147.102308 451.332692 148.338462 451.846154 149.574615 452.359615 150.810769 452.873077 152.046923 453.386538 153.283077 453.900000 154.519231 454.413462 155.755385 454.926923 156.991538 455.440385 158.227692 455.953846 159.463846 456.467308 160.700000 456.980769 161.936154 457.494231 163.172308 458.007692 164.408462 458.521154 165.644615 459.034615 166.880769 459.548077 168.116923 460.061538 169.353077 460.575000 170.589231 461.088462 171.825385 461.601923 173.061538 462.115385 174.297692 462.628846 175.533846 463.142308 176.770000 463.655769 178.006154 464.169231 179.242308 464.682692 180.478462 465.196154 181.714615 465.709615 182.950769 466.223077 184.186923 466.736538 185.423077 467.250000 186.659231 467.763462 187.895385 468.276923 189.131538 468.790385 190.367692 469.303846 191.603846 469.817308 192.840000 470.330769 194.076154 470.844231 195.312308 471.357692 196.548462 471.871154 197.784615 472.384615 199.020769 472.898077 200.256923 473.411538 201.493077 473.925000 202.729231 474.438462 203.965385 474.951923 205.201538 475.465385 206.437692 475.978846 207.673846 476.492308 208.910000 477.005769 210.146154 477.519231 211.382308 478.032692 212.618462 478.546154 213.854615 479.059615 215.090769 479.573077 216.326923 480.086538 217.563077 480.600000 218.799231 481.113462 220.035385 481.626923 221.271538 482.140385 222.507692 482.653846 223.743846 483.167308 224.980000 483.680769 226.216154 484.194231 227.452308 484.707692 228.688462 485.221154 229.924615 485.734615 231.160769 486.248077 232.396923 486.761538 233.633077 487.275000 234.869231 487.788462 236.105385 488.301923 237.341538 488.815385 238.577692 489.328846 239.813846 489.842308 241.050000 490.355769 242.286154 490.869231 243.522308 491.382692 244.758462 491.896154 245.994615 492.409615 247.230769 492.923077 248.466923 493.436538 249.703077 493.950000 250.939231 494.463462 252.175385 494.976923 253.411538 495.490385 254.647692 496.003846 255.883846 496.517308 257.120000 497.030769 258.356154 497.544231 259.592308 498.057692 260.828462 498.571154 262.064615 499.084615 263.300769 499.598077 264.536923 500.111538 265.773077 500.625000 267.009231 501.138462 268.245385 501.651923 269.481538 502.165385 270.717692 502.678846 271.953846 503.192308 273.190000 503.705769 274.426154 504.219231 275.662308 504.732692 276.898462 505.246154 278.134615 505.759615 279.370769 506.273077 280.606923 506.786538 281.843077 507.300000 283.079231 507.813462 284.315385 508.326923 285.551538 508.840385 286.787692 509.353846 288.023846 509.867308 289.260000 510.380769 290.496154 510.894231 291.732308 511.407692 292.968462 511.921154 294.204615 512.434615 295.440769 512.948077 296.676923 513.461538 297.913077 513.975000 299.149231 514.488462 300.385385 515.001923 301.621538 515.515385 302.857692 516.028846 304.093846 516.542308 305.330000 517.055769 306.566154 517.569231 307.802308 518.082692 309.038462 518.596154 310.274615 519.109615 311.510769 519.623077 312.746923 520.136538 313.983077 520.650000 315.219231 521.163462 316.455385 521.676923 317.691538 522.190385 318.927692 522.703846 320.163846 523.217308 321.400000 523.730769" /></g><g class="series serie-1 color-1"><path class="line reactive nofill" d="M12.361538 138.634615 L13.597692 138.762979 14.833846 138.891330 16.070000 139.019656 17.306154 139.147945 18.542308 139.276186 19.778462 139.404364 21.014615 139.532469 22.250769 139.660487 23.486923 139.788407 24.723077 139.916215 25.959231 140.043901 27.195385 140.171451 28.431538 140.298853 29.667692 140.426095 30.903846 140.553164 32.140000 140.680049 33.376154 140.806736 34.612308 140.933214 35.848462 141.059470 37.084615 141.185492 38.320769 141.311268 39.556923 141.436784 40.793077 141.562030 42.029231 141.686992 43.265385 141.811659 44.501538 141.936017 45.737692 142.060055 46.973846 142.183760 48.210000 142.307120 49.446154 142.430123 50.682308 142.552756 51.918462 142.675007 53.154615 142.796864 54.390769 142.918314 55.626923 143.039345 56.863077 143.159945 58.099231 143.280101 59.335385 143.399801 60.571538 143.519033 61.807692 143.637785 63.043846 143.756043 64.280000 143.873796 65.516154 143.991032 66.752308 144.107737 67.988462 144.223901 69.224615 144.339510 70.460769 144.454552 71.696923 144.569015 72.933077 144.682886 74.169231 144.796154 75.405385 144.908805 76.641538 145.020828 77.877692 145.132210 79.113846 145.242939 80.350000 145.353003 81.586154 145.462389 82.822308 145.571084 84.058462 145.679078 85.294615 145.786356 86.530769 145.892908 87.766923 145.998720 89.003077 146.103780 90.239231 146.208077 91.475385 146.311597 92.711538 146.414328 93.947692 146.516258 95.183846 146.617375 96.420000 146.717667 97.656154 146.817120 98.892308 146.915723 100.128462 147.013464 101.364615 147.110329 102.600769 147.206307 103.836923 147.301386 105.073077 147.395553 106.309231 147.488795 107.545385 147.581101 108.781538 147.672459 110.017692 147.762855 111.253846 147.852277 112.490000 147.940713 113.726154 148.028152 114.962308 148.114580 116.198462 148.199985 117.434615 148.284355 118.670769 148.367677 119.906923 148.449940 121.143077 148.531131 122.379231 148.611237 123.615385 148.690246 124.851538 148.768146 126.087692 148.844925 127.323846 148.920571 128.560000 148.995070 129.796154 149.068411 131.032308 149.140581 132.268462 149.211568 133.504615 149.281360 134.740769 149.349944 135.976923 149.417308 137.213077 149.483439 138.449231 149.548327 139.685385 149.611957 140.921538 149.674318 142.157692 149.735397 143.393846 149.795183 144.630000 149.853662 145.866154 149.910822 147.102308 149.966652 148.338462 150.021138 149.574615 150.074269 150.810769 150.126032 152.046923 150.176415 153.283077 150.225406 154.519231 150.272991 155.755385 150.319160 156.991538 150.363899 158.227692 150.407196 159.463846 150.449039 160.700000 150.489415 161.936154 150.528313 163.172308 150.565720 164.408462 150.601623 165.644615 150.636011 166.880769 150.668870 168.116923 150.700189 169.353077 150.729956 170.589231 150.758157 171.825385 150.784781 173.061538 150.809815 174.297692 150.833248 175.533846 150.855066 176.770000 150.875257 178.006154 150.893809 179.242308 150.910711 180.478462 150.925948 181.714615 150.939510 182.950769 150.951383 184.186923 150.961556 185.423077 150.970015 186.659231 150.976750 187.895385 150.981747 189.131538 150.984994 190.367692 150.986479 191.603846 150.986189 192.840000 150.984113 194.076154 150.980237 195.312308 150.974550 196.548462 150.967039 197.784615 150.957692 199.020769 150.946497 200.256923 150.933440 201.493077 150.918511 202.729231 150.901696 203.965385 150.882984 205.201538 150.862361 206.437692 150.839816 207.673846 150.815336 208.910000 150.788909 210.146154 150.760523 211.382308 150.730165 212.618462 150.697823 213.854615 150.663485 215.090769 150.627138 216.326923 150.588770 217.563077 150.548369 218.799231 150.505922 220.035385 150.461417 221.271538 150.414842 222.507692 150.366185 223.743846 150.315432 224.980000 150.262572 226.216154 150.207593 227.452308 150.150481 228.688462 150.091226 229.924615 150.029814 231.160769 149.966233 232.396923 149.900471 233.633077 149.832515 234.869231 149.762354 236.105385 149.689974 237.341538 149.615364 238.577692 149.538511 239.813846 149.459403 241.050000 149.378028 242.286154 149.294373 243.522308 149.208425 244.758462 149.120174 245.994615 149.029605 247.230769 148.936708 248.466923 148.841469 249.703077 148.743876 250.939231 148.643918 252.175385 148.541581 253.411538 148.436853 254.647692 148.329722 255.883846 148.220176 257.120000 148.108203 258.356154 147.993789 259.592308 147.876923 260.828462 147.757593 262.064615 147.635785 263.300769 147.511488 264.536923 147.384690 265.773077 147.255378 267.009231 147.123539 268.245385 146.989162 269.481538 146.852235 270.717692 146.712744 271.953846 146.570677 273.190000 146.426022 274.426154 146.278768 275.662308 146.128901 276.898462 145.976409 278.134615 145.821280 279.370769 145.663501 280.606923 145.503061 281.843077 145.339947 283.079231 145.174146 284.315385 145.005646 285.551538 144.834435 286.787692 144.660501 288.023846 144.483832 289.260000 144.304414 290.496154 144.122236 291.732308 143.937285 292.968462 143.749549 294.204615 143.559016 295.440769 143.365673 296.676923 143.169508 297.913077 142.970508 299.149231 142.768663 300.385385 142.563958 301.621538 142.356382 302.857692 142.145922 304.093846 141.932567 305.330000 141.716303 306.566154 141.497118 307.802308 141.275001 309.038462 141.049938 310.274615 140.821918 311.510769 140.590928 312.746923 140.356956 313.983077 140.119990 315.219231 139.880016 316.455385 139.637024 317.691538 139.391000 318.927692 139.141932 320.163846 138.889808 321.400000 138.634615 322.636154 138.376346 323.872308 138.115009 325.108462 137.850615 326.344615 137.583178 327.580769 137.312709 328.816923 137.039221 330.053077 136.762726 331.289231 136.483236 332.525385 136.200765 333.761538 135.915323 334.997692 135.626924 336.233846 135.335580 337.470000 135.041303 338.706154 134.744105 339.942308 134.443999 341.178462 134.140997 342.414615 133.835112 343.650769 133.526355 344.886923 133.214739 346.123077 132.900277 347.359231 132.582980 348.595385 132.262862 349.831538 131.939933 351.067692 131.614208 352.303846 131.285697 353.540000 130.954414 354.776154 130.620370 356.012308 130.283578 357.248462 129.944051 358.484615 129.601800 359.720769 129.256838 360.956923 128.909177 362.193077 128.558830 363.429231 128.205809 364.665385 127.850126 365.901538 127.491793 367.137692 127.130824 368.373846 126.767229 369.610000 126.401022 370.846154 126.032215 372.082308 125.660820 373.318462 125.286850 374.554615 124.910316 375.790769 124.531232 377.026923 124.149609 378.263077 123.765459 379.499231 123.378796 380.735385 122.989631 381.971538 122.597977 383.207692 122.203846 384.443846 121.807251 385.680000 121.408203 386.916154 121.006715 388.152308 120.602799 389.388462 120.196468 390.624615 119.787734 391.860769 119.376610 393.096923 118.963107 394.333077 118.547238 395.569231 118.129015 396.805385 117.708451 398.041538 117.285558 399.277692 116.860348 400.513846 116.432834 401.750000 116.003028 402.986154 115.570942 404.222308 115.136588 405.458462 114.699980 406.694615 114.261128 407.930769 113.820046 409.166923 113.376746 410.403077 112.931240 411.639231 112.483541 412.875385 112.033660 414.111538 111.581611 415.347692 111.127405 416.583846 110.671054 417.820000 110.212572 419.056154 109.751970 420.292308 109.289262 421.528462 108.824458 422.764615 108.357571 424.000769 107.888614 425.236923 107.417600 426.473077 106.944539 427.709231 106.469446 428.945385 105.992331 430.181538 105.513208 431.417692 105.032088 432.653846 104.548985 433.890000 104.063909 435.126154 103.576875 436.362308 103.087893 437.598462 102.596976 438.834615 102.104137 440.070769 101.609389 441.306923 101.112742 442.543077 100.614210 443.779231 100.113804 445.015385 99.611538 446.251538 99.107424 447.487692 98.601473 448.723846 98.093699 449.960000 97.584113 451.196154 97.072728 452.432308 96.559556 453.668462 96.044609 454.904615 95.527901 456.140769 95.009442 457.376923 94.489246 458.613077 93.967325 459.849231 93.443691 461.085385 92.918356 462.321538 92.391333 463.557692 91.862634 464.793846 91.332271 466.030000 90.800257 467.266154 90.266604 468.502308 89.731325 469.738462 89.194431 470.974615 88.655935 472.210769 88.115849 473.446923 87.574186 474.683077 87.030959 475.919231 86.486178 477.155385 85.939857 478.391538 85.392008 479.627692 84.842643 480.863846 84.291775 482.100000 83.739415 483.336154 83.185577 484.572308 82.630273 485.808462 82.073514 487.044615 81.515314 488.280769 80.955684 489.516923 80.394637 490.753077 79.832185 491.989231 79.268340 493.225385 78.703116 494.461538 78.136523 495.697692 77.568575 496.933846 76.999284 498.170000 76.428662 499.406154 75.856721 500.642308 75.283474 501.878462 74.708933 503.114615 74.133111 504.350769 73.556019 505.586923 72.977670 506.823077 72.398077 508.059231 71.817251 509.295385 71.235206 510.531538 70.651952 511.767692 70.067504 513.003846 69.481872 514.240000 68.895070 515.476154 68.307109 516.712308 67.718002 517.948462 67.127762 519.184615 66.536400 520.420769 65.943929 521.656923 65.350361 522.893077 64.755709 524.129231 64.159985 525.365385 63.563201 526.601538 62.965369 527.837692 62.366503 529.073846 61.766613 530.310000 61.165713 531.546154 60.563815 532.782308 59.960931 534.018462 59.357074 535.254615 58.752255 536.490769 58.146488 537.726923 57.539784 538.963077 56.932155 540.199231 56.323615 541.435385 55.714175 542.671538 55.103848 543.907692 54.492646 545.143846 53.880582 546.380000 53.267667 547.616154 52.653914 548.852308 52.039335 550.088462 51.423943 551.324615 50.807750 552.560769 50.190769 553.796923 49.573011 555.033077 48.954489 556.269231 48.335215 557.505385 47.715202 558.741538 47.094462 559.977692 46.473007 561.213846 45.850850 562.450000 45.228003 563.686154 44.604478 564.922308 43.980287 566.158462 43.355444 567.394615 42.729959 568.630769 42.103846 569.866923 41.477117 571.103077 40.849784 572.339231 40.221860 573.575385 39.593356 574.811538 38.964286 576.047692 38.334661 577.283846 37.704493 578.520000 37.073796 579.756154 36.442581 580.992308 35.810862 582.228462 35.178649 583.464615 34.545955 584.700769 33.912793 585.936923 33.279176 587.173077 32.645114 588.409231 32.010622 589.645385 31.375710 590.881538 30.740392 592.117692 30.104679 593.353846 29.468585 594.590000 28.832120 595.826154 28.195299 597.062308 27.558132 598.298462 26.920632 599.534615 26.282812 600.770769 25.644685 602.006923 25.006261 603.243077 24.367554 604.479231 23.728575 605.715385 23.089338 606.951538 22.449855 608.187692 21.810137 609.423846 21.170198 610.660000 20.530049 611.896154 19.889703 613.132308 19.249172 614.368462 18.608468 615.604615 17.967605 616.840769 17.326593 618.076923 16.685446 619.313077 16.044176 620.549231 15.402795 621.785385 14.761315 623.021538 14.119749 624.257692 13.478109 625.493846 12.836407 626.730000 12.194656 627.966154 11.552868 629.202308 10.911056 630.438462 10.269231" /></g><g class="series serie-2 color-2"><path class="line reactive nofill" d="M12.361538 523.730769 L13.597692 523.730769 14.833846 523.730769 16.070000 523.730769 17.306154 523.730769 18.542308 523.730769 19.778462 523.730769 21.014615 523.730769 22.250769 523.730769 23.486923 523.730769 24.723077 523.730769 25.959231 523.730769 27.195385 523.730769 28.431538 523.730769 29.667692 523.730769 30.903846 523.730769 32.140000 523.730769 33.376154 523.730769 34.612308 523.730769 35.848462 523.730769 37.084615 523.730769 38.320769 523.730769 39.556923 523.730769 40.793077 523.730769 42.029231 523.730769 43.265385 523.730769 44.501538 523.730769 45.737692 523.730769 46.973846 523.730769 48.210000 523.730769 49.446154 523.730769 50.682308 523.730769 51.918462 523.730769 53.154615 523.730769 54.390769 523.730769 55.626923 523.730769 56.863077 523.730769 58.099231 523.730769 59.335385 523.730769 60.571538 523.730769 61.807692 523.730769 63.043846 523.730769 64.280000 523.730769 65.516154 523.730769 66.752308 523.730769 67.988462 523.730769 69.224615 523.730769 70.460769 523.730769 71.696923 523.730769 72.933077 523.730769 74.169231 523.730769 75.405385 523.730769 76.641538 523.730769 77.877692 523.730769 79.113846 523.730769 80.350000 523.730769 81.586154 523.730769 82.822308 523.730769 84.058462 523.730769 85.294615 523.730769 86.530769 523.730769 87.766923 523.730769 89.003077 523.730769 90.239231 523.730769 91.475385 523.730769 92.711538 523.730769 93.947692 523.730769 95.183846 523.730769 96.420000 523.730769 97.656154 523.730769 98.892308 523.730769 100.128462 523.730769 101.364615 523.730769 102.600769 523.730769 103.836923 523.730769 105.073077 523.730769 106.309231 523.730769 107.545385 523.730769 108.781538 523.730769 110.017692 523.730769 111.253846 523.730769 112.490000 523.730769 113.726154 523.730769 114.962308 523.730769 116.198462 523.730769 117.434615 523.730769 118.670769 523.730769 119.906923 523.730769 121.143077 523.730769 122.379231 523.730769 123.615385 523.730769 124.851538 523.730769 126.087692 523.730769 127.323846 523.730769 128.560000 523.730769 129.796154 523.730769 131.032308 523.730769 132.268462 523.730769 133.504615 523.730769 134.740769 523.730769 135.976923 523.730769 137.213077 523.730769 138.449231 523.730769 139.685385 523.730769 140.921538 523.730769 142.157692 523.730769 143.393846 523.730769 144.630000 523.730769 145.866154 523.730769 147.102308 523.730769 148.338462 523.730769 149.574615 523.730769 150.810769 523.730769 152.046923 523.730769 153.283077 523.730769 154.519231 523.730769 155.755385 523.730769 156.991538 523.730769 158.227692 523.730769 159.463846 523.730769 160.700000 523.730769 161.936154 523.730769 163.172308 523.730769 164.408462 523.730769 165.644615 523.730769 166.880769 523.730769 168.116923 523.730769 169.353077 523.730769 170.589231 523.730769 171.825385 523.730769 173.061538 523.730769 174.297692 523.730769 175.533846 523.730769 176.770000 523.730769 178.006154 523.730769 179.242308 523.730769 180.478462 523.730769 181.714615 523.730769 182.950769 523.730769 184.186923 523.730769 185.423077 523.730769 186.659231 523.730769 187.895385 523.730769 189.131538 523.730769 190.367692 523.730769 191.603846 523.730769 192.840000 523.730769 194.076154 523.730769 195.312308 523.730769 196.548462 523.730769 197.784615 523.730769 199.020769 523.730769 200.256923 523.730769 201.493077 523.730769 202.729231 523.730769 203.965385 523.730769 205.201538 523.730769 206.437692 523.730769 207.673846 523.730769 208.910000 523.730769 210.146154 523.730769 211.382308 523.730769 212.618462 523.730769 213.854615 523.730769 215.090769 523.730769 216.326923 523.730769 217.563077 523.730769 218.799231 523.730769 220.035385 523.730769 221.271538 523.730769 222.507692 523.730769 223.743846 523.730769 224.980000 523.730769 226.216154 523.730769 227.452308 523.730769 228.688462 523.730769 229.924615 523.730769 231.160769 523.730769 232.396923 523.730769 233.633077 523.730769 234.869231 523.730769 236.105385 523.730769 237.341538 523.730769 238.577692 523.730769 239.813846 523.730769 241.050000 523.730769 242.286154 523.730769 243.522308 523.730769 244.758462 523.730769 245.994615 523.730769 247.230769 523.730769 248.466923 523.730769 249.703077 523.730769 250.939231 523.730769 252.175385 523.730769 253.411538 523.730769 254.647692 523.730769 255.883846 523.730769 257.120000 523.730769 258.356154 523.730769 259.592308 523.730769 260.828462 523.730769 262.064615 523.730769 263.300769 523.730769 264.536923 523.730769 265.773077 523.730769 267.009231 523.730769 268.245385 523.730769 269.481538 523.730769 270.717692 523.730769 271.953846 523.730769 273.190000 523.730769 274.426154 523.730769 275.662308 523.730769 276.898462 523.730769 278.134615 523.730769 279.370769 523.730769 280.606923 523.730769 281.843077 523.730769 283.079231 523.730769 284.315385 523.730769 285.551538 523.730769 286.787692 523.730769 288.023846 523.730769 289.260000 523.730769 290.496154 523.730769 291.732308 523.730769 292.968462 523.730769 294.204615 523.730769 295.440769 523.730769 296.676923 523.730769 297.913077 523.730769 299.149231 523.730769 300.385385 523.730769 301.621538 523.730769 302.857692 523.730769 304.093846 523.730769 305.330000 523.730769 306.566154 523.730769 307.802308 523.730769 309.038462 523.730769 310.274615 523.730769 311.510769 523.730769 312.746923 523.730769 313.983077 523.730769 315.219231 523.730769 316.455385 523.730769 317.691538 523.730769 318.927692 523.730769 320.163846 523.730769 321.400000 523.730769" /></g></g><g class="titles"><text class="title plot_title" x="400.0" y="26">tagMac: 0x5f8d49</text></g><g class="plot overlay" transform="translate(137, 46)"><g class="series serie-0 color-0"><g class="dots"><circle class="dot reactive tooltip-trigger" cx="12.36153846153846" cy="395.36538461538476" r="2.5" /><desc class="value">-62</desc><desc class="x top">12.36153846153846</desc><desc class="y top">395.36538461538476</desc></g><g class="dots"><circle class="dot reactive tooltip-trigger" cx="321.4" cy="523.7307692307694" r="2.5" /><desc class="value">-63</desc><desc class="x top">321.4</desc><desc class="y top">523.7307692307694</desc></g></g><g class="series serie-1 color-1"><g class="dots"><circle class="dot reactive tooltip-trigger" cx="12.36153846153846" cy="138.63461538461524" r="2.5" /><desc class="value">-60</desc><desc class="x ">12.36153846153846</desc><desc class="y ">138.63461538461524</desc></g><g class="dots"><circle class="dot reactive tooltip-trigger" cx="321.4" cy="138.63461538461524" r="2.5" /><desc class="value">-60</desc><desc class="x ">321.4</desc><desc class="y ">138.63461538461524</desc></g><g class="dots"><circle class="dot reactive tooltip-trigger" cx="630.4384615384615" cy="10.269230769230603" r="2.5" /><desc class="value">-59</desc><desc class="x left">630.4384615384615</desc><desc class="y left">10.269230769230603</desc></g></g><g class="series serie-2 color-2"><g class="dots"><circle class="dot reactive tooltip-trigger" cx="12.36153846153846" cy="523.7307692307694" r="2.5" /><desc class="value">-63</desc><desc class="x top">12.36153846153846</desc><desc class="y top">523.7307692307694</desc></g><g class="dots"><circle class="dot reactive tooltip-trigger" cx="321.4" cy="523.7307692307694" r="2.5" /><desc class="value">-63</desc><desc class="x top">321.4</desc><desc class="y top">523.7307692307694</desc></g></g></g><g class="plot text-overlay" transform="translate(137, 46)"><g class="series serie-0 color-0" /><g class="series serie-1 color-1" /><g class="series serie-2 color-2" /></g><g class="plot tooltip-overlay" transform="translate(137, 46)"><g class="tooltip" style="opacity: 0" transform="translate(0 0)"><rect class="tooltip-box" height="0" rx="0" ry="0" width="0" /><g class="text" /></g></g><g class="legends" transform="translate(10, 56)"><g class="legend reactive activate-serie" id="activate-serie-0"><rect class="color-0 reactive" height="12" width="12" x="0.0" y="1.0" /><text x="17.0" y="11.2">2dd04da8</text></g><g class="legend reactive activate-serie" id="activate-serie-1"><rect class="color-1 reactive" height="12" width="12" x="0.0" y="22.0" /><text x="17.0" y="32.2">0b3312e6</text></g><g class="legend reactive activate-serie" id="activate-serie-2"><rect class="color-2 reactive" height="12" width="12" x="0.0" y="43.0" /><text x="17.0" y="53.2">b820b292</text></g></g><g class="legends" transform="translate(790, 56)" /></g></svg>