<?xml version='1.0' encoding='utf-8'?>
<svg xmlns:xlink="http://www.w3.org/1999/xlink" class="pygal-chart" id="chart-1e2d004c-0ebc-4431-bf34-4319b8a608bc" viewBox="0 0 800 600" xmlns="http://www.w3.org/2000/svg"><!--Generated with pygal 2.4.0 (etree) ©Kozea 2012-2016 on 2019-11-21--><!--http://pygal.org--><!--http://github.com/Kozea/pygal--><defs><style type="text/css">#chart-1e2d004c-0ebc-4431-bf34-4319b8a608bc{-webkit-user-select:none;-webkit-font-smoothing:antialiased;font-family:Consolas,"Liberation Mono",Menlo,Courier,monospace}#chart-1e2d004c-0ebc-4431-bf34-4319b8a608bc .title{font-family:Consolas,"Liberation Mono",Menlo,Courier,monospace;font-size:16px}#chart-1e2d004c-0ebc-4431-bf34-4319b8a608bc .legends .legend text{font-family:Consolas,"Liberation Mono",Menlo,Courier,monospace;font-size:14px}#chart-1e2d004c-0ebc-4431-bf34-4319b8a608bc .axis text{font-family:Consolas,"Liberation Mono",Menlo,Courier,monospace;font-size:10px}#chart-1e2d004c-0ebc-4431-bf34-4319b8a608bc .axis text.major{font-family:Consolas,"Liberation Mono",Menlo,Courier,monospace;font-size:10px}#chart-1e2d004c-0ebc-4431-bf34-4319b8a608bc .text-overlay text.value{font-family:Consolas,"Liberation Mono",Menlo,Courier,monospace;font-size:16px}#chart-1e2d004c-0ebc-4431-bf34-4319b8a608bc .text-overlay text.label{font-family:Consolas,"Liberation Mono",Menlo,Courier,monospace;font-size:10px}#chart-1e2d004c-0ebc-4431-bf34-4319b8a608bc .tooltip{font-family:Consolas,"Liberation Mono",Menlo,Courier,monospace;font-size:14px}#chart-1e2d004c-0ebc-4431-bf34-4319b8a608bc text.no_data{font-family:Consolas,"Liberation Mono",Menlo,Courier,monospace;font-size:64px}
#chart-1e2d004c-0ebc-4431-bf34-4319b8a608bc{background-color:rgba(249,249,249,1)}#chart-1e2d004c-0ebc-4431-bf34-4319b8a608bc path,#chart-1e2d004c-0ebc-4431-bf34-4319b8a608bc line,#chart-1e2d004c-0ebc-4431-bf34-4319b8a608bc rect,#chart-1e2d004c-0ebc-4431-bf34-4319b8a608bc circle{-webkit-transition:150ms;-moz-transition:150ms;transition:150ms}#chart-1e2d004c-0ebc-4431-bf34-4319b8a608bc .graph &gt; .background{fill:rgba(249,249,249,1)}#chart-1e2d004c-0ebc-4431-bf34-4319b8a608bc .plot &gt; .background{fill:rgba(255,255,255,1)}#chart-1e2d004c-0ebc-4431-bf34-4319b8a608bc .graph{fill:rgba(0,0,0,.87)}#chart-1e2d004c-0ebc-4431-bf34-4319b8a608bc text.no_data{fill:rgba(0,0,0,1)}#chart-1e2d004c-0ebc-4431-bf34-4319b8a608bc .title{fill:rgba(0,0,0,1)}#chart-1e2d004c-0ebc-4431-bf34-4319b8a608bc .legends .legend text{fill:rgba(0,0,0,.87)}#chart-1e2d004c-0ebc-4431-bf34-4319b8a608bc .legends .legend:hover text{fill:rgba(0,0,0,1)}#chart-1e2d004c-0ebc-4431-bf34-4319b8a608bc .axis .line{stroke:rgba(0,0,0,1)}#chart-1e2d004c-0ebc-4431-bf34-4319b8a608bc .axis .guide.line{stroke:rgba(0,0,0,.54)}#chart-1e2d004c-0ebc-4431-bf34-4319b8a608bc .axis .major.line{stroke:rgba(0,0,0,.87)}#chart-1e2d004c-0ebc-4431-bf34-4319b8a608bc .axis text.major{fill:rgba(0,0,0,1)}#chart-1e2d004c-0ebc-4431-bf34-4319b8a608bc .axis.y .guides:hover .guide.line,#chart-1e2d004c-0ebc-4431-bf34-4319b8a608bc .line-graph .axis.x .guides:hover .guide.line,#chart-1e2d004c-0ebc-4431-bf34-4319b8a608bc .stackedline-graph .axis.x .guides:hover .guide.line,#chart-1e2d004c-0ebc-4431-bf34-4319b8a608bc .xy-graph .axis.x .guides:hover .guide.line{stroke:rgba(0,0,0,1)}#chart-1e2d004c-0ebc-4431-bf34-4319b8a608bc .axis .guides:hover text{fill:rgba(0,0,0,1)}#chart-1e2d004c-0ebc-4431-bf34-4319b8a608bc .reactive{fill-opacity:.7;stroke-opacity:.8}#chart-1e2d004c-0ebc-4431-bf34-4319b8a608bc .ci{stroke:rgba(0,0,0,.87)}#chart-1e2d004c-0ebc-4431-bf34-4319b8a608bc .reactive.active,#chart-1e2d004c-0ebc-4431-bf34-4319b8a608bc .active .reactive{fill-opacity:.8;stroke-opacity:.9;stroke-width:4}#chart-1e2d004c-0ebc-4431-bf34-4319b8a608bc .ci .reactive.active{stroke-width:1.5}#chart-1e2d004c-0ebc-4431-bf34-4319b8a608bc .series text{fill:rgba(0,0,0,1)}#chart-1e2d004c-0ebc-4431-bf34-4319b8a608bc .tooltip rect{fill:rgba(255,255,255,1);stroke:rgba(0,0,0,1);-webkit-transition:opacity 150ms;-moz-transition:opacity 150ms;transition:opacity 150ms}#chart-1e2d004c-0ebc-4431-bf34-4319b8a608bc .tooltip .label{fill:rgba(0,0,0,.87)}#chart-1e2d004c-0ebc-4431-bf34-4319b8a608bc .tooltip .label{fill:rgba(0,0,0,.87)}#chart-1e2d004c-0ebc-4431-bf34-4319b8a608bc .tooltip .legend{font-size:.8em;fill:rgba(0,0,0,.54)}#chart-1e2d004c-0ebc-4431-bf34-4319b8a608bc .tooltip .x_label{font-size:.6em;fill:rgba(0,0,0,1)}#chart-1e2d004c-0ebc-4431-bf34-4319b8a608bc .tooltip .xlink{font-size:.5em;text-decoration:underline}#chart-1e2d004c-0ebc-4431-bf34-4319b8a608bc .tooltip .value{font-size:1.5em}#chart-1e2d004c-0ebc-4431-bf34-4319b8a608bc .bound{font-size:.5em}#chart-1e2d004c-0ebc-4431-bf34-4319b8a608bc .max-value{font-size:.75em;fill:rgba(0,0,0,.54)}#chart-1e2d004c-0ebc-4431-bf34-4319b8a608bc .map-element{fill:rgba(255,255,255,1);stroke:rgba(0,0,0,.54) !important}#chart-1e2d004c-0ebc-4431-bf34-4319b8a608bc .map-element .reactive{fill-opacity:inherit;stroke-opacity:inherit}#chart-1e2d004c-0ebc-4431-bf34-4319b8a608bc .color-0,#chart-1e2d004c-0ebc-4431-bf34-4319b8a608bc .color-0 a:visited{stroke:#F44336;fill:#F44336}#chart-1e2d004c-0ebc-4431-bf34-4319b8a608bc .color-1,#chart-1e2d004c-0ebc-4431-bf34-4319b8a608bc .color-1 a:visited{stroke:#3F51B5;fill:#3F51B5}#chart-1e2d004c-0ebc-4431-bf34-4319b8a608bc .color-2,#chart-1e2d004c-0ebc-4431-bf34-4319b8a608bc .color-2 a:visited{stroke:#009688;fill:#009688}#chart-1e2d004c-0ebc-4431-bf34-4319b8a608bc .text-overlay .color-0 text{fill:black}#chart-1e2d004c-0ebc-4431-bf34-4319b8a608bc .text-overlay .color-1 text{fill:black}#chart-1e2d004c-0ebc-4431-bf34-4319b8a608bc .text-overlay .color-2 text{fill:black}
#chart-1e2d004c-0ebc-4431-bf34-4319b8a608bc text.no_data{text-anchor:middle}#chart-1e2d004c-0ebc-4431-bf34-4319b8a608bc .guide.line{fill:none}#chart-1e2d004c-0ebc-4431-bf34-4319b8a608bc .centered{text-anchor:middle}#chart-1e2d004c-0ebc-4431-bf34-4319b8a608bc .title{text-anchor:middle}#chart-1e2d004c-0ebc-4431-bf34-4319b8a608bc .legends .legend text{fill-opacity:1}#chart-1e2d004c-0ebc-4431-bf34-4319b8a608bc .axis.x text{text-anchor:middle}#chart-1e2d004c-0ebc-4431-bf34-4319b8a608bc .axis.x:not(.web) text[transform]{text-anchor:start}#chart-1e2d004c-0ebc-4431-bf34-4319b8a608bc .axis.x:not(.web) text[transform].backwards{text-anchor:end}#chart-1e2d004c-0ebc-4431-bf34-4319b8a608bc .axis.y text{text-anchor:end}#chart-1e2d004c-0ebc-4431-bf34-4319b8a608bc .axis.y text[transform].backwards{text-anchor:start}#chart-1e2d004c-0ebc-4431-bf34-4319b8a608bc .axis.y2 text{text-anchor:start}#chart-1e2d004c-0ebc-4431-bf34-4319b8a608bc .axis.y2 text[transform].backwards{text-anchor:end}#chart-1e2d004c-0ebc-4431-bf34-4319b8a608bc .axis .guide.line{stroke-dasharray:4,4}#chart-1e2d004c-0ebc-4431-bf34-4319b8a608bc .axis .major.guide.line{stroke-dasharray:6,6}#chart-1e2d004c-0ebc-4431-bf34-4319b8a608bc .horizontal .axis.y .guide.line,#chart-1e2d004c-0ebc-4431-bf34-4319b8a608bc .horizontal .axis.y2 .guide.line,#chart-1e2d004c-0ebc-4431-bf34-4319b8a608bc .vertical .axis.x .guide.line{opacity:0}#chart-1e2d004c-0ebc-4431-bf34-4319b8a608bc .horizontal .axis.always_show .guide.line,#chart-1e2d004c-0ebc-4431-bf34-4319b8a608bc .vertical .axis.always_show .guide.line{opacity:1 !important}#chart-1e2d004c-0ebc-4431-bf34-4319b8a608bc .axis.y .guides:hover .guide.line,#chart-1e2d004c-0ebc-4431-bf34-4319b8a608bc .axis.y2 .guides:hover .guide.line,#chart-1e2d004c-0ebc-4431-bf34-4319b8a608bc .axis.x .guides:hover .guide.line{opacity:1}#chart-1e2d004c-0ebc-4431-bf34-4319b8a608bc .axis .guides:hover text{opacity:1}#chart-1e2d004c-0ebc-4431-bf34-4319b8a608bc .nofill{fill:none}#chart-1e2d004c-0ebc-4431-bf34-4319b8a608bc .subtle-fill{fill-opacity:.2}#chart-1e2d004c-0ebc-4431-bf34-4319b8a608bc .dot{stroke-width:1px;fill-opacity:1}#chart-1e2d004c-0ebc-4431-bf34-4319b8a608bc .dot.active{stroke-width:5px}#chart-1e2d004c-0ebc-4431-bf34-4319b8a608bc .dot.negative{fill:transparent}#chart-1e2d004c-0ebc-4431-bf34-4319b8a608bc text,#chart-1e2d004c-0ebc-4431-bf34-4319b8a608bc tspan{stroke:none !important}#chart-1e2d004c-0ebc-4431-bf34-4319b8a608bc .series text.active{opacity:1}#chart-1e2d004c-0ebc-4431-bf34-4319b8a608bc .tooltip rect{fill-opacity:.95;stroke-width:.5}#chart-1e2d004c-0ebc-4431-bf34-4319b8a608bc .tooltip text{fill-opacity:1}#chart-1e2d004c-0ebc-4431-bf34-4319b8a608bc .showable{visibility:hidden}#chart-1e2d004c-0ebc-4431-bf34-4319b8a608bc .showable.shown{visibility:visible}#chart-1e2d004c-0ebc-4431-bf34-4319b8a608bc .gauge-background{fill:rgba(229,229,229,1);stroke:none}#chart-1e2d004c-0ebc-4431-bf34-4319b8a608bc .bg-lines{stroke:rgba(249,249,249,1);stroke-width:2px}</style><script type="text/javascript">window.pygal = window.pygal || {};window.pygal.config = window.pygal.config || {};window.pygal.config['1e2d004c-0ebc-4431-bf34-4319b8a608bc'] = {"allow_interruptions": false, "box_mode": "extremes", "classes": ["pygal-chart"], "css": ["file://style.css", "file://graph.css"], "defs": [], "disable_xml_declaration": false, "dots_size": 2.5, "dynamic_print_values": false, "explicit_size": false, "fill": false, "force_uri_protocol": "https", "formatter": null, "half_pie": false, "height": 600, "include_x_axis": false, "inner_radius": 0, "interpolate": "cubic", "interpolation_parameters": {}, "interpolation_precision": 250, "inverse_y_axis": false, "js": ["//kozea.github.io/pygal.js/2.0.x/pygal-tooltips.min.js"], "legend_at_bottom": false, "legend_at_bottom_columns": null, "legend_box_size": 12, "logarithmic": false, "margin": 20, "margin_bottom": null, "margin_left": null, "margin_right": null, "margin_top": null, "max_scale": 16, "min_scale": 4, "missing_value_fill_truncation": "x", "no_data_text": "No data", "no_prefix": false, "order_min": null, "pretty_print": false, "print_labels": true, "print_values": false, "print_values_position": "center", "print_zeroes": true, "range": null, "rounded_bars": null, "secondary_range": null, "show_dots": true, "show_legend": true, "show_minor_x_labels": true, "show_minor_y_labels": true, "show_only_major_dots": false, "show_x_guides": false, "show_x_labels": true, "show_y_guides": true, "show_y_labels": true, "spacing": 10, "stack_from_top": false, "strict": false, "stroke": true, "stroke_style": null, "style": {"background": "rgba(249, 249, 249, 1)", "ci_colors": [], "colors": ["#F44336", "#3F51B5", "#009688", "#FFC107", "#FF5722", "#9C27B0", "#03A9F4", "#8BC34A", "#FF9800", "#E91E63", "#2196F3", "#4CAF50", "#FFEB3B", "#673AB7", "#00BCD4", "#CDDC39", "#9E9E9E", "#607D8B"], "font_family": "Consolas, \"Liberation Mono\", Menlo, Courier, monospace", "foreground": "rgba(0, 0, 0, .87)", "foreground_strong": "rgba(0, 0, 0, 1)", "foreground_subtle": "rgba(0, 0, 0, .54)", "guide_stroke_dasharray": "4,4", "label_font_family": "Consolas, \"Liberation Mono\", Menlo, Courier, monospace", "label_font_size": 10, "legend_font_family": "Consolas, \"Liberation Mono\", Menlo, Courier, monospace", "legend_font_size": 14, "major_guide_stroke_dasharray": "6,6", "major_label_font_family": "Consolas, \"Liberation Mono\", Menlo, Courier, monospace", "major_label_font_size": 10, "no_data_font_family": "Consolas, \"Liberation Mono\", Menlo, Courier, monospace", "no_data_font_size": 64, "opacity": ".7", "opacity_hover": ".8", "plot_background": "rgba(255, 255, 255, 1)", "stroke_opacity": ".8", "stroke_opacity_hover": ".9", "title_font_family": "Consolas, \"Liberation Mono\", Menlo, Courier, monospace", "title_font_size": 16, "tooltip_font_family": "Consolas, \"Liberation Mono\", Menlo, Courier, monospace", "tooltip_font_size": 14, "transition": "150ms", "value_background": "rgba(229, 229, 229, 1)", "value_colors": [], "value_font_family": "Consolas, \"Liberation Mono\", Menlo, Courier, monospace", "value_font_size": 16, "value_label_font_family": "Consolas, \"Liberation Mono\", Menlo, Courier, monospace", "value_label_font_size": 10}, "title": "tagMac: 0x5f8d4d", "tooltip_border_radius": 0, "tooltip_fancy_mode": true, "truncate_label": null, "truncate_legend": null, "width": 800, "x_label_rotation": 0, "x_labels": null, "x_labels_major": null, "x_labels_major_count": null, "x_labels_major_every": null, "x_title": null, "xrange": null, "y_label_rotation": 0, "y_labels": null, "y_labels_major": null, "y_labels_major_count": null, "y_labels_major_every": null, "y_title": null, "zero": 0, "legends": ["0b3312e6", "eec50c22", "1fc6a334"]}</script><script type="text/javascript" xlink:href="https://kozea.github.io/pygal.js/2.0.x/pygal-tooltips.min.js" /></defs><title>tagMac: 0x5f8d4d</title><g class="graph line-graph vertical"><rect class="background" height="600" width="800" x="0" y="0" /><g class="plot" transform="translate(137, 46)"><rect class="background" height="534" width="642.8" x="0" y="0" /><g class="axis y always_show"><path class="line" d="M0.000000 534.000000 h642.800000" /><g class="guides"><path class="major guide line" d="M0.000000 503.803989 h642.800000" /><text class="major" x="-5" y="507.30398882799403">-65</text><title>-65</title></g><g class="guides"><path class="guide line" d="M0.000000 421.548196 h642.800000" /><text class="" x="-5" y="425.04819581820016">-64</text><title>-64</title></g><g class="guides"><path class="guide line" d="M0.000000 339.292403 h642.800000" /><text class="" x="-5" y="342.7924028084063">-63</text><title>-63</title></g><g class="guides"><path class="guide line" d="M0.000000 257.036610 h642.800000" /><text class="" x="-5" y="260.5366097986124">-62</text><title>-62</title></g><g class="guides"><path class="guide line" d="M0.000000 174.780817 h642.800000" /><text class="" x="-5" y="178.28081678881853">-61</text><title>-61</title></g><g class="guides"><path class="major guide line" d="M0.000000 92.525024 h642.800000" /><text class="major" x="-5" y="96.02502377902465">-60</text><title>-60</title></g><g class="guides"><path class="guide line" d="M0.000000 10.269231 h642.800000" /><text class="" x="-5" y="13.769230769230717">-59</text><title>-59</title></g></g><g class="series serie-0 color-0"><path class="line reactive nofill" d="M12.361538 92.525024 L13.597692 94.663667 14.833846 96.802262 16.070000 98.940762 17.306154 101.079121 18.542308 103.217290 19.778462 105.355222 21.014615 107.492870 22.250769 109.630186 23.486923 111.767123 24.723077 113.903633 25.959231 116.039670 27.195385 118.175186 28.431538 120.310133 29.667692 122.444464 30.903846 124.578132 32.140000 126.711089 33.376154 128.843289 34.612308 130.974682 35.848462 133.105223 37.084615 135.234864 38.320769 137.363557 39.556923 139.491255 40.793077 141.617911 42.029231 143.743477 43.265385 145.867906 44.501538 147.991150 45.737692 150.113163 46.973846 152.233896 48.210000 154.353303 49.446154 156.471335 50.682308 158.587947 51.918462 160.703089 53.154615 162.816716 54.390769 164.928779 55.626923 167.039231 56.863077 169.148024 58.099231 171.255112 59.335385 173.360447 60.571538 175.463982 61.807692 177.565669 63.043846 179.665461 64.280000 181.763310 65.516154 183.859169 66.752308 185.952991 67.988462 188.044728 69.224615 190.134333 70.460769 192.221759 71.696923 194.306958 72.933077 196.389882 74.169231 198.470485 75.405385 200.548719 76.641538 202.624537 77.877692 204.697891 79.113846 206.768734 80.350000 208.837018 81.586154 210.902697 82.822308 212.965722 84.058462 215.026047 85.294615 217.083623 86.530769 219.138405 87.766923 221.190343 89.003077 223.239392 90.239231 225.285503 91.475385 227.328629 92.711538 229.368722 93.947692 231.405736 95.183846 233.439623 96.420000 235.470336 97.656154 237.497827 98.892308 239.522048 100.128462 241.542953 101.364615 243.560495 102.600769 245.574624 103.836923 247.585295 105.073077 249.592461 106.309231 251.596072 107.545385 253.596083 108.781538 255.592445 110.017692 257.585112 111.253846 259.574037 112.490000 261.559170 113.726154 263.540466 114.962308 265.517877 116.198462 267.491355 117.434615 269.460854 118.670769 271.426325 119.906923 273.387722 121.143077 275.344996 122.379231 277.298102 123.615385 279.246990 124.851538 281.191614 126.087692 283.131927 127.323846 285.067881 128.560000 286.999429 129.796154 288.926523 131.032308 290.849116 132.268462 292.767160 133.504615 294.680609 134.740769 296.589414 135.976923 298.493529 137.213077 300.392907 138.449231 302.287498 139.685385 304.177257 140.921538 306.062136 142.157692 307.942088 143.393846 309.817065 144.630000 311.687019 145.866154 313.551904 147.102308 315.411672 148.338462 317.266276 149.574615 319.115667 150.810769 320.959800 152.046923 322.798626 153.283077 324.632099 154.519231 326.460170 155.755385 328.282793 156.991538 330.099919 158.227692 331.911502 159.463846 333.717495 160.700000 335.517849 161.936154 337.312518 163.172308 339.101454 164.408462 340.884609 165.644615 342.661937 166.880769 344.433390 168.116923 346.198920 169.353077 347.958481 170.589231 349.712024 171.825385 351.459503 173.061538 353.200870 174.297692 354.936078 175.533846 356.665079 176.770000 358.387826 178.006154 360.104271 179.242308 361.814368 180.478462 363.518068 181.714615 365.215325 182.950769 366.906091 184.186923 368.590319 185.423077 370.267960 186.659231 371.938969 187.895385 373.603297 189.131538 375.260897 190.367692 376.911723 191.603846 378.555725 192.840000 380.192857 194.076154 381.823072 195.312308 383.446323 196.548462 385.062561 197.784615 386.671740 199.020769 388.273811 200.256923 389.868729 201.493077 391.456445 202.729231 393.036911 203.965385 394.610082 205.201538 396.175908 206.437692 397.734344 207.673846 399.285340 208.910000 400.828851 210.146154 402.364829 211.382308 403.893226 212.618462 405.413994 213.854615 406.927088 215.090769 408.432458 216.326923 409.930059 217.563077 411.419841 218.799231 412.901759 220.035385 414.375764 221.271538 415.841810 222.507692 417.299849 223.743846 418.749833 224.980000 420.191715 226.216154 421.625448 227.452308 423.050984 228.688462 424.468276 229.924615 425.877277 231.160769 427.277940 232.396923 428.670216 233.633077 430.054058 234.869231 431.429420 236.105385 432.796253 237.341538 434.154511 238.577692 435.504145 239.813846 436.845110 241.050000 438.177356 242.286154 439.500837 243.522308 440.815506 244.758462 442.121315 245.994615 443.418216 247.230769 444.706163 248.466923 445.985107 249.703077 447.255003 250.939231 448.515801 252.175385 449.767455 253.411538 451.009918 254.647692 452.243141 255.883846 453.467079 257.120000 454.681682 258.356154 455.886904 259.592308 457.082698 260.828462 458.269016 262.064615 459.445811 263.300769 460.613035 264.536923 461.770642 265.773077 462.918582 267.009231 464.056810 268.245385 465.185278 269.481538 466.303939 270.717692 467.412744 271.953846 468.511647 273.190000 469.600601 274.426154 470.679557 275.662308 471.748469 276.898462 472.807290 278.134615 473.855971 279.370769 474.894465 280.606923 475.922726 281.843077 476.940705 283.079231 477.948356 284.315385 478.945630 285.551538 479.932481 286.787692 480.908861 288.023846 481.874723 289.260000 482.830020 290.496154 483.774703 291.732308 484.708726 292.968462 485.632042 294.204615 486.544602 295.440769 487.446360 296.676923 488.337268 297.913077 489.217278 299.149231 490.086344 300.385385 490.944418 301.621538 491.791453 302.857692 492.627401 304.093846 493.452214 305.330000 494.265847 306.566154 495.068250 307.802308 495.859377 309.038462 496.639180 310.274615 497.407613 311.510769 498.164626 312.746923 498.910175 313.983077 499.644209 315.219231 500.366684 316.455385 501.077550 317.691538 501.776761 318.927692 502.464270 320.163846 503.140028 321.400000 503.803989 322.636154 504.456121 323.872308 505.096455 325.108462 505.725039 326.344615 506.341921 327.580769 506.947147 328.816923 507.540766 330.053077 508.122823 331.289231 508.693368 332.525385 509.252447 333.761538 509.800107 334.997692 510.336396 336.233846 510.861362 337.470000 511.375052 338.706154 511.877512 339.942308 512.368791 341.178462 512.848936 342.414615 513.317994 343.650769 513.776013 344.886923 514.223039 346.123077 514.659121 347.359231 515.084306 348.595385 515.498641 349.831538 515.902173 351.067692 516.294951 352.303846 516.677020 353.540000 517.048430 354.776154 517.409226 356.012308 517.759457 357.248462 518.099169 358.484615 518.428411 359.720769 518.747229 360.956923 519.055671 362.193077 519.353785 363.429231 519.641617 364.665385 519.919215 365.901538 520.186626 367.137692 520.443899 368.373846 520.691079 369.610000 520.928216 370.846154 521.155355 372.082308 521.372544 373.318462 521.579832 374.554615 521.777264 375.790769 521.964889 377.026923 522.142753 378.263077 522.310905 379.499231 522.469392 380.735385 522.618260 381.971538 522.757558 383.207692 522.887333 384.443846 523.007632 385.680000 523.118502 386.916154 523.219991 388.152308 523.312146 389.388462 523.395016 390.624615 523.468646 391.860769 523.533084 393.096923 523.588379 394.333077 523.634576 395.569231 523.671724 396.805385 523.699870 398.041538 523.719061 399.277692 523.729345 400.513846 523.730769 401.750000 523.723381 402.986154 523.707227 404.222308 523.682355 405.458462 523.648814 406.694615 523.606649 407.930769 523.555908 409.166923 523.496639 410.403077 523.428889 411.639231 523.352706 412.875385 523.268136 414.111538 523.175228 415.347692 523.074028 416.583846 522.964585 417.820000 522.846945 419.056154 522.721155 420.292308 522.587264 421.528462 522.445318 422.764615 522.295365 424.000769 522.137452 425.236923 521.971627 426.473077 521.797937 427.709231 521.616429 428.945385 521.427152 430.181538 521.230151 431.417692 521.025475 432.653846 520.813171 433.890000 520.593286 435.126154 520.365868 436.362308 520.130964 437.598462 519.888621 438.834615 519.638887 440.070769 519.381809 441.306923 519.117435 442.543077 518.845812 443.779231 518.566987 445.015385 518.281008 446.251538 517.987922 447.487692 517.687777 448.723846 517.380619 449.960000 517.066497 451.196154 516.745457 452.432308 516.417547 453.668462 516.082815 454.904615 515.741307 456.140769 515.393072 457.376923 515.038156 458.613077 514.676607 459.849231 514.308472 461.085385 513.933799 462.321538 513.552635 463.557692 513.165027 464.793846 512.771023 466.030000 512.370670 467.266154 511.964016 468.502308 511.551108 469.738462 511.131993 470.974615 510.706719 472.210769 510.275332 473.446923 509.837882 474.683077 509.394414 475.919231 508.944976 477.155385 508.489616 478.391538 508.028381 479.627692 507.561318 480.863846 507.088474 482.100000 506.609898 483.336154 506.125637 484.572308 505.635737 485.808462 505.140247 487.044615 504.639213 488.280769 504.132683 489.516923 503.620704 490.753077 503.103325 491.989231 502.580591 493.225385 502.052551 494.461538 501.519252 495.697692 500.980741 496.933846 500.437066 498.170000 499.888274 499.406154 499.334412 500.642308 498.775528 501.878462 498.211669 503.114615 497.642883 504.350769 497.069216 505.586923 496.490717 506.823077 495.907433 508.059231 495.319410 509.295385 494.726698 510.531538 494.129341 511.767692 493.527390 513.003846 492.920889 514.240000 492.309888 515.476154 491.694433 516.712308 491.074572 517.948462 490.450352 519.184615 489.821820 520.420769 489.189024 521.656923 488.552012 522.893077 487.910830 524.129231 487.265526 525.365385 486.616147 526.601538 485.962742 527.837692 485.305356 529.073846 484.644038 530.310000 483.978834 531.546154 483.309793 532.782308 482.636962 534.018462 481.960388 535.254615 481.280118 536.490769 480.596200 537.726923 479.908681 538.963077 479.217609 540.199231 478.523030 541.435385 477.824993 542.671538 477.123545 543.907692 476.418732 545.143846 475.710603 546.380000 474.999205 547.616154 474.284585 548.852308 473.566791 550.088462 472.845870 551.324615 472.121869 552.560769 471.394835 553.796923 470.664817 555.033077 469.931861 556.269231 469.196016 557.505385 468.457327 558.741538 467.715843 559.977692 466.971611 561.213846 466.224678 562.450000 465.475092 563.686154 464.722901 564.922308 463.968151 566.158462 463.210889 567.394615 462.451164 568.630769 461.689023 569.866923 460.924512 571.103077 460.157681 572.339231 459.388574 573.575385 458.617241 574.811538 457.843729 576.047692 457.068085 577.283846 456.290355 578.520000 455.510589 579.756154 454.728832 580.992308 453.945133 582.228462 453.159539 583.464615 452.372097 584.700769 451.582855 585.936923 450.791860 587.173077 449.999159 588.409231 449.204799 589.645385 448.408829 590.881538 447.611295 592.117692 446.812245 593.353846 446.011727 594.590000 445.209787 595.826154 444.406473 597.062308 443.601832 598.298462 442.795912 599.534615 441.988760 600.770769 441.180424 602.006923 440.370951 603.243077 439.560388 604.479231 438.748782 605.715385 437.936182 606.951538 437.122634 608.187692 436.308186 609.423846 435.492885 610.660000 434.676778 611.896154 433.859914 613.132308 433.042339 614.368462 432.224100 615.604615 431.405246 616.840769 430.585823 618.076923 429.765879 619.313077 428.945461 620.549231 428.124616 621.785385 427.303393 623.021538 426.481838 624.257692 425.659998 625.493846 424.837922 626.730000 424.015656 627.966154 423.193249 629.202308 422.370746 630.438462 421.548196" /></g><g class="series serie-1 color-1"><path class="line reactive nofill" d="M12.361538 257.036610 L13.597692 256.296309 14.833846 255.556016 16.070000 254.815739 17.306154 254.075485 18.542308 253.335264 19.778462 252.595081 21.014615 251.854946 22.250769 251.114867 23.486923 250.374850 24.723077 249.634905 25.959231 248.895038 27.195385 248.155258 28.431538 247.415573 29.667692 246.675991 30.903846 245.936520 32.140000 245.197166 33.376154 244.457939 34.612308 243.718847 35.848462 242.979896 37.084615 242.241096 38.320769 241.502453 39.556923 240.763977 40.793077 240.025674 42.029231 239.287552 43.265385 238.549620 44.501538 237.811886 45.737692 237.074357 46.973846 236.337041 48.210000 235.599946 49.446154 234.863080 50.682308 234.126451 51.918462 233.390067 53.154615 232.653936 54.390769 231.918065 55.626923 231.182462 56.863077 230.447136 58.099231 229.712095 59.335385 228.977345 60.571538 228.242896 61.807692 227.508754 63.043846 226.774929 64.280000 226.041427 65.516154 225.308256 66.752308 224.575426 67.988462 223.842943 69.224615 223.110815 70.460769 222.379050 71.696923 221.647657 72.933077 220.916642 74.169231 220.186015 75.405385 219.455782 76.641538 218.725952 77.877692 217.996532 79.113846 217.267532 80.350000 216.538957 81.586154 215.810817 82.822308 215.083119 84.058462 214.355871 85.294615 213.629082 86.530769 212.902758 87.766923 212.176907 89.003077 211.451539 90.239231 210.726660 91.475385 210.002279 92.711538 209.278403 93.947692 208.555040 95.183846 207.832199 96.420000 207.109886 97.656154 206.388111 98.892308 205.666880 100.128462 204.946202 101.364615 204.226085 102.600769 203.506536 103.836923 202.787564 105.073077 202.069176 106.309231 201.351380 107.545385 200.634185 108.781538 199.917598 110.017692 199.201626 111.253846 198.486278 112.490000 197.771562 113.726154 197.057486 114.962308 196.344057 116.198462 195.631284 117.434615 194.919174 118.670769 194.207735 119.906923 193.496975 121.143077 192.786902 122.379231 192.077524 123.615385 191.368849 124.851538 190.660885 126.087692 189.953639 127.323846 189.247119 128.560000 188.541334 129.796154 187.836292 131.032308 187.131999 132.268462 186.428465 133.504615 185.725696 134.740769 185.023702 135.976923 184.322489 137.213077 183.622066 138.449231 182.922440 139.685385 182.223620 140.921538 181.525613 142.157692 180.828427 143.393846 180.132071 144.630000 179.436551 145.866154 178.741877 147.102308 178.048055 148.338462 177.355094 149.574615 176.663002 150.810769 175.971786 152.046923 175.281454 153.283077 174.592015 154.519231 173.903477 155.755385 173.215846 156.991538 172.529131 158.227692 171.843340 159.463846 171.158481 160.700000 170.474562 161.936154 169.791590 163.172308 169.109573 164.408462 168.428520 165.644615 167.748439 166.880769 167.069336 168.116923 166.391221 169.353077 165.714100 170.589231 165.037983 171.825385 164.362876 173.061538 163.688788 174.297692 163.015726 175.533846 162.343699 176.770000 161.672714 178.006154 161.002779 179.242308 160.333903 180.478462 159.666092 181.714615 158.999356 182.950769 158.333701 184.186923 157.669136 185.423077 157.005669 186.659231 156.343307 187.895385 155.682059 189.131538 155.021932 190.367692 154.362934 191.603846 153.705073 192.840000 153.048357 194.076154 152.392794 195.312308 151.738392 196.548462 151.085159 197.784615 150.433102 199.020769 149.782230 200.256923 149.132550 201.493077 148.484070 202.729231 147.836799 203.965385 147.190743 205.201538 146.545912 206.437692 145.902312 207.673846 145.259952 208.910000 144.618840 210.146154 143.978984 211.382308 143.340390 212.618462 142.703069 213.854615 142.067026 215.090769 141.432270 216.326923 140.798810 217.563077 140.166653 218.799231 139.535806 220.035385 138.906278 221.271538 138.278077 222.507692 137.651210 223.743846 137.025685 224.980000 136.401511 226.216154 135.778696 227.452308 135.157246 228.688462 134.537170 229.924615 133.918476 231.160769 133.301172 232.396923 132.685266 233.633077 132.070765 234.869231 131.457678 236.105385 130.846012 237.341538 130.235775 238.577692 129.626976 239.813846 129.019621 241.050000 128.413720 242.286154 127.809279 243.522308 127.206307 244.758462 126.604812 245.994615 126.004802 247.230769 125.406283 248.466923 124.809266 249.703077 124.213756 250.939231 123.619763 252.175385 123.027293 253.411538 122.436356 254.647692 121.846958 255.883846 121.259108 257.120000 120.672814 258.356154 120.088083 259.592308 119.504924 260.828462 118.923344 262.064615 118.343351 263.300769 117.764953 264.536923 117.188159 265.773077 116.612975 267.009231 116.039410 268.245385 115.467471 269.481538 114.897168 270.717692 114.328506 271.953846 113.761495 273.190000 113.196143 274.426154 112.632456 275.662308 112.070444 276.898462 111.510114 278.134615 110.951473 279.370769 110.394530 280.606923 109.839293 281.843077 109.285769 283.079231 108.733967 284.315385 108.183895 285.551538 107.635559 286.787692 107.088969 288.023846 106.544131 289.260000 106.001055 290.496154 105.459747 291.732308 104.920216 292.968462 104.382470 294.204615 103.846516 295.440769 103.312363 296.676923 102.780018 297.913077 102.249489 299.149231 101.720784 300.385385 101.193912 301.621538 100.668879 302.857692 100.145694 304.093846 99.624365 305.330000 99.104899 306.566154 98.587305 307.802308 98.071590 309.038462 97.557762 310.274615 97.045830 311.510769 96.535800 312.746923 96.027682 313.983077 95.521483 315.219231 95.017210 316.455385 94.514872 317.691538 94.014476 318.927692 93.516031 320.163846 93.019544 321.400000 92.525024 322.636154 92.032475 323.872308 91.541892 325.108462 91.053268 326.344615 90.566594 327.580769 90.081862 328.816923 89.599065 330.053077 89.118195 331.289231 88.639244 332.525385 88.162204 333.761538 87.687067 334.997692 87.213825 336.233846 86.742470 337.470000 86.272995 338.706154 85.805391 339.942308 85.339651 341.178462 84.875767 342.414615 84.413730 343.650769 83.953533 344.886923 83.495168 346.123077 83.038628 347.359231 82.583903 348.595385 82.130987 349.831538 81.679871 351.067692 81.230548 352.303846 80.783009 353.540000 80.337247 354.776154 79.893254 356.012308 79.451022 357.248462 79.010543 358.484615 78.571809 359.720769 78.134812 360.956923 77.699545 362.193077 77.265999 363.429231 76.834167 364.665385 76.404040 365.901538 75.975611 367.137692 75.548872 368.373846 75.123815 369.610000 74.700432 370.846154 74.278715 372.082308 73.858656 373.318462 73.440248 374.554615 73.023482 375.790769 72.608351 377.026923 72.194846 378.263077 71.782961 379.499231 71.372686 380.735385 70.964014 381.971538 70.556938 383.207692 70.151448 384.443846 69.747538 385.680000 69.345199 386.916154 68.944424 388.152308 68.545204 389.388462 68.147532 390.624615 67.751400 391.860769 67.356800 393.096923 66.963724 394.333077 66.572164 395.569231 66.182113 396.805385 65.793561 398.041538 65.406502 399.277692 65.020928 400.513846 64.636830 401.750000 64.254201 402.986154 63.873033 404.222308 63.493318 405.458462 63.115048 406.694615 62.738215 407.930769 62.362812 409.166923 61.988829 410.403077 61.616261 411.639231 61.245097 412.875385 60.875332 414.111538 60.506956 415.347692 60.139963 416.583846 59.774343 417.820000 59.410089 419.056154 59.047194 420.292308 58.685649 421.528462 58.325446 422.764615 57.966578 424.000769 57.609036 425.236923 57.252813 426.473077 56.897901 427.709231 56.544292 428.945385 56.191978 430.181538 55.840951 431.417692 55.491203 432.653846 55.142727 433.890000 54.795514 435.126154 54.449557 436.362308 54.104847 437.598462 53.761377 438.834615 53.419139 440.070769 53.078125 441.306923 52.738327 442.543077 52.399737 443.779231 52.062348 445.015385 51.726150 446.251538 51.391138 447.487692 51.057302 448.723846 50.724634 449.960000 50.393128 451.196154 50.062774 452.432308 49.733565 453.668462 49.405493 454.904615 49.078551 456.140769 48.752730 457.376923 48.428022 458.613077 48.104420 459.849231 47.781915 461.085385 47.460501 462.321538 47.140168 463.557692 46.820908 464.793846 46.502715 466.030000 46.185581 467.266154 45.869496 468.502308 45.554454 469.738462 45.240446 470.974615 44.927464 472.210769 44.615502 473.446923 44.304550 474.683077 43.994601 475.919231 43.685647 477.155385 43.377680 478.391538 43.070692 479.627692 42.764675 480.863846 42.459622 482.100000 42.155524 483.336154 41.852374 484.572308 41.550164 485.808462 41.248885 487.044615 40.948531 488.280769 40.649092 489.516923 40.350561 490.753077 40.052931 491.989231 39.756193 493.225385 39.460339 494.461538 39.165362 495.697692 38.871253 496.933846 38.578005 498.170000 38.285610 499.406154 37.994060 500.642308 37.703347 501.878462 37.413463 503.114615 37.124401 504.350769 36.836152 505.586923 36.548708 506.823077 36.262061 508.059231 35.976205 509.295385 35.691130 510.531538 35.406829 511.767692 35.123294 513.003846 34.840517 514.240000 34.558490 515.476154 34.277205 516.712308 33.996655 517.948462 33.716832 519.184615 33.437726 520.420769 33.159332 521.656923 32.881640 522.893077 32.604644 524.129231 32.328334 525.365385 32.052703 526.601538 31.777744 527.837692 31.503448 529.073846 31.229807 530.310000 30.956814 531.546154 30.684461 532.782308 30.412739 534.018462 30.141641 535.254615 29.871159 536.490769 29.601285 537.726923 29.332011 538.963077 29.063329 540.199231 28.795232 541.435385 28.527711 542.671538 28.260759 543.907692 27.994367 545.143846 27.728528 546.380000 27.463234 547.616154 27.198477 548.852308 26.934249 550.088462 26.670542 551.324615 26.407349 552.560769 26.144661 553.796923 25.882470 555.033077 25.620769 556.269231 25.359550 557.505385 25.098804 558.741538 24.838524 559.977692 24.578703 561.213846 24.319331 562.450000 24.060402 563.686154 23.801906 564.922308 23.543838 566.158462 23.286188 567.394615 23.028948 568.630769 22.772111 569.866923 22.515669 571.103077 22.259614 572.339231 22.003938 573.575385 21.748633 574.811538 21.493692 576.047692 21.239105 577.283846 20.984867 578.520000 20.730967 579.756154 20.477400 580.992308 20.224156 582.228462 19.971228 583.464615 19.718608 584.700769 19.466288 585.936923 19.214260 587.173077 18.962517 588.409231 18.711049 589.645385 18.459851 590.881538 18.208913 592.117692 17.958227 593.353846 17.707787 594.590000 17.457583 595.826154 17.207608 597.062308 16.957855 598.298462 16.708314 599.534615 16.458979 600.770769 16.209842 602.006923 15.960893 603.243077 15.712127 604.479231 15.463534 605.715385 15.215107 606.951538 14.966838 608.187692 14.718719 609.423846 14.470742 610.660000 14.222900 611.896154 13.975183 613.132308 13.727585 614.368462 13.480098 615.604615 13.232714 616.840769 12.985424 618.076923 12.738221 619.313077 12.491097 620.549231 12.244044 621.785385 11.997054 623.021538 11.750119 624.257692 11.503232 625.493846 11.256385 626.730000 11.009568 627.966154 10.762776 629.202308 10.515999 630.438462 10.269231" /></g><g class="series serie-2 color-2"><path class="line reactive nofill" d="M12.361538 257.036610 L13.597692 257.530142 14.833846 258.023658 16.070000 258.517143 17.306154 259.010580 18.542308 259.503955 19.778462 259.997250 21.014615 260.490450 22.250769 260.983540 23.486923 261.476504 24.723077 261.969325 25.959231 262.461989 27.195385 262.954478 28.431538 263.446779 29.667692 263.938874 30.903846 264.430748 32.140000 264.922384 33.376154 265.413769 34.612308 265.904885 35.848462 266.395716 37.084615 266.886247 38.320769 267.376463 39.556923 267.866347 40.793077 268.355883 42.029231 268.845057 43.265385 269.333851 44.501538 269.822250 45.737692 270.310239 46.973846 270.797801 48.210000 271.284921 49.446154 271.771584 50.682308 272.257772 51.918462 272.743471 53.154615 273.228664 54.390769 273.713336 55.626923 274.197471 56.863077 274.681054 58.099231 275.164068 59.335385 275.646497 60.571538 276.128327 61.807692 276.609540 63.043846 277.090122 64.280000 277.570056 65.516154 278.049327 66.752308 278.527919 67.988462 279.005816 69.224615 279.483002 70.460769 279.959462 71.696923 280.435180 72.933077 280.910139 74.169231 281.384325 75.405385 281.857720 76.641538 282.330311 77.877692 282.802080 79.113846 283.273012 80.350000 283.743092 81.586154 284.212302 82.822308 284.680629 84.058462 285.148055 85.294615 285.614565 86.530769 286.080143 87.766923 286.544774 89.003077 287.008441 90.239231 287.471129 91.475385 287.932823 92.711538 288.393505 93.947692 288.853161 95.183846 289.311775 96.420000 289.769330 97.656154 290.225812 98.892308 290.681203 100.128462 291.135490 101.364615 291.588654 102.600769 292.040682 103.836923 292.491557 105.073077 292.941263 106.309231 293.389785 107.545385 293.837107 108.781538 294.283212 110.017692 294.728086 111.253846 295.171712 112.490000 295.614074 113.726154 296.055157 114.962308 296.494945 116.198462 296.933423 117.434615 297.370573 118.670769 297.806382 119.906923 298.240832 121.143077 298.673908 122.379231 299.105594 123.615385 299.535875 124.851538 299.964734 126.087692 300.392156 127.323846 300.818126 128.560000 301.242626 129.796154 301.665642 131.032308 302.087157 132.268462 302.507157 133.504615 302.925624 134.740769 303.342544 135.976923 303.757900 137.213077 304.171677 138.449231 304.583859 139.685385 304.994430 140.921538 305.403374 142.157692 305.810676 143.393846 306.216319 144.630000 306.620289 145.866154 307.022568 147.102308 307.423142 148.338462 307.821994 149.574615 308.219110 150.810769 308.614472 152.046923 309.008065 153.283077 309.399874 154.519231 309.789882 155.755385 310.178074 156.991538 310.564434 158.227692 310.948946 159.463846 311.331595 160.700000 311.712364 161.936154 312.091239 163.172308 312.468202 164.408462 312.843238 165.644615 313.216332 166.880769 313.587467 168.116923 313.956629 169.353077 314.323800 170.589231 314.688966 171.825385 315.052110 173.061538 315.413217 174.297692 315.772271 175.533846 316.129256 176.770000 316.484156 178.006154 316.836956 179.242308 317.187639 180.478462 317.536190 181.714615 317.882594 182.950769 318.226834 184.186923 318.568894 185.423077 318.908759 186.659231 319.246413 187.895385 319.581841 189.131538 319.915025 190.367692 320.245952 191.603846 320.574604 192.840000 320.900966 194.076154 321.225022 195.312308 321.546756 196.548462 321.866154 197.784615 322.183198 199.020769 322.497873 200.256923 322.810163 201.493077 323.120053 202.729231 323.427527 203.965385 323.732568 205.201538 324.035161 206.437692 324.335291 207.673846 324.632941 208.910000 324.928096 210.146154 325.220740 211.382308 325.510857 212.618462 325.798431 213.854615 326.083446 215.090769 326.365888 216.326923 326.645739 217.563077 326.922985 218.799231 327.197608 220.035385 327.469595 221.271538 327.738928 222.507692 328.005592 223.743846 328.269571 224.980000 328.530850 226.216154 328.789412 227.452308 329.045242 228.688462 329.298324 229.924615 329.548642 231.160769 329.796181 232.396923 330.040924 233.633077 330.282856 234.869231 330.521961 236.105385 330.758223 237.341538 330.991627 238.577692 331.222157 239.813846 331.449796 241.050000 331.674529 242.286154 331.896341 243.522308 332.115215 244.758462 332.331136 245.994615 332.544088 247.230769 332.754054 248.466923 332.961020 249.703077 333.164970 250.939231 333.365887 252.175385 333.563757 253.411538 333.758562 254.647692 333.950288 255.883846 334.138918 257.120000 334.324437 258.356154 334.506829 259.592308 334.686078 260.828462 334.862169 262.064615 335.035085 263.300769 335.204811 264.536923 335.371331 265.773077 335.534629 267.009231 335.694690 268.245385 335.851497 269.481538 336.005035 270.717692 336.155288 271.953846 336.302240 273.190000 336.445876 274.426154 336.586179 275.662308 336.723135 276.898462 336.856726 278.134615 336.986937 279.370769 337.113754 280.606923 337.237158 281.843077 337.357136 283.079231 337.473671 284.315385 337.586747 285.551538 337.696348 286.787692 337.802460 288.023846 337.905065 289.260000 338.004148 290.496154 338.099694 291.732308 338.191686 292.968462 338.280109 294.204615 338.364947 295.440769 338.446184 296.676923 338.523805 297.913077 338.597793 299.149231 338.668133 300.385385 338.734809 301.621538 338.797805 302.857692 338.857105 304.093846 338.912694 305.330000 338.964556 306.566154 339.012675 307.802308 339.057035 309.038462 339.097621 310.274615 339.134416 311.510769 339.167406 312.746923 339.196573 313.983077 339.221902 315.219231 339.243378 316.455385 339.260985 317.691538 339.274707 318.927692 339.284527 320.163846 339.290431 321.400000 339.292403 322.636154 339.290431 323.872308 339.284527 325.108462 339.274707 326.344615 339.260985 327.580769 339.243378 328.816923 339.221902 330.053077 339.196573 331.289231 339.167406 332.525385 339.134416 333.761538 339.097621 334.997692 339.057035 336.233846 339.012675 337.470000 338.964556 338.706154 338.912694 339.942308 338.857105 341.178462 338.797805 342.414615 338.734809 343.650769 338.668133 344.886923 338.597793 346.123077 338.523805 347.359231 338.446184 348.595385 338.364947 349.831538 338.280109 351.067692 338.191686 352.303846 338.099694 353.540000 338.004148 354.776154 337.905065 356.012308 337.802460 357.248462 337.696348 358.484615 337.586747 359.720769 337.473671 360.956923 337.357136 362.193077 337.237158 363.429231 337.113754 364.665385 336.986937 365.901538 336.856726 367.137692 336.723135 368.373846 336.586179 369.610000 336.445876 370.846154 336.302240 372.082308 336.155288 373.318462 336.005035 374.554615 335.851497 375.790769 335.694690 377.026923 335.534629 378.263077 335.371331 379.499231 335.204811 380.735385 335.035085 381.971538 334.862169 383.207692 334.686078 384.443846 334.506829 385.680000 334.324437 386.916154 334.138918 388.152308 333.950288 389.388462 333.758562 390.624615 333.563757 391.860769 333.365887 393.096923 333.164970 394.333077 332.961020 395.569231 332.754054 396.805385 332.544088 398.041538 332.331136 399.277692 332.115215 400.513846 331.896341 401.750000 331.674529 402.986154 331.449796 404.222308 331.222157 405.458462 330.991627 406.694615 330.758223 407.930769 330.521961 409.166923 330.282856 410.403077 330.040924 411.639231 329.796181 412.875385 329.548642 414.111538 329.298324 415.347692 329.045242 416.583846 328.789412 417.820000 328.530850 419.056154 328.269571 420.292308 328.005592 421.528462 327.738928 422.764615 327.469595 424.000769 327.197608 425.236923 326.922985 426.473077 326.645739 427.709231 326.365888 428.945385 326.083446 430.181538 325.798431 431.417692 325.510857 432.653846 325.220740 433.890000 324.928096 435.126154 324.632941 436.362308 324.335291 437.598462 324.035161 438.834615 323.732568 440.070769 323.427527 441.306923 323.120053 442.543077 322.810163 443.779231 322.497873 445.015385 322.183198 446.251538 321.866154 447.487692 321.546756 448.723846 321.225022 449.960000 320.900966 451.196154 320.574604 452.432308 320.245952 453.668462 319.915025 454.904615 319.581841 456.140769 319.246413 457.376923 318.908759 458.613077 318.568894 459.849231 318.226834 461.085385 317.882594 462.321538 317.536190 463.557692 317.187639 464.793846 316.836956 466.030000 316.484156 467.266154 316.129256 468.502308 315.772271 469.738462 315.413217 470.974615 315.052110 472.210769 314.688966 473.446923 314.323800 474.683077 313.956629 475.919231 313.587467 477.155385 313.216332 478.391538 312.843238 479.627692 312.468202 480.863846 312.091239 482.100000 311.712364 483.336154 311.331595 484.572308 310.948946 485.808462 310.564434 487.044615 310.178074 488.280769 309.789882 489.516923 309.399874 490.753077 309.008065 491.989231 308.614472 493.225385 308.219110 494.461538 307.821994 495.697692 307.423142 496.933846 307.022568 498.170000 306.620289 499.406154 306.216319 500.642308 305.810676 501.878462 305.403374 503.114615 304.994430 504.350769 304.583859 505.586923 304.171677 506.823077 303.757900 508.059231 303.342544 509.295385 302.925624 510.531538 302.507157 511.767692 302.087157 513.003846 301.665642 514.240000 301.242626 515.476154 300.818126 516.712308 300.392156 517.948462 299.964734 519.184615 299.535875 520.420769 299.105594 521.656923 298.673908 522.893077 298.240832 524.129231 297.806382 525.365385 297.370573 526.601538 296.933423 527.837692 296.494945 529.073846 296.055157 530.310000 295.614074 531.546154 295.171712 532.782308 294.728086 534.018462 294.283212 535.254615 293.837107 536.490769 293.389785 537.726923 292.941263 538.963077 292.491557 540.199231 292.040682 541.435385 291.588654 542.671538 291.135490 543.907692 290.681203 545.143846 290.225812 546.380000 289.769330 547.616154 289.311775 548.852308 288.853161 550.088462 288.393505 551.324615 287.932823 552.560769 287.471129 553.796923 287.008441 555.033077 286.544774 556.269231 286.080143 557.505385 285.614565 558.741538 285.148055 559.977692 284.680629 561.213846 284.212302 562.450000 283.743092 563.686154 283.273012 564.922308 282.802080 566.158462 282.330311 567.394615 281.857720 568.630769 281.384325 569.866923 280.910139 571.103077 280.435180 572.339231 279.959462 573.575385 279.483002 574.811538 279.005816 576.047692 278.527919 577.283846 278.049327 578.520000 277.570056 579.756154 277.090122 580.992308 276.609540 582.228462 276.128327 583.464615 275.646497 584.700769 275.164068 585.936923 274.681054 587.173077 274.197471 588.409231 273.713336 589.645385 273.228664 590.881538 272.743471 592.117692 272.257772 593.353846 271.771584 594.590000 271.284921 595.826154 270.797801 597.062308 270.310239 598.298462 269.822250 599.534615 269.333851 600.770769 268.845057 602.006923 268.355883 603.243077 267.866347 604.479231 267.376463 605.715385 266.886247 606.951538 266.395716 608.187692 265.904885 609.423846 265.413769 610.660000 264.922384 611.896154 264.430748 613.132308 263.938874 614.368462 263.446779 615.604615 262.954478 616.840769 262.461989 618.076923 261.969325 619.313077 261.476504 620.549231 260.983540 621.785385 260.490450 623.021538 259.997250 624.257692 259.503955 625.493846 259.010580 626.730000 258.517143 627.966154 258.023658 629.202308 257.530142 630.438462 257.036610" /></g></g><g class="titles"><text class="title plot_title" x="400.0" y="26">tagMac: 0x5f8d4d</text></g><g class="plot overlay" transform="translate(137, 46)"><g class="series serie-0 color-0"><g class="dots"><circle class="dot reactive tooltip-trigger" cx="12.36153846153846" cy="92.52502377902465" r="2.5" /><desc class="value">-60</desc><desc class="x ">12.36153846153846</desc><desc class="y ">92.52502377902465</desc></g><g class="dots"><circle class="dot reactive tooltip-trigger" cx="321.4" cy="503.80398882799403" r="2.5" /><desc class="value">-65</desc><desc class="x top">321.4</desc><desc class="y top">503.80398882799403</desc></g><g class="dots"><circle class="dot reactive tooltip-trigger" cx="630.4384615384615" cy="421.54819581820016" r="2.5" /><desc class="value">-64</desc><desc class="x left top">630.4384615384615</desc><desc class="y left top">421.54819581820016</desc></g></g><g class="series serie-1 color-1"><g class="dots"><circle class="dot reactive tooltip-trigger" cx="12.36153846153846" cy="257.0366097986124" r="2.5" /><desc class="value">-62</desc><desc class="x ">12.36153846153846</desc><desc class="y ">257.0366097986124</desc></g><g class="dots"><circle class="dot reactive tooltip-trigger" cx="321.4" cy="92.52502377902465" r="2.5" /><desc class="value">-60</desc><desc class="x ">321.4</desc><desc class="y ">92.52502377902465</desc></g><g class="dots"><circle class="dot reactive tooltip-trigger" cx="630.4384615384615" cy="10.269230769230717" r="2.5" /><desc class="value">-59</desc><desc class="x left">630.4384615384615</desc><desc class="y left">10.269230769230717</desc></g></g><g class="series serie-2 color-2"><g class="dots"><circle class="dot reactive tooltip-trigger" cx="12.36153846153846" cy="257.0366097986124" r="2.5" /><desc class="value">-62</desc><desc class="x ">12.36153846153846</desc><desc class="y ">257.0366097986124</desc></g><g class="dots"><circle class="dot reactive tooltip-trigger" cx="321.4" cy="339.2924028084063" r="2.5" /><desc class="value">-63</desc><desc class="x top">321.4</desc><desc class="y top">339.2924028084063</desc></g><g class="dots"><circle class="dot reactive tooltip-trigger" cx="630.4384615384615" cy="257.0366097986124" r="2.5" /><desc class="value">-62</desc><desc class="x left">630.4384615384615</desc><desc class="y left">257.0366097986124</desc></g></g></g><g class="plot text-overlay" transform="translate(137, 46)"><g class="series serie-0 color-0" /><g class="series serie-1 color-1" /><g class="series serie-2 color-2" /></g><g class="plot tooltip-overlay" transform="translate(137, 46)"><g class="tooltip" style="opacity: 0" transform="translate(0 0)"><rect class="tooltip-box" height="0" rx="0" ry="0" width="0" /><g class="text" /></g></g><g class="legends" transform="translate(10, 56)"><g class="legend reactive activate-serie" id="activate-serie-0"><rect class="color-0 reactive" height="12" width="12" x="0.0" y="1.0" /><text x="17.0" y="11.2">0b3312e6</text></g><g class="legend reactive activate-serie" id="activate-serie-1"><rect class="color-1 reactive" height="12" width="12" x="0.0" y="22.0" /><text x="17.0" y="32.2">eec50c22</text></g><g class="legend reactive activate-serie" id="activate-serie-2"><rect class="color-2 reactive" height="12" width="12" x="0.0" y="43.0" /><text x="17.0" y="53.2">1fc6a334</text></g></g><g class="legends" transform="translate(790, 56)" /></g></svg>